<?xml version="1.0" encoding="UTF-8"?>
<!DOCTYPE svg PUBLIC "-//W3C//DTD SVG 1.1//EN" "http://www.w3.org/Graphics/SVG/1.1/DTD/svg11.dtd">
<svg width="160mm" height="185mm" viewBox="0 0 16000 18500" version="1.1" xmlns="http://www.w3.org/2000/svg" xmlns:xlink="http://www.w3.org/1999/xlink" stroke-width="28.222" stroke-linejoin="round" xml:space="preserve">
 <path fill="rgb(255,255,255)" stroke="none" d="M 7987,18487 L -13,18487 -13,-13 15987,-13 15987,18487 7987,18487 Z "/>
 <path fill="none" stroke="rgb(179,179,179)" stroke-linejoin="round" d="M 6705,17033 L 1763,17033 1763,1842 11647,1842 11647,17033 6705,17033 Z "/>
 <path fill="none" stroke="rgb(179,179,179)" stroke-linejoin="round" d="M 11647,17032 L 1763,17032 "/>
 <path fill="none" stroke="rgb(179,179,179)" stroke-linejoin="round" d="M 11647,15650 L 1763,15650 "/>
 <path fill="none" stroke="rgb(179,179,179)" stroke-linejoin="round" d="M 11647,14269 L 1763,14269 "/>
 <path fill="none" stroke="rgb(179,179,179)" stroke-linejoin="round" d="M 11647,12888 L 1763,12888 "/>
 <path fill="none" stroke="rgb(179,179,179)" stroke-linejoin="round" d="M 11647,11507 L 1763,11507 "/>
 <path fill="none" stroke="rgb(179,179,179)" stroke-linejoin="round" d="M 11647,10126 L 1763,10126 "/>
 <path fill="none" stroke="rgb(179,179,179)" stroke-linejoin="round" d="M 11647,8746 L 1763,8746 "/>
 <path fill="none" stroke="rgb(179,179,179)" stroke-linejoin="round" d="M 11647,7365 L 1763,7365 "/>
 <path fill="none" stroke="rgb(179,179,179)" stroke-linejoin="round" d="M 11647,5984 L 1763,5984 "/>
 <path fill="none" stroke="rgb(179,179,179)" stroke-linejoin="round" d="M 11647,4603 L 1763,4603 "/>
 <path fill="none" stroke="rgb(179,179,179)" stroke-linejoin="round" d="M 11647,3222 L 1763,3222 "/>
 <path fill="none" stroke="rgb(179,179,179)" stroke-linejoin="round" d="M 11647,1840 L 1763,1840 "/>
 <path fill="none" stroke="rgb(179,179,179)" stroke-linejoin="round" d="M 1763,17182 L 1763,17032 "/>
 <path fill="none" stroke="rgb(179,179,179)" stroke-linejoin="round" d="M 1763,17182 L 1763,17032 "/>
 <path fill="none" stroke="rgb(179,179,179)" stroke-linejoin="round" d="M 2004,17182 L 2004,17032 "/>
 <path fill="none" stroke="rgb(179,179,179)" stroke-linejoin="round" d="M 2004,17182 L 2004,17032 "/>
 <path fill="none" stroke="rgb(179,179,179)" stroke-linejoin="round" d="M 2245,17182 L 2245,17032 "/>
 <path fill="none" stroke="rgb(179,179,179)" stroke-linejoin="round" d="M 2245,17182 L 2245,17032 "/>
 <path fill="none" stroke="rgb(179,179,179)" stroke-linejoin="round" d="M 2486,17182 L 2486,17032 "/>
 <path fill="none" stroke="rgb(179,179,179)" stroke-linejoin="round" d="M 2486,17182 L 2486,17032 "/>
 <path fill="none" stroke="rgb(179,179,179)" stroke-linejoin="round" d="M 2727,17182 L 2727,17032 "/>
 <path fill="none" stroke="rgb(179,179,179)" stroke-linejoin="round" d="M 2727,17182 L 2727,17032 "/>
 <path fill="none" stroke="rgb(179,179,179)" stroke-linejoin="round" d="M 2968,17182 L 2968,17032 "/>
 <path fill="none" stroke="rgb(179,179,179)" stroke-linejoin="round" d="M 2968,17182 L 2968,17032 "/>
 <path fill="none" stroke="rgb(179,179,179)" stroke-linejoin="round" d="M 3209,17182 L 3209,17032 "/>
 <path fill="none" stroke="rgb(179,179,179)" stroke-linejoin="round" d="M 3209,17182 L 3209,17032 "/>
 <path fill="none" stroke="rgb(179,179,179)" stroke-linejoin="round" d="M 3450,17182 L 3450,17032 "/>
 <path fill="none" stroke="rgb(179,179,179)" stroke-linejoin="round" d="M 3450,17182 L 3450,17032 "/>
 <path fill="none" stroke="rgb(179,179,179)" stroke-linejoin="round" d="M 3691,17182 L 3691,17032 "/>
 <path fill="none" stroke="rgb(179,179,179)" stroke-linejoin="round" d="M 3691,17182 L 3691,17032 "/>
 <path fill="none" stroke="rgb(179,179,179)" stroke-linejoin="round" d="M 3932,17182 L 3932,17032 "/>
 <path fill="none" stroke="rgb(179,179,179)" stroke-linejoin="round" d="M 3932,17182 L 3932,17032 "/>
 <path fill="none" stroke="rgb(179,179,179)" stroke-linejoin="round" d="M 4173,17182 L 4173,17032 "/>
 <path fill="none" stroke="rgb(179,179,179)" stroke-linejoin="round" d="M 4173,17182 L 4173,17032 "/>
 <path fill="none" stroke="rgb(179,179,179)" stroke-linejoin="round" d="M 4415,17182 L 4415,17032 "/>
 <path fill="none" stroke="rgb(179,179,179)" stroke-linejoin="round" d="M 4415,17182 L 4415,17032 "/>
 <path fill="none" stroke="rgb(179,179,179)" stroke-linejoin="round" d="M 4656,17182 L 4656,17032 "/>
 <path fill="none" stroke="rgb(179,179,179)" stroke-linejoin="round" d="M 4656,17182 L 4656,17032 "/>
 <path fill="none" stroke="rgb(179,179,179)" stroke-linejoin="round" d="M 4897,17182 L 4897,17032 "/>
 <path fill="none" stroke="rgb(179,179,179)" stroke-linejoin="round" d="M 4897,17182 L 4897,17032 "/>
 <path fill="none" stroke="rgb(179,179,179)" stroke-linejoin="round" d="M 5138,17182 L 5138,17032 "/>
 <path fill="none" stroke="rgb(179,179,179)" stroke-linejoin="round" d="M 5138,17182 L 5138,17032 "/>
 <path fill="none" stroke="rgb(179,179,179)" stroke-linejoin="round" d="M 5379,17182 L 5379,17032 "/>
 <path fill="none" stroke="rgb(179,179,179)" stroke-linejoin="round" d="M 5379,17182 L 5379,17032 "/>
 <path fill="none" stroke="rgb(179,179,179)" stroke-linejoin="round" d="M 5620,17182 L 5620,17032 "/>
 <path fill="none" stroke="rgb(179,179,179)" stroke-linejoin="round" d="M 5620,17182 L 5620,17032 "/>
 <path fill="none" stroke="rgb(179,179,179)" stroke-linejoin="round" d="M 5861,17182 L 5861,17032 "/>
 <path fill="none" stroke="rgb(179,179,179)" stroke-linejoin="round" d="M 5861,17182 L 5861,17032 "/>
 <path fill="none" stroke="rgb(179,179,179)" stroke-linejoin="round" d="M 6102,17182 L 6102,17032 "/>
 <path fill="none" stroke="rgb(179,179,179)" stroke-linejoin="round" d="M 6102,17182 L 6102,17032 "/>
 <path fill="none" stroke="rgb(179,179,179)" stroke-linejoin="round" d="M 6343,17182 L 6343,17032 "/>
 <path fill="none" stroke="rgb(179,179,179)" stroke-linejoin="round" d="M 6343,17182 L 6343,17032 "/>
 <path fill="none" stroke="rgb(179,179,179)" stroke-linejoin="round" d="M 6584,17182 L 6584,17032 "/>
 <path fill="none" stroke="rgb(179,179,179)" stroke-linejoin="round" d="M 6584,17182 L 6584,17032 "/>
 <path fill="none" stroke="rgb(179,179,179)" stroke-linejoin="round" d="M 6826,17182 L 6826,17032 "/>
 <path fill="none" stroke="rgb(179,179,179)" stroke-linejoin="round" d="M 6826,17182 L 6826,17032 "/>
 <path fill="none" stroke="rgb(179,179,179)" stroke-linejoin="round" d="M 7067,17182 L 7067,17032 "/>
 <path fill="none" stroke="rgb(179,179,179)" stroke-linejoin="round" d="M 7067,17182 L 7067,17032 "/>
 <path fill="none" stroke="rgb(179,179,179)" stroke-linejoin="round" d="M 7308,17182 L 7308,17032 "/>
 <path fill="none" stroke="rgb(179,179,179)" stroke-linejoin="round" d="M 7308,17182 L 7308,17032 "/>
 <path fill="none" stroke="rgb(179,179,179)" stroke-linejoin="round" d="M 7549,17182 L 7549,17032 "/>
 <path fill="none" stroke="rgb(179,179,179)" stroke-linejoin="round" d="M 7549,17182 L 7549,17032 "/>
 <path fill="none" stroke="rgb(179,179,179)" stroke-linejoin="round" d="M 7790,17182 L 7790,17032 "/>
 <path fill="none" stroke="rgb(179,179,179)" stroke-linejoin="round" d="M 7790,17182 L 7790,17032 "/>
 <path fill="none" stroke="rgb(179,179,179)" stroke-linejoin="round" d="M 8030,17182 L 8030,17032 "/>
 <path fill="none" stroke="rgb(179,179,179)" stroke-linejoin="round" d="M 8030,17182 L 8030,17032 "/>
 <path fill="none" stroke="rgb(179,179,179)" stroke-linejoin="round" d="M 8271,17182 L 8271,17032 "/>
 <path fill="none" stroke="rgb(179,179,179)" stroke-linejoin="round" d="M 8271,17182 L 8271,17032 "/>
 <path fill="none" stroke="rgb(179,179,179)" stroke-linejoin="round" d="M 8512,17182 L 8512,17032 "/>
 <path fill="none" stroke="rgb(179,179,179)" stroke-linejoin="round" d="M 8512,17182 L 8512,17032 "/>
 <path fill="none" stroke="rgb(179,179,179)" stroke-linejoin="round" d="M 8753,17182 L 8753,17032 "/>
 <path fill="none" stroke="rgb(179,179,179)" stroke-linejoin="round" d="M 8753,17182 L 8753,17032 "/>
 <path fill="none" stroke="rgb(179,179,179)" stroke-linejoin="round" d="M 8994,17182 L 8994,17032 "/>
 <path fill="none" stroke="rgb(179,179,179)" stroke-linejoin="round" d="M 8994,17182 L 8994,17032 "/>
 <path fill="none" stroke="rgb(179,179,179)" stroke-linejoin="round" d="M 9236,17182 L 9236,17032 "/>
 <path fill="none" stroke="rgb(179,179,179)" stroke-linejoin="round" d="M 9236,17182 L 9236,17032 "/>
 <path fill="none" stroke="rgb(179,179,179)" stroke-linejoin="round" d="M 9477,17182 L 9477,17032 "/>
 <path fill="none" stroke="rgb(179,179,179)" stroke-linejoin="round" d="M 9477,17182 L 9477,17032 "/>
 <path fill="none" stroke="rgb(179,179,179)" stroke-linejoin="round" d="M 9718,17182 L 9718,17032 "/>
 <path fill="none" stroke="rgb(179,179,179)" stroke-linejoin="round" d="M 9718,17182 L 9718,17032 "/>
 <path fill="none" stroke="rgb(179,179,179)" stroke-linejoin="round" d="M 9959,17182 L 9959,17032 "/>
 <path fill="none" stroke="rgb(179,179,179)" stroke-linejoin="round" d="M 9959,17182 L 9959,17032 "/>
 <path fill="none" stroke="rgb(179,179,179)" stroke-linejoin="round" d="M 10200,17182 L 10200,17032 "/>
 <path fill="none" stroke="rgb(179,179,179)" stroke-linejoin="round" d="M 10200,17182 L 10200,17032 "/>
 <path fill="none" stroke="rgb(179,179,179)" stroke-linejoin="round" d="M 10441,17182 L 10441,17032 "/>
 <path fill="none" stroke="rgb(179,179,179)" stroke-linejoin="round" d="M 10441,17182 L 10441,17032 "/>
 <path fill="none" stroke="rgb(179,179,179)" stroke-linejoin="round" d="M 10682,17182 L 10682,17032 "/>
 <path fill="none" stroke="rgb(179,179,179)" stroke-linejoin="round" d="M 10682,17182 L 10682,17032 "/>
 <path fill="none" stroke="rgb(179,179,179)" stroke-linejoin="round" d="M 10923,17182 L 10923,17032 "/>
 <path fill="none" stroke="rgb(179,179,179)" stroke-linejoin="round" d="M 10923,17182 L 10923,17032 "/>
 <path fill="none" stroke="rgb(179,179,179)" stroke-linejoin="round" d="M 11164,17182 L 11164,17032 "/>
 <path fill="none" stroke="rgb(179,179,179)" stroke-linejoin="round" d="M 11164,17182 L 11164,17032 "/>
 <path fill="none" stroke="rgb(179,179,179)" stroke-linejoin="round" d="M 11405,17182 L 11405,17032 "/>
 <path fill="none" stroke="rgb(179,179,179)" stroke-linejoin="round" d="M 11405,17182 L 11405,17032 "/>
 <path fill="none" stroke="rgb(179,179,179)" stroke-linejoin="round" d="M 11647,17182 L 11647,17032 "/>
 <path fill="none" stroke="rgb(179,179,179)" stroke-linejoin="round" d="M 11647,17182 L 11647,17032 "/>
 <path fill="none" stroke="rgb(179,179,179)" stroke-linejoin="round" d="M 1763,17032 L 11647,17032 "/>
 <path fill="none" stroke="rgb(179,179,179)" stroke-linejoin="round" d="M 1613,17032 L 1763,17032 "/>
 <path fill="none" stroke="rgb(179,179,179)" stroke-linejoin="round" d="M 1613,17032 L 1763,17032 "/>
 <path fill="none" stroke="rgb(179,179,179)" stroke-linejoin="round" d="M 1613,15650 L 1763,15650 "/>
 <path fill="none" stroke="rgb(179,179,179)" stroke-linejoin="round" d="M 1613,15650 L 1763,15650 "/>
 <path fill="none" stroke="rgb(179,179,179)" stroke-linejoin="round" d="M 1613,14269 L 1763,14269 "/>
 <path fill="none" stroke="rgb(179,179,179)" stroke-linejoin="round" d="M 1613,14269 L 1763,14269 "/>
 <path fill="none" stroke="rgb(179,179,179)" stroke-linejoin="round" d="M 1613,12888 L 1763,12888 "/>
 <path fill="none" stroke="rgb(179,179,179)" stroke-linejoin="round" d="M 1613,12888 L 1763,12888 "/>
 <path fill="none" stroke="rgb(179,179,179)" stroke-linejoin="round" d="M 1613,11507 L 1763,11507 "/>
 <path fill="none" stroke="rgb(179,179,179)" stroke-linejoin="round" d="M 1613,11507 L 1763,11507 "/>
 <path fill="none" stroke="rgb(179,179,179)" stroke-linejoin="round" d="M 1613,10126 L 1763,10126 "/>
 <path fill="none" stroke="rgb(179,179,179)" stroke-linejoin="round" d="M 1613,10126 L 1763,10126 "/>
 <path fill="none" stroke="rgb(179,179,179)" stroke-linejoin="round" d="M 1613,8746 L 1763,8746 "/>
 <path fill="none" stroke="rgb(179,179,179)" stroke-linejoin="round" d="M 1613,8746 L 1763,8746 "/>
 <path fill="none" stroke="rgb(179,179,179)" stroke-linejoin="round" d="M 1613,7365 L 1763,7365 "/>
 <path fill="none" stroke="rgb(179,179,179)" stroke-linejoin="round" d="M 1613,7365 L 1763,7365 "/>
 <path fill="none" stroke="rgb(179,179,179)" stroke-linejoin="round" d="M 1613,5984 L 1763,5984 "/>
 <path fill="none" stroke="rgb(179,179,179)" stroke-linejoin="round" d="M 1613,5984 L 1763,5984 "/>
 <path fill="none" stroke="rgb(179,179,179)" stroke-linejoin="round" d="M 1613,4603 L 1763,4603 "/>
 <path fill="none" stroke="rgb(179,179,179)" stroke-linejoin="round" d="M 1613,4603 L 1763,4603 "/>
 <path fill="none" stroke="rgb(179,179,179)" stroke-linejoin="round" d="M 1613,3222 L 1763,3222 "/>
 <path fill="none" stroke="rgb(179,179,179)" stroke-linejoin="round" d="M 1613,3222 L 1763,3222 "/>
 <path fill="none" stroke="rgb(179,179,179)" stroke-linejoin="round" d="M 1613,1840 L 1763,1840 "/>
 <path fill="none" stroke="rgb(179,179,179)" stroke-linejoin="round" d="M 1613,1840 L 1763,1840 "/>
 <path fill="none" stroke="rgb(179,179,179)" stroke-linejoin="round" d="M 1763,17032 L 1763,1840 "/>
 <path fill="none" stroke="rgb(0,69,134)" stroke-width="80" stroke-linejoin="round" d="M 1763,3774 L 2004,10974 2245,14217 2486,15668 2727,16208 2968,14090 3209,16948 3450,17032 3691,17032 3932,17032 4173,17032 4415,17032 4656,17032 4897,17032 5138,17032 5379,17032 5620,17032 5861,17032 6102,17032 6343,17032 6584,17032 6826,17032 7067,17032 7308,17032 7549,17032 7790,17032 8030,17032 8271,17032 8512,17032 8753,17032 8994,17032 9236,17032 9477,17032 9718,17032 9959,17032 10200,17032 10441,16786 10682,16147 10923,16055 11164,15212 11405,13218 11647,8747 "/>
 <path fill="none" stroke="rgb(255,66,14)" stroke-width="80" stroke-linejoin="round" d="M 1763,3788 L 2004,10974 2245,14217 2486,15668 2727,16208 2968,14112 3209,16948 3450,17032 3691,17032 3932,17032 4173,17032 4415,17032 4656,17032 4897,17032 5138,17032 5379,17032 5620,17032 5861,17032 6102,17032 6343,17032 6584,17032 6826,17032 7067,17032 7308,17032 7549,17032 7790,17032 8030,17032 8271,17032 8512,17032 8753,17032 8994,17032 9236,17032 9477,17032 9718,17032 9959,17032 10200,16986 10441,16786 10682,16162 10923,16055 11164,15212 11405,13218 11647,8747 "/>
 <text class="SVGTextShape" transform="rotate(-45 1292 18061)"><tspan class="TextParagraph"><tspan class="TextPosition" x="1292" y="18061"><tspan font-family="Liberation Sans, sans-serif" font-size="353px" font-weight="400" fill="rgb(0,0,0)" stroke="none" style="white-space: pre">-2.08</tspan></tspan></tspan></text>
 <text class="SVGTextShape" transform="rotate(-45 2015 18061)"><tspan class="TextParagraph"><tspan class="TextPosition" x="2015" y="18061"><tspan font-family="Liberation Sans, sans-serif" font-size="353px" font-weight="400" fill="rgb(0,0,0)" stroke="none" style="white-space: pre">-1.78</tspan></tspan></tspan></text>
 <text class="SVGTextShape" transform="rotate(-45 2738 18061)"><tspan class="TextParagraph"><tspan class="TextPosition" x="2738" y="18061"><tspan font-family="Liberation Sans, sans-serif" font-size="353px" font-weight="400" fill="rgb(0,0,0)" stroke="none" style="white-space: pre">-1.48</tspan></tspan></tspan></text>
 <text class="SVGTextShape" transform="rotate(-45 3461 18061)"><tspan class="TextParagraph"><tspan class="TextPosition" x="3461" y="18061"><tspan font-family="Liberation Sans, sans-serif" font-size="353px" font-weight="400" fill="rgb(0,0,0)" stroke="none" style="white-space: pre">-1.18</tspan></tspan></tspan></text>
 <text class="SVGTextShape" transform="rotate(-45 4185 18061)"><tspan class="TextParagraph"><tspan class="TextPosition" x="4185" y="18061"><tspan font-family="Liberation Sans, sans-serif" font-size="353px" font-weight="400" fill="rgb(0,0,0)" stroke="none" style="white-space: pre">-0.88</tspan></tspan></tspan></text>
 <text class="SVGTextShape" transform="rotate(-45 4908 18061)"><tspan class="TextParagraph"><tspan class="TextPosition" x="4908" y="18061"><tspan font-family="Liberation Sans, sans-serif" font-size="353px" font-weight="400" fill="rgb(0,0,0)" stroke="none" style="white-space: pre">-0.58</tspan></tspan></tspan></text>
 <text class="SVGTextShape" transform="rotate(-45 5631 18061)"><tspan class="TextParagraph"><tspan class="TextPosition" x="5631" y="18061"><tspan font-family="Liberation Sans, sans-serif" font-size="353px" font-weight="400" fill="rgb(0,0,0)" stroke="none" style="white-space: pre">-0.28</tspan></tspan></tspan></text>
 <text class="SVGTextShape" transform="rotate(-45 6436 17981)"><tspan class="TextParagraph"><tspan class="TextPosition" x="6436" y="17981"><tspan font-family="Liberation Sans, sans-serif" font-size="353px" font-weight="400" fill="rgb(0,0,0)" stroke="none" style="white-space: pre">0.02</tspan></tspan></tspan></text>
 <text class="SVGTextShape" transform="rotate(-45 7159 17981)"><tspan class="TextParagraph"><tspan class="TextPosition" x="7159" y="17981"><tspan font-family="Liberation Sans, sans-serif" font-size="353px" font-weight="400" fill="rgb(0,0,0)" stroke="none" style="white-space: pre">0.32</tspan></tspan></tspan></text>
 <text class="SVGTextShape" transform="rotate(-45 7882 17981)"><tspan class="TextParagraph"><tspan class="TextPosition" x="7882" y="17981"><tspan font-family="Liberation Sans, sans-serif" font-size="353px" font-weight="400" fill="rgb(0,0,0)" stroke="none" style="white-space: pre">0.62</tspan></tspan></tspan></text>
 <text class="SVGTextShape" transform="rotate(-45 8604 17981)"><tspan class="TextParagraph"><tspan class="TextPosition" x="8604" y="17981"><tspan font-family="Liberation Sans, sans-serif" font-size="353px" font-weight="400" fill="rgb(0,0,0)" stroke="none" style="white-space: pre">0.92</tspan></tspan></tspan></text>
 <text class="SVGTextShape" transform="rotate(-45 9328 17981)"><tspan class="TextParagraph"><tspan class="TextPosition" x="9328" y="17981"><tspan font-family="Liberation Sans, sans-serif" font-size="353px" font-weight="400" fill="rgb(0,0,0)" stroke="none" style="white-space: pre">1.22</tspan></tspan></tspan></text>
 <text class="SVGTextShape" transform="rotate(-45 10051 17981)"><tspan class="TextParagraph"><tspan class="TextPosition" x="10051" y="17981"><tspan font-family="Liberation Sans, sans-serif" font-size="353px" font-weight="400" fill="rgb(0,0,0)" stroke="none" style="white-space: pre">1.52</tspan></tspan></tspan></text>
 <text class="SVGTextShape" transform="rotate(-45 10774 17981)"><tspan class="TextParagraph"><tspan class="TextPosition" x="10774" y="17981"><tspan font-family="Liberation Sans, sans-serif" font-size="353px" font-weight="400" fill="rgb(0,0,0)" stroke="none" style="white-space: pre">1.82</tspan></tspan></tspan></text>
 <text class="SVGTextShape"><tspan class="TextParagraph"><tspan class="TextPosition" x="1322" y="17153"><tspan font-family="Liberation Sans, sans-serif" font-size="353px" font-weight="400" fill="rgb(0,0,0)" stroke="none" style="white-space: pre">0</tspan></tspan></tspan></text>
 <text class="SVGTextShape"><tspan class="TextParagraph"><tspan class="TextPosition" x="595" y="15771"><tspan font-family="Liberation Sans, sans-serif" font-size="353px" font-weight="400" fill="rgb(0,0,0)" stroke="none" style="white-space: pre">2E-13</tspan></tspan></tspan></text>
 <text class="SVGTextShape"><tspan class="TextParagraph"><tspan class="TextPosition" x="595" y="14390"><tspan font-family="Liberation Sans, sans-serif" font-size="353px" font-weight="400" fill="rgb(0,0,0)" stroke="none" style="white-space: pre">4E-13</tspan></tspan></tspan></text>
 <text class="SVGTextShape"><tspan class="TextParagraph"><tspan class="TextPosition" x="595" y="13009"><tspan font-family="Liberation Sans, sans-serif" font-size="353px" font-weight="400" fill="rgb(0,0,0)" stroke="none" style="white-space: pre">6E-13</tspan></tspan></tspan></text>
 <text class="SVGTextShape"><tspan class="TextParagraph"><tspan class="TextPosition" x="595" y="11628"><tspan font-family="Liberation Sans, sans-serif" font-size="353px" font-weight="400" fill="rgb(0,0,0)" stroke="none" style="white-space: pre">8E-13</tspan></tspan></tspan></text>
 <text class="SVGTextShape"><tspan class="TextParagraph"><tspan class="TextPosition" x="595" y="10247"><tspan font-family="Liberation Sans, sans-serif" font-size="353px" font-weight="400" fill="rgb(0,0,0)" stroke="none" style="white-space: pre">1E-12</tspan></tspan></tspan></text>
 <text class="SVGTextShape"><tspan class="TextParagraph"><tspan class="TextPosition" x="308" y="8867"><tspan font-family="Liberation Sans, sans-serif" font-size="353px" font-weight="400" fill="rgb(0,0,0)" stroke="none" style="white-space: pre">1.2E-12</tspan></tspan></tspan></text>
 <text class="SVGTextShape"><tspan class="TextParagraph"><tspan class="TextPosition" x="308" y="7486"><tspan font-family="Liberation Sans, sans-serif" font-size="353px" font-weight="400" fill="rgb(0,0,0)" stroke="none" style="white-space: pre">1.4E-12</tspan></tspan></tspan></text>
 <text class="SVGTextShape"><tspan class="TextParagraph"><tspan class="TextPosition" x="308" y="6105"><tspan font-family="Liberation Sans, sans-serif" font-size="353px" font-weight="400" fill="rgb(0,0,0)" stroke="none" style="white-space: pre">1.6E-12</tspan></tspan></tspan></text>
 <text class="SVGTextShape"><tspan class="TextParagraph"><tspan class="TextPosition" x="308" y="4724"><tspan font-family="Liberation Sans, sans-serif" font-size="353px" font-weight="400" fill="rgb(0,0,0)" stroke="none" style="white-space: pre">1.8E-12</tspan></tspan></tspan></text>
 <text class="SVGTextShape"><tspan class="TextParagraph"><tspan class="TextPosition" x="595" y="3343"><tspan font-family="Liberation Sans, sans-serif" font-size="353px" font-weight="400" fill="rgb(0,0,0)" stroke="none" style="white-space: pre">2E-12</tspan></tspan></tspan></text>
 <text class="SVGTextShape"><tspan class="TextParagraph"><tspan class="TextPosition" x="308" y="1961"><tspan font-family="Liberation Sans, sans-serif" font-size="353px" font-weight="400" fill="rgb(0,0,0)" stroke="none" style="white-space: pre">2.2E-12</tspan></tspan></tspan></text>
 <text class="SVGTextShape"><tspan class="TextParagraph"><tspan class="TextPosition" x="2958" y="1029"><tspan font-family="Liberation Sans, sans-serif" font-size="459px" font-weight="400" fill="rgb(0,0,0)" stroke="none" style="white-space: pre">Относительная неточность косинуса, 10 членов</tspan></tspan></tspan></text>
 <path fill="none" stroke="rgb(0,69,134)" stroke-width="80" stroke-linejoin="round" d="M 12083,8987 L 12883,8987 "/>
 <path fill="none" stroke="rgb(255,66,14)" stroke-width="80" stroke-linejoin="round" d="M 12083,9484 L 12883,9484 "/>
 <text class="SVGTextShape"><tspan class="TextParagraph"><tspan class="TextPosition" x="12983" y="9107"><tspan font-family="Liberation Sans, sans-serif" font-size="353px" font-weight="400" fill="rgb(0,0,0)" stroke="none" style="white-space: pre">Обратная сумма</tspan></tspan></tspan></text>
 <text class="SVGTextShape"><tspan class="TextParagraph"><tspan class="TextPosition" x="12983" y="9604"><tspan font-family="Liberation Sans, sans-serif" font-size="353px" font-weight="400" fill="rgb(0,0,0)" stroke="none" style="white-space: pre">Прямая сумма</tspan></tspan></tspan></text>
</svg>