<?xml version="1.0" encoding="UTF-8"?>
<!DOCTYPE svg PUBLIC "-//W3C//DTD SVG 1.1//EN" "http://www.w3.org/Graphics/SVG/1.1/DTD/svg11.dtd">
<svg width="160mm" height="185mm" viewBox="0 0 16000 18500" version="1.1" xmlns="http://www.w3.org/2000/svg" xmlns:xlink="http://www.w3.org/1999/xlink" stroke-width="28.222" stroke-linejoin="round" xml:space="preserve">
 <path fill="rgb(255,255,255)" stroke="none" d="M 7987,18487 L -13,18487 -13,-13 15987,-13 15987,18487 7987,18487 Z "/>
 <path fill="none" stroke="rgb(179,179,179)" stroke-linejoin="round" d="M 6533,17033 L 1419,17033 1419,1841 11647,1841 11647,17033 6533,17033 Z "/>
 <path fill="none" stroke="rgb(179,179,179)" stroke-linejoin="round" d="M 11647,17032 L 1419,17032 "/>
 <path fill="none" stroke="rgb(179,179,179)" stroke-linejoin="round" d="M 11647,16341 L 1419,16341 "/>
 <path fill="none" stroke="rgb(179,179,179)" stroke-linejoin="round" d="M 11647,15650 L 1419,15650 "/>
 <path fill="none" stroke="rgb(179,179,179)" stroke-linejoin="round" d="M 11647,14960 L 1419,14960 "/>
 <path fill="none" stroke="rgb(179,179,179)" stroke-linejoin="round" d="M 11647,14269 L 1419,14269 "/>
 <path fill="none" stroke="rgb(179,179,179)" stroke-linejoin="round" d="M 11647,13579 L 1419,13579 "/>
 <path fill="none" stroke="rgb(179,179,179)" stroke-linejoin="round" d="M 11647,12888 L 1419,12888 "/>
 <path fill="none" stroke="rgb(179,179,179)" stroke-linejoin="round" d="M 11647,12197 L 1419,12197 "/>
 <path fill="none" stroke="rgb(179,179,179)" stroke-linejoin="round" d="M 11647,11507 L 1419,11507 "/>
 <path fill="none" stroke="rgb(179,179,179)" stroke-linejoin="round" d="M 11647,10816 L 1419,10816 "/>
 <path fill="none" stroke="rgb(179,179,179)" stroke-linejoin="round" d="M 11647,10126 L 1419,10126 "/>
 <path fill="none" stroke="rgb(179,179,179)" stroke-linejoin="round" d="M 11647,9435 L 1419,9435 "/>
 <path fill="none" stroke="rgb(179,179,179)" stroke-linejoin="round" d="M 11647,8745 L 1419,8745 "/>
 <path fill="none" stroke="rgb(179,179,179)" stroke-linejoin="round" d="M 11647,8055 L 1419,8055 "/>
 <path fill="none" stroke="rgb(179,179,179)" stroke-linejoin="round" d="M 11647,7364 L 1419,7364 "/>
 <path fill="none" stroke="rgb(179,179,179)" stroke-linejoin="round" d="M 11647,6674 L 1419,6674 "/>
 <path fill="none" stroke="rgb(179,179,179)" stroke-linejoin="round" d="M 11647,5983 L 1419,5983 "/>
 <path fill="none" stroke="rgb(179,179,179)" stroke-linejoin="round" d="M 11647,5292 L 1419,5292 "/>
 <path fill="none" stroke="rgb(179,179,179)" stroke-linejoin="round" d="M 11647,4602 L 1419,4602 "/>
 <path fill="none" stroke="rgb(179,179,179)" stroke-linejoin="round" d="M 11647,3911 L 1419,3911 "/>
 <path fill="none" stroke="rgb(179,179,179)" stroke-linejoin="round" d="M 11647,3221 L 1419,3221 "/>
 <path fill="none" stroke="rgb(179,179,179)" stroke-linejoin="round" d="M 11647,2530 L 1419,2530 "/>
 <path fill="none" stroke="rgb(179,179,179)" stroke-linejoin="round" d="M 11647,1840 L 1419,1840 "/>
 <path fill="none" stroke="rgb(179,179,179)" stroke-linejoin="round" d="M 1419,17182 L 1419,17032 "/>
 <path fill="none" stroke="rgb(179,179,179)" stroke-linejoin="round" d="M 1419,17182 L 1419,17032 "/>
 <path fill="none" stroke="rgb(179,179,179)" stroke-linejoin="round" d="M 1668,17182 L 1668,17032 "/>
 <path fill="none" stroke="rgb(179,179,179)" stroke-linejoin="round" d="M 1668,17182 L 1668,17032 "/>
 <path fill="none" stroke="rgb(179,179,179)" stroke-linejoin="round" d="M 1917,17182 L 1917,17032 "/>
 <path fill="none" stroke="rgb(179,179,179)" stroke-linejoin="round" d="M 1917,17182 L 1917,17032 "/>
 <path fill="none" stroke="rgb(179,179,179)" stroke-linejoin="round" d="M 2167,17182 L 2167,17032 "/>
 <path fill="none" stroke="rgb(179,179,179)" stroke-linejoin="round" d="M 2167,17182 L 2167,17032 "/>
 <path fill="none" stroke="rgb(179,179,179)" stroke-linejoin="round" d="M 2416,17182 L 2416,17032 "/>
 <path fill="none" stroke="rgb(179,179,179)" stroke-linejoin="round" d="M 2416,17182 L 2416,17032 "/>
 <path fill="none" stroke="rgb(179,179,179)" stroke-linejoin="round" d="M 2666,17182 L 2666,17032 "/>
 <path fill="none" stroke="rgb(179,179,179)" stroke-linejoin="round" d="M 2666,17182 L 2666,17032 "/>
 <path fill="none" stroke="rgb(179,179,179)" stroke-linejoin="round" d="M 2915,17182 L 2915,17032 "/>
 <path fill="none" stroke="rgb(179,179,179)" stroke-linejoin="round" d="M 2915,17182 L 2915,17032 "/>
 <path fill="none" stroke="rgb(179,179,179)" stroke-linejoin="round" d="M 3165,17182 L 3165,17032 "/>
 <path fill="none" stroke="rgb(179,179,179)" stroke-linejoin="round" d="M 3165,17182 L 3165,17032 "/>
 <path fill="none" stroke="rgb(179,179,179)" stroke-linejoin="round" d="M 3414,17182 L 3414,17032 "/>
 <path fill="none" stroke="rgb(179,179,179)" stroke-linejoin="round" d="M 3414,17182 L 3414,17032 "/>
 <path fill="none" stroke="rgb(179,179,179)" stroke-linejoin="round" d="M 3664,17182 L 3664,17032 "/>
 <path fill="none" stroke="rgb(179,179,179)" stroke-linejoin="round" d="M 3664,17182 L 3664,17032 "/>
 <path fill="none" stroke="rgb(179,179,179)" stroke-linejoin="round" d="M 3913,17182 L 3913,17032 "/>
 <path fill="none" stroke="rgb(179,179,179)" stroke-linejoin="round" d="M 3913,17182 L 3913,17032 "/>
 <path fill="none" stroke="rgb(179,179,179)" stroke-linejoin="round" d="M 4163,17182 L 4163,17032 "/>
 <path fill="none" stroke="rgb(179,179,179)" stroke-linejoin="round" d="M 4163,17182 L 4163,17032 "/>
 <path fill="none" stroke="rgb(179,179,179)" stroke-linejoin="round" d="M 4412,17182 L 4412,17032 "/>
 <path fill="none" stroke="rgb(179,179,179)" stroke-linejoin="round" d="M 4412,17182 L 4412,17032 "/>
 <path fill="none" stroke="rgb(179,179,179)" stroke-linejoin="round" d="M 4662,17182 L 4662,17032 "/>
 <path fill="none" stroke="rgb(179,179,179)" stroke-linejoin="round" d="M 4662,17182 L 4662,17032 "/>
 <path fill="none" stroke="rgb(179,179,179)" stroke-linejoin="round" d="M 4911,17182 L 4911,17032 "/>
 <path fill="none" stroke="rgb(179,179,179)" stroke-linejoin="round" d="M 4911,17182 L 4911,17032 "/>
 <path fill="none" stroke="rgb(179,179,179)" stroke-linejoin="round" d="M 5161,17182 L 5161,17032 "/>
 <path fill="none" stroke="rgb(179,179,179)" stroke-linejoin="round" d="M 5161,17182 L 5161,17032 "/>
 <path fill="none" stroke="rgb(179,179,179)" stroke-linejoin="round" d="M 5410,17182 L 5410,17032 "/>
 <path fill="none" stroke="rgb(179,179,179)" stroke-linejoin="round" d="M 5410,17182 L 5410,17032 "/>
 <path fill="none" stroke="rgb(179,179,179)" stroke-linejoin="round" d="M 5660,17182 L 5660,17032 "/>
 <path fill="none" stroke="rgb(179,179,179)" stroke-linejoin="round" d="M 5660,17182 L 5660,17032 "/>
 <path fill="none" stroke="rgb(179,179,179)" stroke-linejoin="round" d="M 5909,17182 L 5909,17032 "/>
 <path fill="none" stroke="rgb(179,179,179)" stroke-linejoin="round" d="M 5909,17182 L 5909,17032 "/>
 <path fill="none" stroke="rgb(179,179,179)" stroke-linejoin="round" d="M 6159,17182 L 6159,17032 "/>
 <path fill="none" stroke="rgb(179,179,179)" stroke-linejoin="round" d="M 6159,17182 L 6159,17032 "/>
 <path fill="none" stroke="rgb(179,179,179)" stroke-linejoin="round" d="M 6408,17182 L 6408,17032 "/>
 <path fill="none" stroke="rgb(179,179,179)" stroke-linejoin="round" d="M 6408,17182 L 6408,17032 "/>
 <path fill="none" stroke="rgb(179,179,179)" stroke-linejoin="round" d="M 6658,17182 L 6658,17032 "/>
 <path fill="none" stroke="rgb(179,179,179)" stroke-linejoin="round" d="M 6658,17182 L 6658,17032 "/>
 <path fill="none" stroke="rgb(179,179,179)" stroke-linejoin="round" d="M 6907,17182 L 6907,17032 "/>
 <path fill="none" stroke="rgb(179,179,179)" stroke-linejoin="round" d="M 6907,17182 L 6907,17032 "/>
 <path fill="none" stroke="rgb(179,179,179)" stroke-linejoin="round" d="M 7157,17182 L 7157,17032 "/>
 <path fill="none" stroke="rgb(179,179,179)" stroke-linejoin="round" d="M 7157,17182 L 7157,17032 "/>
 <path fill="none" stroke="rgb(179,179,179)" stroke-linejoin="round" d="M 7406,17182 L 7406,17032 "/>
 <path fill="none" stroke="rgb(179,179,179)" stroke-linejoin="round" d="M 7406,17182 L 7406,17032 "/>
 <path fill="none" stroke="rgb(179,179,179)" stroke-linejoin="round" d="M 7656,17182 L 7656,17032 "/>
 <path fill="none" stroke="rgb(179,179,179)" stroke-linejoin="round" d="M 7656,17182 L 7656,17032 "/>
 <path fill="none" stroke="rgb(179,179,179)" stroke-linejoin="round" d="M 7905,17182 L 7905,17032 "/>
 <path fill="none" stroke="rgb(179,179,179)" stroke-linejoin="round" d="M 7905,17182 L 7905,17032 "/>
 <path fill="none" stroke="rgb(179,179,179)" stroke-linejoin="round" d="M 8154,17182 L 8154,17032 "/>
 <path fill="none" stroke="rgb(179,179,179)" stroke-linejoin="round" d="M 8154,17182 L 8154,17032 "/>
 <path fill="none" stroke="rgb(179,179,179)" stroke-linejoin="round" d="M 8403,17182 L 8403,17032 "/>
 <path fill="none" stroke="rgb(179,179,179)" stroke-linejoin="round" d="M 8403,17182 L 8403,17032 "/>
 <path fill="none" stroke="rgb(179,179,179)" stroke-linejoin="round" d="M 8653,17182 L 8653,17032 "/>
 <path fill="none" stroke="rgb(179,179,179)" stroke-linejoin="round" d="M 8653,17182 L 8653,17032 "/>
 <path fill="none" stroke="rgb(179,179,179)" stroke-linejoin="round" d="M 8902,17182 L 8902,17032 "/>
 <path fill="none" stroke="rgb(179,179,179)" stroke-linejoin="round" d="M 8902,17182 L 8902,17032 "/>
 <path fill="none" stroke="rgb(179,179,179)" stroke-linejoin="round" d="M 9152,17182 L 9152,17032 "/>
 <path fill="none" stroke="rgb(179,179,179)" stroke-linejoin="round" d="M 9152,17182 L 9152,17032 "/>
 <path fill="none" stroke="rgb(179,179,179)" stroke-linejoin="round" d="M 9401,17182 L 9401,17032 "/>
 <path fill="none" stroke="rgb(179,179,179)" stroke-linejoin="round" d="M 9401,17182 L 9401,17032 "/>
 <path fill="none" stroke="rgb(179,179,179)" stroke-linejoin="round" d="M 9651,17182 L 9651,17032 "/>
 <path fill="none" stroke="rgb(179,179,179)" stroke-linejoin="round" d="M 9651,17182 L 9651,17032 "/>
 <path fill="none" stroke="rgb(179,179,179)" stroke-linejoin="round" d="M 9900,17182 L 9900,17032 "/>
 <path fill="none" stroke="rgb(179,179,179)" stroke-linejoin="round" d="M 9900,17182 L 9900,17032 "/>
 <path fill="none" stroke="rgb(179,179,179)" stroke-linejoin="round" d="M 10150,17182 L 10150,17032 "/>
 <path fill="none" stroke="rgb(179,179,179)" stroke-linejoin="round" d="M 10150,17182 L 10150,17032 "/>
 <path fill="none" stroke="rgb(179,179,179)" stroke-linejoin="round" d="M 10399,17182 L 10399,17032 "/>
 <path fill="none" stroke="rgb(179,179,179)" stroke-linejoin="round" d="M 10399,17182 L 10399,17032 "/>
 <path fill="none" stroke="rgb(179,179,179)" stroke-linejoin="round" d="M 10649,17182 L 10649,17032 "/>
 <path fill="none" stroke="rgb(179,179,179)" stroke-linejoin="round" d="M 10649,17182 L 10649,17032 "/>
 <path fill="none" stroke="rgb(179,179,179)" stroke-linejoin="round" d="M 10898,17182 L 10898,17032 "/>
 <path fill="none" stroke="rgb(179,179,179)" stroke-linejoin="round" d="M 10898,17182 L 10898,17032 "/>
 <path fill="none" stroke="rgb(179,179,179)" stroke-linejoin="round" d="M 11148,17182 L 11148,17032 "/>
 <path fill="none" stroke="rgb(179,179,179)" stroke-linejoin="round" d="M 11148,17182 L 11148,17032 "/>
 <path fill="none" stroke="rgb(179,179,179)" stroke-linejoin="round" d="M 11397,17182 L 11397,17032 "/>
 <path fill="none" stroke="rgb(179,179,179)" stroke-linejoin="round" d="M 11397,17182 L 11397,17032 "/>
 <path fill="none" stroke="rgb(179,179,179)" stroke-linejoin="round" d="M 11647,17182 L 11647,17032 "/>
 <path fill="none" stroke="rgb(179,179,179)" stroke-linejoin="round" d="M 11647,17182 L 11647,17032 "/>
 <path fill="none" stroke="rgb(179,179,179)" stroke-linejoin="round" d="M 1419,17032 L 11647,17032 "/>
 <path fill="none" stroke="rgb(179,179,179)" stroke-linejoin="round" d="M 1269,17032 L 1419,17032 "/>
 <path fill="none" stroke="rgb(179,179,179)" stroke-linejoin="round" d="M 1269,17032 L 1419,17032 "/>
 <path fill="none" stroke="rgb(179,179,179)" stroke-linejoin="round" d="M 1269,16341 L 1419,16341 "/>
 <path fill="none" stroke="rgb(179,179,179)" stroke-linejoin="round" d="M 1269,16341 L 1419,16341 "/>
 <path fill="none" stroke="rgb(179,179,179)" stroke-linejoin="round" d="M 1269,15650 L 1419,15650 "/>
 <path fill="none" stroke="rgb(179,179,179)" stroke-linejoin="round" d="M 1269,15650 L 1419,15650 "/>
 <path fill="none" stroke="rgb(179,179,179)" stroke-linejoin="round" d="M 1269,14960 L 1419,14960 "/>
 <path fill="none" stroke="rgb(179,179,179)" stroke-linejoin="round" d="M 1269,14960 L 1419,14960 "/>
 <path fill="none" stroke="rgb(179,179,179)" stroke-linejoin="round" d="M 1269,14269 L 1419,14269 "/>
 <path fill="none" stroke="rgb(179,179,179)" stroke-linejoin="round" d="M 1269,14269 L 1419,14269 "/>
 <path fill="none" stroke="rgb(179,179,179)" stroke-linejoin="round" d="M 1269,13579 L 1419,13579 "/>
 <path fill="none" stroke="rgb(179,179,179)" stroke-linejoin="round" d="M 1269,13579 L 1419,13579 "/>
 <path fill="none" stroke="rgb(179,179,179)" stroke-linejoin="round" d="M 1269,12888 L 1419,12888 "/>
 <path fill="none" stroke="rgb(179,179,179)" stroke-linejoin="round" d="M 1269,12888 L 1419,12888 "/>
 <path fill="none" stroke="rgb(179,179,179)" stroke-linejoin="round" d="M 1269,12197 L 1419,12197 "/>
 <path fill="none" stroke="rgb(179,179,179)" stroke-linejoin="round" d="M 1269,12197 L 1419,12197 "/>
 <path fill="none" stroke="rgb(179,179,179)" stroke-linejoin="round" d="M 1269,11507 L 1419,11507 "/>
 <path fill="none" stroke="rgb(179,179,179)" stroke-linejoin="round" d="M 1269,11507 L 1419,11507 "/>
 <path fill="none" stroke="rgb(179,179,179)" stroke-linejoin="round" d="M 1269,10816 L 1419,10816 "/>
 <path fill="none" stroke="rgb(179,179,179)" stroke-linejoin="round" d="M 1269,10816 L 1419,10816 "/>
 <path fill="none" stroke="rgb(179,179,179)" stroke-linejoin="round" d="M 1269,10126 L 1419,10126 "/>
 <path fill="none" stroke="rgb(179,179,179)" stroke-linejoin="round" d="M 1269,10126 L 1419,10126 "/>
 <path fill="none" stroke="rgb(179,179,179)" stroke-linejoin="round" d="M 1269,9435 L 1419,9435 "/>
 <path fill="none" stroke="rgb(179,179,179)" stroke-linejoin="round" d="M 1269,9435 L 1419,9435 "/>
 <path fill="none" stroke="rgb(179,179,179)" stroke-linejoin="round" d="M 1269,8745 L 1419,8745 "/>
 <path fill="none" stroke="rgb(179,179,179)" stroke-linejoin="round" d="M 1269,8745 L 1419,8745 "/>
 <path fill="none" stroke="rgb(179,179,179)" stroke-linejoin="round" d="M 1269,8055 L 1419,8055 "/>
 <path fill="none" stroke="rgb(179,179,179)" stroke-linejoin="round" d="M 1269,8055 L 1419,8055 "/>
 <path fill="none" stroke="rgb(179,179,179)" stroke-linejoin="round" d="M 1269,7364 L 1419,7364 "/>
 <path fill="none" stroke="rgb(179,179,179)" stroke-linejoin="round" d="M 1269,7364 L 1419,7364 "/>
 <path fill="none" stroke="rgb(179,179,179)" stroke-linejoin="round" d="M 1269,6674 L 1419,6674 "/>
 <path fill="none" stroke="rgb(179,179,179)" stroke-linejoin="round" d="M 1269,6674 L 1419,6674 "/>
 <path fill="none" stroke="rgb(179,179,179)" stroke-linejoin="round" d="M 1269,5983 L 1419,5983 "/>
 <path fill="none" stroke="rgb(179,179,179)" stroke-linejoin="round" d="M 1269,5983 L 1419,5983 "/>
 <path fill="none" stroke="rgb(179,179,179)" stroke-linejoin="round" d="M 1269,5292 L 1419,5292 "/>
 <path fill="none" stroke="rgb(179,179,179)" stroke-linejoin="round" d="M 1269,5292 L 1419,5292 "/>
 <path fill="none" stroke="rgb(179,179,179)" stroke-linejoin="round" d="M 1269,4602 L 1419,4602 "/>
 <path fill="none" stroke="rgb(179,179,179)" stroke-linejoin="round" d="M 1269,4602 L 1419,4602 "/>
 <path fill="none" stroke="rgb(179,179,179)" stroke-linejoin="round" d="M 1269,3911 L 1419,3911 "/>
 <path fill="none" stroke="rgb(179,179,179)" stroke-linejoin="round" d="M 1269,3911 L 1419,3911 "/>
 <path fill="none" stroke="rgb(179,179,179)" stroke-linejoin="round" d="M 1269,3221 L 1419,3221 "/>
 <path fill="none" stroke="rgb(179,179,179)" stroke-linejoin="round" d="M 1269,3221 L 1419,3221 "/>
 <path fill="none" stroke="rgb(179,179,179)" stroke-linejoin="round" d="M 1269,2530 L 1419,2530 "/>
 <path fill="none" stroke="rgb(179,179,179)" stroke-linejoin="round" d="M 1269,2530 L 1419,2530 "/>
 <path fill="none" stroke="rgb(179,179,179)" stroke-linejoin="round" d="M 1269,1840 L 1419,1840 "/>
 <path fill="none" stroke="rgb(179,179,179)" stroke-linejoin="round" d="M 1269,1840 L 1419,1840 "/>
 <path fill="none" stroke="rgb(179,179,179)" stroke-linejoin="round" d="M 1419,17032 L 1419,1840 "/>
 <path fill="none" stroke="rgb(0,69,134)" stroke-width="80" stroke-linejoin="round" d="M 1419,14684 L 1668,15084 1917,15342 2167,15426 2416,15098 2666,2971 2915,16183 3165,16799 3414,16947 3664,16998 3913,17018 4163,17026 4412,17030 4662,17031 4911,17031 5161,17031 5410,17031 5660,17031 5909,17031 6159,17031 6408,17031 6658,17032 6907,17031 7157,17031 7406,17031 7656,17031 7905,17031 8154,17031 8403,17031 8653,17030 8902,17029 9152,17024 9401,17012 9651,16983 9900,16907 10150,16663 10399,15158 10649,13822 10898,15323 11148,15419 11397,15256 11647,14941 "/>
 <path fill="none" stroke="rgb(255,66,14)" stroke-width="80" stroke-linejoin="round" d="M 1419,14684 L 1668,15084 1917,15342 2167,15426 2416,15098 2666,2971 2915,16183 3165,16799 3414,16947 3664,16998 3913,17018 4163,17026 4412,17030 4662,17031 4911,17031 5161,17031 5410,17031 5660,17031 5909,17031 6159,17031 6408,17031 6658,17032 6907,17031 7157,17031 7406,17031 7656,17031 7905,17031 8154,17031 8403,17031 8653,17030 8902,17029 9152,17024 9401,17012 9651,16983 9900,16907 10150,16663 10399,15158 10649,13822 10898,15323 11148,15419 11397,15256 11647,14941 "/>
 <text class="SVGTextShape" transform="rotate(-45 948 18061)"><tspan class="TextParagraph"><tspan class="TextPosition" x="948" y="18061"><tspan font-family="Liberation Sans, sans-serif" font-size="353px" font-weight="400" fill="rgb(0,0,0)" stroke="none" style="white-space: pre">-2.08</tspan></tspan></tspan></text>
 <text class="SVGTextShape" transform="rotate(-45 1696 18061)"><tspan class="TextParagraph"><tspan class="TextPosition" x="1696" y="18061"><tspan font-family="Liberation Sans, sans-serif" font-size="353px" font-weight="400" fill="rgb(0,0,0)" stroke="none" style="white-space: pre">-1.78</tspan></tspan></tspan></text>
 <text class="SVGTextShape" transform="rotate(-45 2444 18061)"><tspan class="TextParagraph"><tspan class="TextPosition" x="2444" y="18061"><tspan font-family="Liberation Sans, sans-serif" font-size="353px" font-weight="400" fill="rgb(0,0,0)" stroke="none" style="white-space: pre">-1.48</tspan></tspan></tspan></text>
 <text class="SVGTextShape" transform="rotate(-45 3193 18061)"><tspan class="TextParagraph"><tspan class="TextPosition" x="3193" y="18061"><tspan font-family="Liberation Sans, sans-serif" font-size="353px" font-weight="400" fill="rgb(0,0,0)" stroke="none" style="white-space: pre">-1.18</tspan></tspan></tspan></text>
 <text class="SVGTextShape" transform="rotate(-45 3941 18061)"><tspan class="TextParagraph"><tspan class="TextPosition" x="3941" y="18061"><tspan font-family="Liberation Sans, sans-serif" font-size="353px" font-weight="400" fill="rgb(0,0,0)" stroke="none" style="white-space: pre">-0.88</tspan></tspan></tspan></text>
 <text class="SVGTextShape" transform="rotate(-45 4690 18061)"><tspan class="TextParagraph"><tspan class="TextPosition" x="4690" y="18061"><tspan font-family="Liberation Sans, sans-serif" font-size="353px" font-weight="400" fill="rgb(0,0,0)" stroke="none" style="white-space: pre">-0.58</tspan></tspan></tspan></text>
 <text class="SVGTextShape" transform="rotate(-45 5438 18061)"><tspan class="TextParagraph"><tspan class="TextPosition" x="5438" y="18061"><tspan font-family="Liberation Sans, sans-serif" font-size="353px" font-weight="400" fill="rgb(0,0,0)" stroke="none" style="white-space: pre">-0.28</tspan></tspan></tspan></text>
 <text class="SVGTextShape" transform="rotate(-45 6268 17981)"><tspan class="TextParagraph"><tspan class="TextPosition" x="6268" y="17981"><tspan font-family="Liberation Sans, sans-serif" font-size="353px" font-weight="400" fill="rgb(0,0,0)" stroke="none" style="white-space: pre">0.02</tspan></tspan></tspan></text>
 <text class="SVGTextShape" transform="rotate(-45 7016 17981)"><tspan class="TextParagraph"><tspan class="TextPosition" x="7016" y="17981"><tspan font-family="Liberation Sans, sans-serif" font-size="353px" font-weight="400" fill="rgb(0,0,0)" stroke="none" style="white-space: pre">0.32</tspan></tspan></tspan></text>
 <text class="SVGTextShape" transform="rotate(-45 7765 17981)"><tspan class="TextParagraph"><tspan class="TextPosition" x="7765" y="17981"><tspan font-family="Liberation Sans, sans-serif" font-size="353px" font-weight="400" fill="rgb(0,0,0)" stroke="none" style="white-space: pre">0.62</tspan></tspan></tspan></text>
 <text class="SVGTextShape" transform="rotate(-45 8512 17981)"><tspan class="TextParagraph"><tspan class="TextPosition" x="8512" y="17981"><tspan font-family="Liberation Sans, sans-serif" font-size="353px" font-weight="400" fill="rgb(0,0,0)" stroke="none" style="white-space: pre">0.92</tspan></tspan></tspan></text>
 <text class="SVGTextShape" transform="rotate(-45 9261 17981)"><tspan class="TextParagraph"><tspan class="TextPosition" x="9261" y="17981"><tspan font-family="Liberation Sans, sans-serif" font-size="353px" font-weight="400" fill="rgb(0,0,0)" stroke="none" style="white-space: pre">1.22</tspan></tspan></tspan></text>
 <text class="SVGTextShape" transform="rotate(-45 10009 17981)"><tspan class="TextParagraph"><tspan class="TextPosition" x="10009" y="17981"><tspan font-family="Liberation Sans, sans-serif" font-size="353px" font-weight="400" fill="rgb(0,0,0)" stroke="none" style="white-space: pre">1.52</tspan></tspan></tspan></text>
 <text class="SVGTextShape" transform="rotate(-45 10758 17981)"><tspan class="TextParagraph"><tspan class="TextPosition" x="10758" y="17981"><tspan font-family="Liberation Sans, sans-serif" font-size="353px" font-weight="400" fill="rgb(0,0,0)" stroke="none" style="white-space: pre">1.82</tspan></tspan></tspan></text>
 <text class="SVGTextShape"><tspan class="TextParagraph"><tspan class="TextPosition" x="978" y="17153"><tspan font-family="Liberation Sans, sans-serif" font-size="353px" font-weight="400" fill="rgb(0,0,0)" stroke="none" style="white-space: pre">0</tspan></tspan></tspan></text>
 <text class="SVGTextShape"><tspan class="TextParagraph"><tspan class="TextPosition" x="308" y="16462"><tspan font-family="Liberation Sans, sans-serif" font-size="353px" font-weight="400" fill="rgb(0,0,0)" stroke="none" style="white-space: pre">0.005</tspan></tspan></tspan></text>
 <text class="SVGTextShape"><tspan class="TextParagraph"><tspan class="TextPosition" x="500" y="15771"><tspan font-family="Liberation Sans, sans-serif" font-size="353px" font-weight="400" fill="rgb(0,0,0)" stroke="none" style="white-space: pre">0.01</tspan></tspan></tspan></text>
 <text class="SVGTextShape"><tspan class="TextParagraph"><tspan class="TextPosition" x="308" y="15081"><tspan font-family="Liberation Sans, sans-serif" font-size="353px" font-weight="400" fill="rgb(0,0,0)" stroke="none" style="white-space: pre">0.015</tspan></tspan></tspan></text>
 <text class="SVGTextShape"><tspan class="TextParagraph"><tspan class="TextPosition" x="500" y="14390"><tspan font-family="Liberation Sans, sans-serif" font-size="353px" font-weight="400" fill="rgb(0,0,0)" stroke="none" style="white-space: pre">0.02</tspan></tspan></tspan></text>
 <text class="SVGTextShape"><tspan class="TextParagraph"><tspan class="TextPosition" x="308" y="13700"><tspan font-family="Liberation Sans, sans-serif" font-size="353px" font-weight="400" fill="rgb(0,0,0)" stroke="none" style="white-space: pre">0.025</tspan></tspan></tspan></text>
 <text class="SVGTextShape"><tspan class="TextParagraph"><tspan class="TextPosition" x="500" y="13009"><tspan font-family="Liberation Sans, sans-serif" font-size="353px" font-weight="400" fill="rgb(0,0,0)" stroke="none" style="white-space: pre">0.03</tspan></tspan></tspan></text>
 <text class="SVGTextShape"><tspan class="TextParagraph"><tspan class="TextPosition" x="308" y="12318"><tspan font-family="Liberation Sans, sans-serif" font-size="353px" font-weight="400" fill="rgb(0,0,0)" stroke="none" style="white-space: pre">0.035</tspan></tspan></tspan></text>
 <text class="SVGTextShape"><tspan class="TextParagraph"><tspan class="TextPosition" x="500" y="11628"><tspan font-family="Liberation Sans, sans-serif" font-size="353px" font-weight="400" fill="rgb(0,0,0)" stroke="none" style="white-space: pre">0.04</tspan></tspan></tspan></text>
 <text class="SVGTextShape"><tspan class="TextParagraph"><tspan class="TextPosition" x="308" y="10937"><tspan font-family="Liberation Sans, sans-serif" font-size="353px" font-weight="400" fill="rgb(0,0,0)" stroke="none" style="white-space: pre">0.045</tspan></tspan></tspan></text>
 <text class="SVGTextShape"><tspan class="TextParagraph"><tspan class="TextPosition" x="500" y="10247"><tspan font-family="Liberation Sans, sans-serif" font-size="353px" font-weight="400" fill="rgb(0,0,0)" stroke="none" style="white-space: pre">0.05</tspan></tspan></tspan></text>
 <text class="SVGTextShape"><tspan class="TextParagraph"><tspan class="TextPosition" x="308" y="9556"><tspan font-family="Liberation Sans, sans-serif" font-size="353px" font-weight="400" fill="rgb(0,0,0)" stroke="none" style="white-space: pre">0.055</tspan></tspan></tspan></text>
 <text class="SVGTextShape"><tspan class="TextParagraph"><tspan class="TextPosition" x="500" y="8866"><tspan font-family="Liberation Sans, sans-serif" font-size="353px" font-weight="400" fill="rgb(0,0,0)" stroke="none" style="white-space: pre">0.06</tspan></tspan></tspan></text>
 <text class="SVGTextShape"><tspan class="TextParagraph"><tspan class="TextPosition" x="308" y="8176"><tspan font-family="Liberation Sans, sans-serif" font-size="353px" font-weight="400" fill="rgb(0,0,0)" stroke="none" style="white-space: pre">0.065</tspan></tspan></tspan></text>
 <text class="SVGTextShape"><tspan class="TextParagraph"><tspan class="TextPosition" x="500" y="7485"><tspan font-family="Liberation Sans, sans-serif" font-size="353px" font-weight="400" fill="rgb(0,0,0)" stroke="none" style="white-space: pre">0.07</tspan></tspan></tspan></text>
 <text class="SVGTextShape"><tspan class="TextParagraph"><tspan class="TextPosition" x="308" y="6795"><tspan font-family="Liberation Sans, sans-serif" font-size="353px" font-weight="400" fill="rgb(0,0,0)" stroke="none" style="white-space: pre">0.075</tspan></tspan></tspan></text>
 <text class="SVGTextShape"><tspan class="TextParagraph"><tspan class="TextPosition" x="500" y="6104"><tspan font-family="Liberation Sans, sans-serif" font-size="353px" font-weight="400" fill="rgb(0,0,0)" stroke="none" style="white-space: pre">0.08</tspan></tspan></tspan></text>
 <text class="SVGTextShape"><tspan class="TextParagraph"><tspan class="TextPosition" x="308" y="5413"><tspan font-family="Liberation Sans, sans-serif" font-size="353px" font-weight="400" fill="rgb(0,0,0)" stroke="none" style="white-space: pre">0.085</tspan></tspan></tspan></text>
 <text class="SVGTextShape"><tspan class="TextParagraph"><tspan class="TextPosition" x="500" y="4723"><tspan font-family="Liberation Sans, sans-serif" font-size="353px" font-weight="400" fill="rgb(0,0,0)" stroke="none" style="white-space: pre">0.09</tspan></tspan></tspan></text>
 <text class="SVGTextShape"><tspan class="TextParagraph"><tspan class="TextPosition" x="308" y="4032"><tspan font-family="Liberation Sans, sans-serif" font-size="353px" font-weight="400" fill="rgb(0,0,0)" stroke="none" style="white-space: pre">0.095</tspan></tspan></tspan></text>
 <text class="SVGTextShape"><tspan class="TextParagraph"><tspan class="TextPosition" x="691" y="3342"><tspan font-family="Liberation Sans, sans-serif" font-size="353px" font-weight="400" fill="rgb(0,0,0)" stroke="none" style="white-space: pre">0.1</tspan></tspan></tspan></text>
 <text class="SVGTextShape"><tspan class="TextParagraph"><tspan class="TextPosition" x="308" y="2651"><tspan font-family="Liberation Sans, sans-serif" font-size="353px" font-weight="400" fill="rgb(0,0,0)" stroke="none" style="white-space: pre">0.105</tspan></tspan></tspan></text>
 <text class="SVGTextShape"><tspan class="TextParagraph"><tspan class="TextPosition" x="500" y="1961"><tspan font-family="Liberation Sans, sans-serif" font-size="353px" font-weight="400" fill="rgb(0,0,0)" stroke="none" style="white-space: pre">0.11</tspan></tspan></tspan></text>
 <text class="SVGTextShape"><tspan class="TextParagraph"><tspan class="TextPosition" x="3203" y="1029"><tspan font-family="Liberation Sans, sans-serif" font-size="459px" font-weight="400" fill="rgb(0,0,0)" stroke="none" style="white-space: pre">Относительная неточность косинуса, 4 члена</tspan></tspan></tspan></text>
 <path fill="none" stroke="rgb(0,69,134)" stroke-width="80" stroke-linejoin="round" d="M 12083,8987 L 12883,8987 "/>
 <path fill="none" stroke="rgb(255,66,14)" stroke-width="80" stroke-linejoin="round" d="M 12083,9484 L 12883,9484 "/>
 <text class="SVGTextShape"><tspan class="TextParagraph"><tspan class="TextPosition" x="12983" y="9107"><tspan font-family="Liberation Sans, sans-serif" font-size="353px" font-weight="400" fill="rgb(0,0,0)" stroke="none" style="white-space: pre">Обратная сумма</tspan></tspan></tspan></text>
 <text class="SVGTextShape"><tspan class="TextParagraph"><tspan class="TextPosition" x="12983" y="9604"><tspan font-family="Liberation Sans, sans-serif" font-size="353px" font-weight="400" fill="rgb(0,0,0)" stroke="none" style="white-space: pre">Прямая сумма</tspan></tspan></tspan></text>
</svg>