<?xml version="1.0" encoding="UTF-8"?>
<!DOCTYPE svg PUBLIC "-//W3C//DTD SVG 1.1//EN" "http://www.w3.org/Graphics/SVG/1.1/DTD/svg11.dtd">
<svg width="160mm" height="185mm" viewBox="0 0 16000 18500" version="1.1" xmlns="http://www.w3.org/2000/svg" xmlns:xlink="http://www.w3.org/1999/xlink" stroke-width="28.222" stroke-linejoin="round" xml:space="preserve">
 <path fill="rgb(255,255,255)" stroke="none" d="M 7987,18487 L -13,18487 -13,-13 15987,-13 15987,18487 7987,18487 Z "/>
 <path fill="none" stroke="rgb(179,179,179)" stroke-linejoin="round" d="M 6629,17033 L 1610,17033 1610,1841 11647,1841 11647,17033 6629,17033 Z "/>
 <path fill="none" stroke="rgb(179,179,179)" stroke-linejoin="round" d="M 11647,17032 L 1610,17032 "/>
 <path fill="none" stroke="rgb(179,179,179)" stroke-linejoin="round" d="M 11647,16232 L 1610,16232 "/>
 <path fill="none" stroke="rgb(179,179,179)" stroke-linejoin="round" d="M 11647,15432 L 1610,15432 "/>
 <path fill="none" stroke="rgb(179,179,179)" stroke-linejoin="round" d="M 11647,14633 L 1610,14633 "/>
 <path fill="none" stroke="rgb(179,179,179)" stroke-linejoin="round" d="M 11647,13833 L 1610,13833 "/>
 <path fill="none" stroke="rgb(179,179,179)" stroke-linejoin="round" d="M 11647,13033 L 1610,13033 "/>
 <path fill="none" stroke="rgb(179,179,179)" stroke-linejoin="round" d="M 11647,12234 L 1610,12234 "/>
 <path fill="none" stroke="rgb(179,179,179)" stroke-linejoin="round" d="M 11647,11434 L 1610,11434 "/>
 <path fill="none" stroke="rgb(179,179,179)" stroke-linejoin="round" d="M 11647,10634 L 1610,10634 "/>
 <path fill="none" stroke="rgb(179,179,179)" stroke-linejoin="round" d="M 11647,9835 L 1610,9835 "/>
 <path fill="none" stroke="rgb(179,179,179)" stroke-linejoin="round" d="M 11647,9036 L 1610,9036 "/>
 <path fill="none" stroke="rgb(179,179,179)" stroke-linejoin="round" d="M 11647,8237 L 1610,8237 "/>
 <path fill="none" stroke="rgb(179,179,179)" stroke-linejoin="round" d="M 11647,7437 L 1610,7437 "/>
 <path fill="none" stroke="rgb(179,179,179)" stroke-linejoin="round" d="M 11647,6637 L 1610,6637 "/>
 <path fill="none" stroke="rgb(179,179,179)" stroke-linejoin="round" d="M 11647,5838 L 1610,5838 "/>
 <path fill="none" stroke="rgb(179,179,179)" stroke-linejoin="round" d="M 11647,5038 L 1610,5038 "/>
 <path fill="none" stroke="rgb(179,179,179)" stroke-linejoin="round" d="M 11647,4238 L 1610,4238 "/>
 <path fill="none" stroke="rgb(179,179,179)" stroke-linejoin="round" d="M 11647,3439 L 1610,3439 "/>
 <path fill="none" stroke="rgb(179,179,179)" stroke-linejoin="round" d="M 11647,2639 L 1610,2639 "/>
 <path fill="none" stroke="rgb(179,179,179)" stroke-linejoin="round" d="M 11647,1840 L 1610,1840 "/>
 <path fill="none" stroke="rgb(179,179,179)" stroke-linejoin="round" d="M 1610,17182 L 1610,17032 "/>
 <path fill="none" stroke="rgb(179,179,179)" stroke-linejoin="round" d="M 1610,17182 L 1610,17032 "/>
 <path fill="none" stroke="rgb(179,179,179)" stroke-linejoin="round" d="M 1838,17182 L 1838,17032 "/>
 <path fill="none" stroke="rgb(179,179,179)" stroke-linejoin="round" d="M 1838,17182 L 1838,17032 "/>
 <path fill="none" stroke="rgb(179,179,179)" stroke-linejoin="round" d="M 2066,17182 L 2066,17032 "/>
 <path fill="none" stroke="rgb(179,179,179)" stroke-linejoin="round" d="M 2066,17182 L 2066,17032 "/>
 <path fill="none" stroke="rgb(179,179,179)" stroke-linejoin="round" d="M 2294,17182 L 2294,17032 "/>
 <path fill="none" stroke="rgb(179,179,179)" stroke-linejoin="round" d="M 2294,17182 L 2294,17032 "/>
 <path fill="none" stroke="rgb(179,179,179)" stroke-linejoin="round" d="M 2522,17182 L 2522,17032 "/>
 <path fill="none" stroke="rgb(179,179,179)" stroke-linejoin="round" d="M 2522,17182 L 2522,17032 "/>
 <path fill="none" stroke="rgb(179,179,179)" stroke-linejoin="round" d="M 2750,17182 L 2750,17032 "/>
 <path fill="none" stroke="rgb(179,179,179)" stroke-linejoin="round" d="M 2750,17182 L 2750,17032 "/>
 <path fill="none" stroke="rgb(179,179,179)" stroke-linejoin="round" d="M 2978,17182 L 2978,17032 "/>
 <path fill="none" stroke="rgb(179,179,179)" stroke-linejoin="round" d="M 2978,17182 L 2978,17032 "/>
 <path fill="none" stroke="rgb(179,179,179)" stroke-linejoin="round" d="M 3206,17182 L 3206,17032 "/>
 <path fill="none" stroke="rgb(179,179,179)" stroke-linejoin="round" d="M 3206,17182 L 3206,17032 "/>
 <path fill="none" stroke="rgb(179,179,179)" stroke-linejoin="round" d="M 3435,17182 L 3435,17032 "/>
 <path fill="none" stroke="rgb(179,179,179)" stroke-linejoin="round" d="M 3435,17182 L 3435,17032 "/>
 <path fill="none" stroke="rgb(179,179,179)" stroke-linejoin="round" d="M 3663,17182 L 3663,17032 "/>
 <path fill="none" stroke="rgb(179,179,179)" stroke-linejoin="round" d="M 3663,17182 L 3663,17032 "/>
 <path fill="none" stroke="rgb(179,179,179)" stroke-linejoin="round" d="M 3891,17182 L 3891,17032 "/>
 <path fill="none" stroke="rgb(179,179,179)" stroke-linejoin="round" d="M 3891,17182 L 3891,17032 "/>
 <path fill="none" stroke="rgb(179,179,179)" stroke-linejoin="round" d="M 4119,17182 L 4119,17032 "/>
 <path fill="none" stroke="rgb(179,179,179)" stroke-linejoin="round" d="M 4119,17182 L 4119,17032 "/>
 <path fill="none" stroke="rgb(179,179,179)" stroke-linejoin="round" d="M 4347,17182 L 4347,17032 "/>
 <path fill="none" stroke="rgb(179,179,179)" stroke-linejoin="round" d="M 4347,17182 L 4347,17032 "/>
 <path fill="none" stroke="rgb(179,179,179)" stroke-linejoin="round" d="M 4575,17182 L 4575,17032 "/>
 <path fill="none" stroke="rgb(179,179,179)" stroke-linejoin="round" d="M 4575,17182 L 4575,17032 "/>
 <path fill="none" stroke="rgb(179,179,179)" stroke-linejoin="round" d="M 4803,17182 L 4803,17032 "/>
 <path fill="none" stroke="rgb(179,179,179)" stroke-linejoin="round" d="M 4803,17182 L 4803,17032 "/>
 <path fill="none" stroke="rgb(179,179,179)" stroke-linejoin="round" d="M 5032,17182 L 5032,17032 "/>
 <path fill="none" stroke="rgb(179,179,179)" stroke-linejoin="round" d="M 5032,17182 L 5032,17032 "/>
 <path fill="none" stroke="rgb(179,179,179)" stroke-linejoin="round" d="M 5260,17182 L 5260,17032 "/>
 <path fill="none" stroke="rgb(179,179,179)" stroke-linejoin="round" d="M 5260,17182 L 5260,17032 "/>
 <path fill="none" stroke="rgb(179,179,179)" stroke-linejoin="round" d="M 5488,17182 L 5488,17032 "/>
 <path fill="none" stroke="rgb(179,179,179)" stroke-linejoin="round" d="M 5488,17182 L 5488,17032 "/>
 <path fill="none" stroke="rgb(179,179,179)" stroke-linejoin="round" d="M 5716,17182 L 5716,17032 "/>
 <path fill="none" stroke="rgb(179,179,179)" stroke-linejoin="round" d="M 5716,17182 L 5716,17032 "/>
 <path fill="none" stroke="rgb(179,179,179)" stroke-linejoin="round" d="M 5944,17182 L 5944,17032 "/>
 <path fill="none" stroke="rgb(179,179,179)" stroke-linejoin="round" d="M 5944,17182 L 5944,17032 "/>
 <path fill="none" stroke="rgb(179,179,179)" stroke-linejoin="round" d="M 6172,17182 L 6172,17032 "/>
 <path fill="none" stroke="rgb(179,179,179)" stroke-linejoin="round" d="M 6172,17182 L 6172,17032 "/>
 <path fill="none" stroke="rgb(179,179,179)" stroke-linejoin="round" d="M 6400,17182 L 6400,17032 "/>
 <path fill="none" stroke="rgb(179,179,179)" stroke-linejoin="round" d="M 6400,17182 L 6400,17032 "/>
 <path fill="none" stroke="rgb(179,179,179)" stroke-linejoin="round" d="M 6629,17182 L 6629,17032 "/>
 <path fill="none" stroke="rgb(179,179,179)" stroke-linejoin="round" d="M 6629,17182 L 6629,17032 "/>
 <path fill="none" stroke="rgb(179,179,179)" stroke-linejoin="round" d="M 6857,17182 L 6857,17032 "/>
 <path fill="none" stroke="rgb(179,179,179)" stroke-linejoin="round" d="M 6857,17182 L 6857,17032 "/>
 <path fill="none" stroke="rgb(179,179,179)" stroke-linejoin="round" d="M 7085,17182 L 7085,17032 "/>
 <path fill="none" stroke="rgb(179,179,179)" stroke-linejoin="round" d="M 7085,17182 L 7085,17032 "/>
 <path fill="none" stroke="rgb(179,179,179)" stroke-linejoin="round" d="M 7313,17182 L 7313,17032 "/>
 <path fill="none" stroke="rgb(179,179,179)" stroke-linejoin="round" d="M 7313,17182 L 7313,17032 "/>
 <path fill="none" stroke="rgb(179,179,179)" stroke-linejoin="round" d="M 7541,17182 L 7541,17032 "/>
 <path fill="none" stroke="rgb(179,179,179)" stroke-linejoin="round" d="M 7541,17182 L 7541,17032 "/>
 <path fill="none" stroke="rgb(179,179,179)" stroke-linejoin="round" d="M 7769,17182 L 7769,17032 "/>
 <path fill="none" stroke="rgb(179,179,179)" stroke-linejoin="round" d="M 7769,17182 L 7769,17032 "/>
 <path fill="none" stroke="rgb(179,179,179)" stroke-linejoin="round" d="M 7996,17182 L 7996,17032 "/>
 <path fill="none" stroke="rgb(179,179,179)" stroke-linejoin="round" d="M 7996,17182 L 7996,17032 "/>
 <path fill="none" stroke="rgb(179,179,179)" stroke-linejoin="round" d="M 8224,17182 L 8224,17032 "/>
 <path fill="none" stroke="rgb(179,179,179)" stroke-linejoin="round" d="M 8224,17182 L 8224,17032 "/>
 <path fill="none" stroke="rgb(179,179,179)" stroke-linejoin="round" d="M 8453,17182 L 8453,17032 "/>
 <path fill="none" stroke="rgb(179,179,179)" stroke-linejoin="round" d="M 8453,17182 L 8453,17032 "/>
 <path fill="none" stroke="rgb(179,179,179)" stroke-linejoin="round" d="M 8681,17182 L 8681,17032 "/>
 <path fill="none" stroke="rgb(179,179,179)" stroke-linejoin="round" d="M 8681,17182 L 8681,17032 "/>
 <path fill="none" stroke="rgb(179,179,179)" stroke-linejoin="round" d="M 8909,17182 L 8909,17032 "/>
 <path fill="none" stroke="rgb(179,179,179)" stroke-linejoin="round" d="M 8909,17182 L 8909,17032 "/>
 <path fill="none" stroke="rgb(179,179,179)" stroke-linejoin="round" d="M 9137,17182 L 9137,17032 "/>
 <path fill="none" stroke="rgb(179,179,179)" stroke-linejoin="round" d="M 9137,17182 L 9137,17032 "/>
 <path fill="none" stroke="rgb(179,179,179)" stroke-linejoin="round" d="M 9365,17182 L 9365,17032 "/>
 <path fill="none" stroke="rgb(179,179,179)" stroke-linejoin="round" d="M 9365,17182 L 9365,17032 "/>
 <path fill="none" stroke="rgb(179,179,179)" stroke-linejoin="round" d="M 9593,17182 L 9593,17032 "/>
 <path fill="none" stroke="rgb(179,179,179)" stroke-linejoin="round" d="M 9593,17182 L 9593,17032 "/>
 <path fill="none" stroke="rgb(179,179,179)" stroke-linejoin="round" d="M 9821,17182 L 9821,17032 "/>
 <path fill="none" stroke="rgb(179,179,179)" stroke-linejoin="round" d="M 9821,17182 L 9821,17032 "/>
 <path fill="none" stroke="rgb(179,179,179)" stroke-linejoin="round" d="M 10050,17182 L 10050,17032 "/>
 <path fill="none" stroke="rgb(179,179,179)" stroke-linejoin="round" d="M 10050,17182 L 10050,17032 "/>
 <path fill="none" stroke="rgb(179,179,179)" stroke-linejoin="round" d="M 10278,17182 L 10278,17032 "/>
 <path fill="none" stroke="rgb(179,179,179)" stroke-linejoin="round" d="M 10278,17182 L 10278,17032 "/>
 <path fill="none" stroke="rgb(179,179,179)" stroke-linejoin="round" d="M 10506,17182 L 10506,17032 "/>
 <path fill="none" stroke="rgb(179,179,179)" stroke-linejoin="round" d="M 10506,17182 L 10506,17032 "/>
 <path fill="none" stroke="rgb(179,179,179)" stroke-linejoin="round" d="M 10734,17182 L 10734,17032 "/>
 <path fill="none" stroke="rgb(179,179,179)" stroke-linejoin="round" d="M 10734,17182 L 10734,17032 "/>
 <path fill="none" stroke="rgb(179,179,179)" stroke-linejoin="round" d="M 10962,17182 L 10962,17032 "/>
 <path fill="none" stroke="rgb(179,179,179)" stroke-linejoin="round" d="M 10962,17182 L 10962,17032 "/>
 <path fill="none" stroke="rgb(179,179,179)" stroke-linejoin="round" d="M 11190,17182 L 11190,17032 "/>
 <path fill="none" stroke="rgb(179,179,179)" stroke-linejoin="round" d="M 11190,17182 L 11190,17032 "/>
 <path fill="none" stroke="rgb(179,179,179)" stroke-linejoin="round" d="M 11418,17182 L 11418,17032 "/>
 <path fill="none" stroke="rgb(179,179,179)" stroke-linejoin="round" d="M 11418,17182 L 11418,17032 "/>
 <path fill="none" stroke="rgb(179,179,179)" stroke-linejoin="round" d="M 11647,17182 L 11647,17032 "/>
 <path fill="none" stroke="rgb(179,179,179)" stroke-linejoin="round" d="M 11647,17182 L 11647,17032 "/>
 <path fill="none" stroke="rgb(179,179,179)" stroke-linejoin="round" d="M 1610,17032 L 11647,17032 "/>
 <path fill="none" stroke="rgb(179,179,179)" stroke-linejoin="round" d="M 1460,17032 L 1610,17032 "/>
 <path fill="none" stroke="rgb(179,179,179)" stroke-linejoin="round" d="M 1460,17032 L 1610,17032 "/>
 <path fill="none" stroke="rgb(179,179,179)" stroke-linejoin="round" d="M 1460,16232 L 1610,16232 "/>
 <path fill="none" stroke="rgb(179,179,179)" stroke-linejoin="round" d="M 1460,16232 L 1610,16232 "/>
 <path fill="none" stroke="rgb(179,179,179)" stroke-linejoin="round" d="M 1460,15432 L 1610,15432 "/>
 <path fill="none" stroke="rgb(179,179,179)" stroke-linejoin="round" d="M 1460,15432 L 1610,15432 "/>
 <path fill="none" stroke="rgb(179,179,179)" stroke-linejoin="round" d="M 1460,14633 L 1610,14633 "/>
 <path fill="none" stroke="rgb(179,179,179)" stroke-linejoin="round" d="M 1460,14633 L 1610,14633 "/>
 <path fill="none" stroke="rgb(179,179,179)" stroke-linejoin="round" d="M 1460,13833 L 1610,13833 "/>
 <path fill="none" stroke="rgb(179,179,179)" stroke-linejoin="round" d="M 1460,13833 L 1610,13833 "/>
 <path fill="none" stroke="rgb(179,179,179)" stroke-linejoin="round" d="M 1460,13033 L 1610,13033 "/>
 <path fill="none" stroke="rgb(179,179,179)" stroke-linejoin="round" d="M 1460,13033 L 1610,13033 "/>
 <path fill="none" stroke="rgb(179,179,179)" stroke-linejoin="round" d="M 1460,12234 L 1610,12234 "/>
 <path fill="none" stroke="rgb(179,179,179)" stroke-linejoin="round" d="M 1460,12234 L 1610,12234 "/>
 <path fill="none" stroke="rgb(179,179,179)" stroke-linejoin="round" d="M 1460,11434 L 1610,11434 "/>
 <path fill="none" stroke="rgb(179,179,179)" stroke-linejoin="round" d="M 1460,11434 L 1610,11434 "/>
 <path fill="none" stroke="rgb(179,179,179)" stroke-linejoin="round" d="M 1460,10634 L 1610,10634 "/>
 <path fill="none" stroke="rgb(179,179,179)" stroke-linejoin="round" d="M 1460,10634 L 1610,10634 "/>
 <path fill="none" stroke="rgb(179,179,179)" stroke-linejoin="round" d="M 1460,9835 L 1610,9835 "/>
 <path fill="none" stroke="rgb(179,179,179)" stroke-linejoin="round" d="M 1460,9835 L 1610,9835 "/>
 <path fill="none" stroke="rgb(179,179,179)" stroke-linejoin="round" d="M 1460,9036 L 1610,9036 "/>
 <path fill="none" stroke="rgb(179,179,179)" stroke-linejoin="round" d="M 1460,9036 L 1610,9036 "/>
 <path fill="none" stroke="rgb(179,179,179)" stroke-linejoin="round" d="M 1460,8237 L 1610,8237 "/>
 <path fill="none" stroke="rgb(179,179,179)" stroke-linejoin="round" d="M 1460,8237 L 1610,8237 "/>
 <path fill="none" stroke="rgb(179,179,179)" stroke-linejoin="round" d="M 1460,7437 L 1610,7437 "/>
 <path fill="none" stroke="rgb(179,179,179)" stroke-linejoin="round" d="M 1460,7437 L 1610,7437 "/>
 <path fill="none" stroke="rgb(179,179,179)" stroke-linejoin="round" d="M 1460,6637 L 1610,6637 "/>
 <path fill="none" stroke="rgb(179,179,179)" stroke-linejoin="round" d="M 1460,6637 L 1610,6637 "/>
 <path fill="none" stroke="rgb(179,179,179)" stroke-linejoin="round" d="M 1460,5838 L 1610,5838 "/>
 <path fill="none" stroke="rgb(179,179,179)" stroke-linejoin="round" d="M 1460,5838 L 1610,5838 "/>
 <path fill="none" stroke="rgb(179,179,179)" stroke-linejoin="round" d="M 1460,5038 L 1610,5038 "/>
 <path fill="none" stroke="rgb(179,179,179)" stroke-linejoin="round" d="M 1460,5038 L 1610,5038 "/>
 <path fill="none" stroke="rgb(179,179,179)" stroke-linejoin="round" d="M 1460,4238 L 1610,4238 "/>
 <path fill="none" stroke="rgb(179,179,179)" stroke-linejoin="round" d="M 1460,4238 L 1610,4238 "/>
 <path fill="none" stroke="rgb(179,179,179)" stroke-linejoin="round" d="M 1460,3439 L 1610,3439 "/>
 <path fill="none" stroke="rgb(179,179,179)" stroke-linejoin="round" d="M 1460,3439 L 1610,3439 "/>
 <path fill="none" stroke="rgb(179,179,179)" stroke-linejoin="round" d="M 1460,2639 L 1610,2639 "/>
 <path fill="none" stroke="rgb(179,179,179)" stroke-linejoin="round" d="M 1460,2639 L 1610,2639 "/>
 <path fill="none" stroke="rgb(179,179,179)" stroke-linejoin="round" d="M 1460,1840 L 1610,1840 "/>
 <path fill="none" stroke="rgb(179,179,179)" stroke-linejoin="round" d="M 1460,1840 L 1610,1840 "/>
 <path fill="none" stroke="rgb(179,179,179)" stroke-linejoin="round" d="M 1610,17032 L 1610,1840 "/>
 <path fill="none" stroke="rgb(0,69,134)" stroke-width="80" stroke-linejoin="round" d="M 1610,2954 L 1838,9344 2066,12948 2294,14929 2522,15985 2750,16531 2978,16802 3206,16932 3435,16991 3663,17016 3891,17026 4119,17030 4347,17031 4575,17031 4803,17031 5032,17031 5260,17031 5488,17031 5716,17031 5944,17032 6172,17032 6400,17032 6629,17031 6857,17031 7085,17031 7313,17031 7541,17031 7769,17031 7996,17031 8224,17031 8453,17031 8681,17029 8909,17027 9137,17022 9365,17014 9593,16999 9821,16974 10050,16936 10278,16876 10506,16788 10734,16660 10962,16478 11190,16225 11418,15880 11647,15420 "/>
 <path fill="none" stroke="rgb(255,66,14)" stroke-width="80" stroke-linejoin="round" d="M 1610,2954 L 1838,9344 2066,12948 2294,14929 2522,15985 2750,16531 2978,16802 3206,16932 3435,16991 3663,17016 3891,17026 4119,17030 4347,17031 4575,17031 4803,17031 5032,17031 5260,17031 5488,17031 5716,17031 5944,17032 6172,17032 6400,17032 6629,17031 6857,17031 7085,17031 7313,17031 7541,17031 7769,17031 7996,17031 8224,17031 8453,17031 8681,17029 8909,17027 9137,17022 9365,17014 9593,16999 9821,16974 10050,16936 10278,16876 10506,16788 10734,16660 10962,16478 11190,16225 11418,15880 11647,15420 "/>
 <text class="SVGTextShape" transform="rotate(-45 1139 18061)"><tspan class="TextParagraph"><tspan class="TextPosition" x="1139" y="18061"><tspan font-family="Liberation Sans, sans-serif" font-size="353px" font-weight="400" fill="rgb(0,0,0)" stroke="none" style="white-space: pre">-2.00</tspan></tspan></tspan></text>
 <text class="SVGTextShape" transform="rotate(-45 1823 18061)"><tspan class="TextParagraph"><tspan class="TextPosition" x="1823" y="18061"><tspan font-family="Liberation Sans, sans-serif" font-size="353px" font-weight="400" fill="rgb(0,0,0)" stroke="none" style="white-space: pre">-1.70</tspan></tspan></tspan></text>
 <text class="SVGTextShape" transform="rotate(-45 2507 18061)"><tspan class="TextParagraph"><tspan class="TextPosition" x="2507" y="18061"><tspan font-family="Liberation Sans, sans-serif" font-size="353px" font-weight="400" fill="rgb(0,0,0)" stroke="none" style="white-space: pre">-1.40</tspan></tspan></tspan></text>
 <text class="SVGTextShape" transform="rotate(-45 3192 18061)"><tspan class="TextParagraph"><tspan class="TextPosition" x="3192" y="18061"><tspan font-family="Liberation Sans, sans-serif" font-size="353px" font-weight="400" fill="rgb(0,0,0)" stroke="none" style="white-space: pre">-1.10</tspan></tspan></tspan></text>
 <text class="SVGTextShape" transform="rotate(-45 3876 18061)"><tspan class="TextParagraph"><tspan class="TextPosition" x="3876" y="18061"><tspan font-family="Liberation Sans, sans-serif" font-size="353px" font-weight="400" fill="rgb(0,0,0)" stroke="none" style="white-space: pre">-0.80</tspan></tspan></tspan></text>
 <text class="SVGTextShape" transform="rotate(-45 4561 18061)"><tspan class="TextParagraph"><tspan class="TextPosition" x="4561" y="18061"><tspan font-family="Liberation Sans, sans-serif" font-size="353px" font-weight="400" fill="rgb(0,0,0)" stroke="none" style="white-space: pre">-0.50</tspan></tspan></tspan></text>
 <text class="SVGTextShape" transform="rotate(-45 5245 18061)"><tspan class="TextParagraph"><tspan class="TextPosition" x="5245" y="18061"><tspan font-family="Liberation Sans, sans-serif" font-size="353px" font-weight="400" fill="rgb(0,0,0)" stroke="none" style="white-space: pre">-0.20</tspan></tspan></tspan></text>
 <text class="SVGTextShape" transform="rotate(-45 6010 17981)"><tspan class="TextParagraph"><tspan class="TextPosition" x="6010" y="17981"><tspan font-family="Liberation Sans, sans-serif" font-size="353px" font-weight="400" fill="rgb(0,0,0)" stroke="none" style="white-space: pre">0.10</tspan></tspan></tspan></text>
 <text class="SVGTextShape" transform="rotate(-45 6695 17981)"><tspan class="TextParagraph"><tspan class="TextPosition" x="6695" y="17981"><tspan font-family="Liberation Sans, sans-serif" font-size="353px" font-weight="400" fill="rgb(0,0,0)" stroke="none" style="white-space: pre">0.40</tspan></tspan></tspan></text>
 <text class="SVGTextShape" transform="rotate(-45 7379 17981)"><tspan class="TextParagraph"><tspan class="TextPosition" x="7379" y="17981"><tspan font-family="Liberation Sans, sans-serif" font-size="353px" font-weight="400" fill="rgb(0,0,0)" stroke="none" style="white-space: pre">0.70</tspan></tspan></tspan></text>
 <text class="SVGTextShape" transform="rotate(-45 8063 17981)"><tspan class="TextParagraph"><tspan class="TextPosition" x="8063" y="17981"><tspan font-family="Liberation Sans, sans-serif" font-size="353px" font-weight="400" fill="rgb(0,0,0)" stroke="none" style="white-space: pre">1.00</tspan></tspan></tspan></text>
 <text class="SVGTextShape" transform="rotate(-45 8747 17981)"><tspan class="TextParagraph"><tspan class="TextPosition" x="8747" y="17981"><tspan font-family="Liberation Sans, sans-serif" font-size="353px" font-weight="400" fill="rgb(0,0,0)" stroke="none" style="white-space: pre">1.30</tspan></tspan></tspan></text>
 <text class="SVGTextShape" transform="rotate(-45 9431 17981)"><tspan class="TextParagraph"><tspan class="TextPosition" x="9431" y="17981"><tspan font-family="Liberation Sans, sans-serif" font-size="353px" font-weight="400" fill="rgb(0,0,0)" stroke="none" style="white-space: pre">1.60</tspan></tspan></tspan></text>
 <text class="SVGTextShape" transform="rotate(-45 10116 17981)"><tspan class="TextParagraph"><tspan class="TextPosition" x="10116" y="17981"><tspan font-family="Liberation Sans, sans-serif" font-size="353px" font-weight="400" fill="rgb(0,0,0)" stroke="none" style="white-space: pre">1.90</tspan></tspan></tspan></text>
 <text class="SVGTextShape" transform="rotate(-45 10800 17981)"><tspan class="TextParagraph"><tspan class="TextPosition" x="10800" y="17981"><tspan font-family="Liberation Sans, sans-serif" font-size="353px" font-weight="400" fill="rgb(0,0,0)" stroke="none" style="white-space: pre">2.20</tspan></tspan></tspan></text>
 <text class="SVGTextShape"><tspan class="TextParagraph"><tspan class="TextPosition" x="1169" y="17153"><tspan font-family="Liberation Sans, sans-serif" font-size="353px" font-weight="400" fill="rgb(0,0,0)" stroke="none" style="white-space: pre">0</tspan></tspan></tspan></text>
 <text class="SVGTextShape"><tspan class="TextParagraph"><tspan class="TextPosition" x="308" y="16353"><tspan font-family="Liberation Sans, sans-serif" font-size="353px" font-weight="400" fill="rgb(0,0,0)" stroke="none" style="white-space: pre">0.0001</tspan></tspan></tspan></text>
 <text class="SVGTextShape"><tspan class="TextParagraph"><tspan class="TextPosition" x="308" y="15553"><tspan font-family="Liberation Sans, sans-serif" font-size="353px" font-weight="400" fill="rgb(0,0,0)" stroke="none" style="white-space: pre">0.0002</tspan></tspan></tspan></text>
 <text class="SVGTextShape"><tspan class="TextParagraph"><tspan class="TextPosition" x="308" y="14754"><tspan font-family="Liberation Sans, sans-serif" font-size="353px" font-weight="400" fill="rgb(0,0,0)" stroke="none" style="white-space: pre">0.0003</tspan></tspan></tspan></text>
 <text class="SVGTextShape"><tspan class="TextParagraph"><tspan class="TextPosition" x="308" y="13954"><tspan font-family="Liberation Sans, sans-serif" font-size="353px" font-weight="400" fill="rgb(0,0,0)" stroke="none" style="white-space: pre">0.0004</tspan></tspan></tspan></text>
 <text class="SVGTextShape"><tspan class="TextParagraph"><tspan class="TextPosition" x="308" y="13154"><tspan font-family="Liberation Sans, sans-serif" font-size="353px" font-weight="400" fill="rgb(0,0,0)" stroke="none" style="white-space: pre">0.0005</tspan></tspan></tspan></text>
 <text class="SVGTextShape"><tspan class="TextParagraph"><tspan class="TextPosition" x="308" y="12355"><tspan font-family="Liberation Sans, sans-serif" font-size="353px" font-weight="400" fill="rgb(0,0,0)" stroke="none" style="white-space: pre">0.0006</tspan></tspan></tspan></text>
 <text class="SVGTextShape"><tspan class="TextParagraph"><tspan class="TextPosition" x="308" y="11555"><tspan font-family="Liberation Sans, sans-serif" font-size="353px" font-weight="400" fill="rgb(0,0,0)" stroke="none" style="white-space: pre">0.0007</tspan></tspan></tspan></text>
 <text class="SVGTextShape"><tspan class="TextParagraph"><tspan class="TextPosition" x="308" y="10755"><tspan font-family="Liberation Sans, sans-serif" font-size="353px" font-weight="400" fill="rgb(0,0,0)" stroke="none" style="white-space: pre">0.0008</tspan></tspan></tspan></text>
 <text class="SVGTextShape"><tspan class="TextParagraph"><tspan class="TextPosition" x="308" y="9956"><tspan font-family="Liberation Sans, sans-serif" font-size="353px" font-weight="400" fill="rgb(0,0,0)" stroke="none" style="white-space: pre">0.0009</tspan></tspan></tspan></text>
 <text class="SVGTextShape"><tspan class="TextParagraph"><tspan class="TextPosition" x="499" y="9157"><tspan font-family="Liberation Sans, sans-serif" font-size="353px" font-weight="400" fill="rgb(0,0,0)" stroke="none" style="white-space: pre">0.001</tspan></tspan></tspan></text>
 <text class="SVGTextShape"><tspan class="TextParagraph"><tspan class="TextPosition" x="308" y="8358"><tspan font-family="Liberation Sans, sans-serif" font-size="353px" font-weight="400" fill="rgb(0,0,0)" stroke="none" style="white-space: pre">0.0011</tspan></tspan></tspan></text>
 <text class="SVGTextShape"><tspan class="TextParagraph"><tspan class="TextPosition" x="308" y="7558"><tspan font-family="Liberation Sans, sans-serif" font-size="353px" font-weight="400" fill="rgb(0,0,0)" stroke="none" style="white-space: pre">0.0012</tspan></tspan></tspan></text>
 <text class="SVGTextShape"><tspan class="TextParagraph"><tspan class="TextPosition" x="308" y="6758"><tspan font-family="Liberation Sans, sans-serif" font-size="353px" font-weight="400" fill="rgb(0,0,0)" stroke="none" style="white-space: pre">0.0013</tspan></tspan></tspan></text>
 <text class="SVGTextShape"><tspan class="TextParagraph"><tspan class="TextPosition" x="308" y="5959"><tspan font-family="Liberation Sans, sans-serif" font-size="353px" font-weight="400" fill="rgb(0,0,0)" stroke="none" style="white-space: pre">0.0014</tspan></tspan></tspan></text>
 <text class="SVGTextShape"><tspan class="TextParagraph"><tspan class="TextPosition" x="308" y="5159"><tspan font-family="Liberation Sans, sans-serif" font-size="353px" font-weight="400" fill="rgb(0,0,0)" stroke="none" style="white-space: pre">0.0015</tspan></tspan></tspan></text>
 <text class="SVGTextShape"><tspan class="TextParagraph"><tspan class="TextPosition" x="308" y="4359"><tspan font-family="Liberation Sans, sans-serif" font-size="353px" font-weight="400" fill="rgb(0,0,0)" stroke="none" style="white-space: pre">0.0016</tspan></tspan></tspan></text>
 <text class="SVGTextShape"><tspan class="TextParagraph"><tspan class="TextPosition" x="308" y="3560"><tspan font-family="Liberation Sans, sans-serif" font-size="353px" font-weight="400" fill="rgb(0,0,0)" stroke="none" style="white-space: pre">0.0017</tspan></tspan></tspan></text>
 <text class="SVGTextShape"><tspan class="TextParagraph"><tspan class="TextPosition" x="308" y="2760"><tspan font-family="Liberation Sans, sans-serif" font-size="353px" font-weight="400" fill="rgb(0,0,0)" stroke="none" style="white-space: pre">0.0018</tspan></tspan></tspan></text>
 <text class="SVGTextShape"><tspan class="TextParagraph"><tspan class="TextPosition" x="308" y="1961"><tspan font-family="Liberation Sans, sans-serif" font-size="353px" font-weight="400" fill="rgb(0,0,0)" stroke="none" style="white-space: pre">0.0019</tspan></tspan></tspan></text>
 <text class="SVGTextShape"><tspan class="TextParagraph"><tspan class="TextPosition" x="2683" y="1029"><tspan font-family="Liberation Sans, sans-serif" font-size="459px" font-weight="400" fill="rgb(0,0,0)" stroke="none" style="white-space: pre">Относительная неточность экспоненты, 10 членов</tspan></tspan></tspan></text>
 <path fill="none" stroke="rgb(0,69,134)" stroke-width="80" stroke-linejoin="round" d="M 12083,8987 L 12883,8987 "/>
 <path fill="none" stroke="rgb(255,66,14)" stroke-width="80" stroke-linejoin="round" d="M 12083,9484 L 12883,9484 "/>
 <text class="SVGTextShape"><tspan class="TextParagraph"><tspan class="TextPosition" x="12983" y="9107"><tspan font-family="Liberation Sans, sans-serif" font-size="353px" font-weight="400" fill="rgb(0,0,0)" stroke="none" style="white-space: pre">Обратная сумма</tspan></tspan></tspan></text>
 <text class="SVGTextShape"><tspan class="TextParagraph"><tspan class="TextPosition" x="12983" y="9604"><tspan font-family="Liberation Sans, sans-serif" font-size="353px" font-weight="400" fill="rgb(0,0,0)" stroke="none" style="white-space: pre">Прямая сумма</tspan></tspan></tspan></text>
</svg>