<?xml version="1.0" encoding="UTF-8"?>
<!DOCTYPE svg PUBLIC "-//W3C//DTD SVG 1.1//EN" "http://www.w3.org/Graphics/SVG/1.1/DTD/svg11.dtd">
<svg width="160mm" height="185mm" viewBox="0 0 16000 18500" version="1.1" xmlns="http://www.w3.org/2000/svg" xmlns:xlink="http://www.w3.org/1999/xlink" stroke-width="28.222" stroke-linejoin="round" xml:space="preserve">
 <path fill="rgb(255,255,255)" stroke="none" d="M 7987,18487 L -13,18487 -13,-13 15987,-13 15987,18487 7987,18487 Z "/>
 <path fill="none" stroke="rgb(179,179,179)" stroke-linejoin="round" d="M 6342,17033 L 1036,17033 1036,1841 11647,1841 11647,17033 6342,17033 Z "/>
 <path fill="none" stroke="rgb(179,179,179)" stroke-linejoin="round" d="M 11647,17032 L 1036,17032 "/>
 <path fill="none" stroke="rgb(179,179,179)" stroke-linejoin="round" d="M 11647,16232 L 1036,16232 "/>
 <path fill="none" stroke="rgb(179,179,179)" stroke-linejoin="round" d="M 11647,15432 L 1036,15432 "/>
 <path fill="none" stroke="rgb(179,179,179)" stroke-linejoin="round" d="M 11647,14633 L 1036,14633 "/>
 <path fill="none" stroke="rgb(179,179,179)" stroke-linejoin="round" d="M 11647,13833 L 1036,13833 "/>
 <path fill="none" stroke="rgb(179,179,179)" stroke-linejoin="round" d="M 11647,13033 L 1036,13033 "/>
 <path fill="none" stroke="rgb(179,179,179)" stroke-linejoin="round" d="M 11647,12234 L 1036,12234 "/>
 <path fill="none" stroke="rgb(179,179,179)" stroke-linejoin="round" d="M 11647,11434 L 1036,11434 "/>
 <path fill="none" stroke="rgb(179,179,179)" stroke-linejoin="round" d="M 11647,10634 L 1036,10634 "/>
 <path fill="none" stroke="rgb(179,179,179)" stroke-linejoin="round" d="M 11647,9835 L 1036,9835 "/>
 <path fill="none" stroke="rgb(179,179,179)" stroke-linejoin="round" d="M 11647,9036 L 1036,9036 "/>
 <path fill="none" stroke="rgb(179,179,179)" stroke-linejoin="round" d="M 11647,8237 L 1036,8237 "/>
 <path fill="none" stroke="rgb(179,179,179)" stroke-linejoin="round" d="M 11647,7437 L 1036,7437 "/>
 <path fill="none" stroke="rgb(179,179,179)" stroke-linejoin="round" d="M 11647,6637 L 1036,6637 "/>
 <path fill="none" stroke="rgb(179,179,179)" stroke-linejoin="round" d="M 11647,5838 L 1036,5838 "/>
 <path fill="none" stroke="rgb(179,179,179)" stroke-linejoin="round" d="M 11647,5038 L 1036,5038 "/>
 <path fill="none" stroke="rgb(179,179,179)" stroke-linejoin="round" d="M 11647,4238 L 1036,4238 "/>
 <path fill="none" stroke="rgb(179,179,179)" stroke-linejoin="round" d="M 11647,3439 L 1036,3439 "/>
 <path fill="none" stroke="rgb(179,179,179)" stroke-linejoin="round" d="M 11647,2639 L 1036,2639 "/>
 <path fill="none" stroke="rgb(179,179,179)" stroke-linejoin="round" d="M 11647,1840 L 1036,1840 "/>
 <path fill="none" stroke="rgb(179,179,179)" stroke-linejoin="round" d="M 1036,17182 L 1036,17032 "/>
 <path fill="none" stroke="rgb(179,179,179)" stroke-linejoin="round" d="M 1036,17182 L 1036,17032 "/>
 <path fill="none" stroke="rgb(179,179,179)" stroke-linejoin="round" d="M 1277,17182 L 1277,17032 "/>
 <path fill="none" stroke="rgb(179,179,179)" stroke-linejoin="round" d="M 1277,17182 L 1277,17032 "/>
 <path fill="none" stroke="rgb(179,179,179)" stroke-linejoin="round" d="M 1518,17182 L 1518,17032 "/>
 <path fill="none" stroke="rgb(179,179,179)" stroke-linejoin="round" d="M 1518,17182 L 1518,17032 "/>
 <path fill="none" stroke="rgb(179,179,179)" stroke-linejoin="round" d="M 1759,17182 L 1759,17032 "/>
 <path fill="none" stroke="rgb(179,179,179)" stroke-linejoin="round" d="M 1759,17182 L 1759,17032 "/>
 <path fill="none" stroke="rgb(179,179,179)" stroke-linejoin="round" d="M 2000,17182 L 2000,17032 "/>
 <path fill="none" stroke="rgb(179,179,179)" stroke-linejoin="round" d="M 2000,17182 L 2000,17032 "/>
 <path fill="none" stroke="rgb(179,179,179)" stroke-linejoin="round" d="M 2241,17182 L 2241,17032 "/>
 <path fill="none" stroke="rgb(179,179,179)" stroke-linejoin="round" d="M 2241,17182 L 2241,17032 "/>
 <path fill="none" stroke="rgb(179,179,179)" stroke-linejoin="round" d="M 2483,17182 L 2483,17032 "/>
 <path fill="none" stroke="rgb(179,179,179)" stroke-linejoin="round" d="M 2483,17182 L 2483,17032 "/>
 <path fill="none" stroke="rgb(179,179,179)" stroke-linejoin="round" d="M 2724,17182 L 2724,17032 "/>
 <path fill="none" stroke="rgb(179,179,179)" stroke-linejoin="round" d="M 2724,17182 L 2724,17032 "/>
 <path fill="none" stroke="rgb(179,179,179)" stroke-linejoin="round" d="M 2965,17182 L 2965,17032 "/>
 <path fill="none" stroke="rgb(179,179,179)" stroke-linejoin="round" d="M 2965,17182 L 2965,17032 "/>
 <path fill="none" stroke="rgb(179,179,179)" stroke-linejoin="round" d="M 3206,17182 L 3206,17032 "/>
 <path fill="none" stroke="rgb(179,179,179)" stroke-linejoin="round" d="M 3206,17182 L 3206,17032 "/>
 <path fill="none" stroke="rgb(179,179,179)" stroke-linejoin="round" d="M 3447,17182 L 3447,17032 "/>
 <path fill="none" stroke="rgb(179,179,179)" stroke-linejoin="round" d="M 3447,17182 L 3447,17032 "/>
 <path fill="none" stroke="rgb(179,179,179)" stroke-linejoin="round" d="M 3689,17182 L 3689,17032 "/>
 <path fill="none" stroke="rgb(179,179,179)" stroke-linejoin="round" d="M 3689,17182 L 3689,17032 "/>
 <path fill="none" stroke="rgb(179,179,179)" stroke-linejoin="round" d="M 3930,17182 L 3930,17032 "/>
 <path fill="none" stroke="rgb(179,179,179)" stroke-linejoin="round" d="M 3930,17182 L 3930,17032 "/>
 <path fill="none" stroke="rgb(179,179,179)" stroke-linejoin="round" d="M 4171,17182 L 4171,17032 "/>
 <path fill="none" stroke="rgb(179,179,179)" stroke-linejoin="round" d="M 4171,17182 L 4171,17032 "/>
 <path fill="none" stroke="rgb(179,179,179)" stroke-linejoin="round" d="M 4412,17182 L 4412,17032 "/>
 <path fill="none" stroke="rgb(179,179,179)" stroke-linejoin="round" d="M 4412,17182 L 4412,17032 "/>
 <path fill="none" stroke="rgb(179,179,179)" stroke-linejoin="round" d="M 4653,17182 L 4653,17032 "/>
 <path fill="none" stroke="rgb(179,179,179)" stroke-linejoin="round" d="M 4653,17182 L 4653,17032 "/>
 <path fill="none" stroke="rgb(179,179,179)" stroke-linejoin="round" d="M 4894,17182 L 4894,17032 "/>
 <path fill="none" stroke="rgb(179,179,179)" stroke-linejoin="round" d="M 4894,17182 L 4894,17032 "/>
 <path fill="none" stroke="rgb(179,179,179)" stroke-linejoin="round" d="M 5136,17182 L 5136,17032 "/>
 <path fill="none" stroke="rgb(179,179,179)" stroke-linejoin="round" d="M 5136,17182 L 5136,17032 "/>
 <path fill="none" stroke="rgb(179,179,179)" stroke-linejoin="round" d="M 5377,17182 L 5377,17032 "/>
 <path fill="none" stroke="rgb(179,179,179)" stroke-linejoin="round" d="M 5377,17182 L 5377,17032 "/>
 <path fill="none" stroke="rgb(179,179,179)" stroke-linejoin="round" d="M 5618,17182 L 5618,17032 "/>
 <path fill="none" stroke="rgb(179,179,179)" stroke-linejoin="round" d="M 5618,17182 L 5618,17032 "/>
 <path fill="none" stroke="rgb(179,179,179)" stroke-linejoin="round" d="M 5859,17182 L 5859,17032 "/>
 <path fill="none" stroke="rgb(179,179,179)" stroke-linejoin="round" d="M 5859,17182 L 5859,17032 "/>
 <path fill="none" stroke="rgb(179,179,179)" stroke-linejoin="round" d="M 6100,17182 L 6100,17032 "/>
 <path fill="none" stroke="rgb(179,179,179)" stroke-linejoin="round" d="M 6100,17182 L 6100,17032 "/>
 <path fill="none" stroke="rgb(179,179,179)" stroke-linejoin="round" d="M 6342,17182 L 6342,17032 "/>
 <path fill="none" stroke="rgb(179,179,179)" stroke-linejoin="round" d="M 6342,17182 L 6342,17032 "/>
 <path fill="none" stroke="rgb(179,179,179)" stroke-linejoin="round" d="M 6583,17182 L 6583,17032 "/>
 <path fill="none" stroke="rgb(179,179,179)" stroke-linejoin="round" d="M 6583,17182 L 6583,17032 "/>
 <path fill="none" stroke="rgb(179,179,179)" stroke-linejoin="round" d="M 6824,17182 L 6824,17032 "/>
 <path fill="none" stroke="rgb(179,179,179)" stroke-linejoin="round" d="M 6824,17182 L 6824,17032 "/>
 <path fill="none" stroke="rgb(179,179,179)" stroke-linejoin="round" d="M 7065,17182 L 7065,17032 "/>
 <path fill="none" stroke="rgb(179,179,179)" stroke-linejoin="round" d="M 7065,17182 L 7065,17032 "/>
 <path fill="none" stroke="rgb(179,179,179)" stroke-linejoin="round" d="M 7306,17182 L 7306,17032 "/>
 <path fill="none" stroke="rgb(179,179,179)" stroke-linejoin="round" d="M 7306,17182 L 7306,17032 "/>
 <path fill="none" stroke="rgb(179,179,179)" stroke-linejoin="round" d="M 7547,17182 L 7547,17032 "/>
 <path fill="none" stroke="rgb(179,179,179)" stroke-linejoin="round" d="M 7547,17182 L 7547,17032 "/>
 <path fill="none" stroke="rgb(179,179,179)" stroke-linejoin="round" d="M 7789,17182 L 7789,17032 "/>
 <path fill="none" stroke="rgb(179,179,179)" stroke-linejoin="round" d="M 7789,17182 L 7789,17032 "/>
 <path fill="none" stroke="rgb(179,179,179)" stroke-linejoin="round" d="M 8029,17182 L 8029,17032 "/>
 <path fill="none" stroke="rgb(179,179,179)" stroke-linejoin="round" d="M 8029,17182 L 8029,17032 "/>
 <path fill="none" stroke="rgb(179,179,179)" stroke-linejoin="round" d="M 8270,17182 L 8270,17032 "/>
 <path fill="none" stroke="rgb(179,179,179)" stroke-linejoin="round" d="M 8270,17182 L 8270,17032 "/>
 <path fill="none" stroke="rgb(179,179,179)" stroke-linejoin="round" d="M 8511,17182 L 8511,17032 "/>
 <path fill="none" stroke="rgb(179,179,179)" stroke-linejoin="round" d="M 8511,17182 L 8511,17032 "/>
 <path fill="none" stroke="rgb(179,179,179)" stroke-linejoin="round" d="M 8752,17182 L 8752,17032 "/>
 <path fill="none" stroke="rgb(179,179,179)" stroke-linejoin="round" d="M 8752,17182 L 8752,17032 "/>
 <path fill="none" stroke="rgb(179,179,179)" stroke-linejoin="round" d="M 8994,17182 L 8994,17032 "/>
 <path fill="none" stroke="rgb(179,179,179)" stroke-linejoin="round" d="M 8994,17182 L 8994,17032 "/>
 <path fill="none" stroke="rgb(179,179,179)" stroke-linejoin="round" d="M 9235,17182 L 9235,17032 "/>
 <path fill="none" stroke="rgb(179,179,179)" stroke-linejoin="round" d="M 9235,17182 L 9235,17032 "/>
 <path fill="none" stroke="rgb(179,179,179)" stroke-linejoin="round" d="M 9476,17182 L 9476,17032 "/>
 <path fill="none" stroke="rgb(179,179,179)" stroke-linejoin="round" d="M 9476,17182 L 9476,17032 "/>
 <path fill="none" stroke="rgb(179,179,179)" stroke-linejoin="round" d="M 9717,17182 L 9717,17032 "/>
 <path fill="none" stroke="rgb(179,179,179)" stroke-linejoin="round" d="M 9717,17182 L 9717,17032 "/>
 <path fill="none" stroke="rgb(179,179,179)" stroke-linejoin="round" d="M 9958,17182 L 9958,17032 "/>
 <path fill="none" stroke="rgb(179,179,179)" stroke-linejoin="round" d="M 9958,17182 L 9958,17032 "/>
 <path fill="none" stroke="rgb(179,179,179)" stroke-linejoin="round" d="M 10199,17182 L 10199,17032 "/>
 <path fill="none" stroke="rgb(179,179,179)" stroke-linejoin="round" d="M 10199,17182 L 10199,17032 "/>
 <path fill="none" stroke="rgb(179,179,179)" stroke-linejoin="round" d="M 10441,17182 L 10441,17032 "/>
 <path fill="none" stroke="rgb(179,179,179)" stroke-linejoin="round" d="M 10441,17182 L 10441,17032 "/>
 <path fill="none" stroke="rgb(179,179,179)" stroke-linejoin="round" d="M 10682,17182 L 10682,17032 "/>
 <path fill="none" stroke="rgb(179,179,179)" stroke-linejoin="round" d="M 10682,17182 L 10682,17032 "/>
 <path fill="none" stroke="rgb(179,179,179)" stroke-linejoin="round" d="M 10923,17182 L 10923,17032 "/>
 <path fill="none" stroke="rgb(179,179,179)" stroke-linejoin="round" d="M 10923,17182 L 10923,17032 "/>
 <path fill="none" stroke="rgb(179,179,179)" stroke-linejoin="round" d="M 11164,17182 L 11164,17032 "/>
 <path fill="none" stroke="rgb(179,179,179)" stroke-linejoin="round" d="M 11164,17182 L 11164,17032 "/>
 <path fill="none" stroke="rgb(179,179,179)" stroke-linejoin="round" d="M 11405,17182 L 11405,17032 "/>
 <path fill="none" stroke="rgb(179,179,179)" stroke-linejoin="round" d="M 11405,17182 L 11405,17032 "/>
 <path fill="none" stroke="rgb(179,179,179)" stroke-linejoin="round" d="M 11647,17182 L 11647,17032 "/>
 <path fill="none" stroke="rgb(179,179,179)" stroke-linejoin="round" d="M 11647,17182 L 11647,17032 "/>
 <path fill="none" stroke="rgb(179,179,179)" stroke-linejoin="round" d="M 1036,17032 L 11647,17032 "/>
 <path fill="none" stroke="rgb(179,179,179)" stroke-linejoin="round" d="M 886,17032 L 1036,17032 "/>
 <path fill="none" stroke="rgb(179,179,179)" stroke-linejoin="round" d="M 886,17032 L 1036,17032 "/>
 <path fill="none" stroke="rgb(179,179,179)" stroke-linejoin="round" d="M 886,16232 L 1036,16232 "/>
 <path fill="none" stroke="rgb(179,179,179)" stroke-linejoin="round" d="M 886,16232 L 1036,16232 "/>
 <path fill="none" stroke="rgb(179,179,179)" stroke-linejoin="round" d="M 886,15432 L 1036,15432 "/>
 <path fill="none" stroke="rgb(179,179,179)" stroke-linejoin="round" d="M 886,15432 L 1036,15432 "/>
 <path fill="none" stroke="rgb(179,179,179)" stroke-linejoin="round" d="M 886,14633 L 1036,14633 "/>
 <path fill="none" stroke="rgb(179,179,179)" stroke-linejoin="round" d="M 886,14633 L 1036,14633 "/>
 <path fill="none" stroke="rgb(179,179,179)" stroke-linejoin="round" d="M 886,13833 L 1036,13833 "/>
 <path fill="none" stroke="rgb(179,179,179)" stroke-linejoin="round" d="M 886,13833 L 1036,13833 "/>
 <path fill="none" stroke="rgb(179,179,179)" stroke-linejoin="round" d="M 886,13033 L 1036,13033 "/>
 <path fill="none" stroke="rgb(179,179,179)" stroke-linejoin="round" d="M 886,13033 L 1036,13033 "/>
 <path fill="none" stroke="rgb(179,179,179)" stroke-linejoin="round" d="M 886,12234 L 1036,12234 "/>
 <path fill="none" stroke="rgb(179,179,179)" stroke-linejoin="round" d="M 886,12234 L 1036,12234 "/>
 <path fill="none" stroke="rgb(179,179,179)" stroke-linejoin="round" d="M 886,11434 L 1036,11434 "/>
 <path fill="none" stroke="rgb(179,179,179)" stroke-linejoin="round" d="M 886,11434 L 1036,11434 "/>
 <path fill="none" stroke="rgb(179,179,179)" stroke-linejoin="round" d="M 886,10634 L 1036,10634 "/>
 <path fill="none" stroke="rgb(179,179,179)" stroke-linejoin="round" d="M 886,10634 L 1036,10634 "/>
 <path fill="none" stroke="rgb(179,179,179)" stroke-linejoin="round" d="M 886,9835 L 1036,9835 "/>
 <path fill="none" stroke="rgb(179,179,179)" stroke-linejoin="round" d="M 886,9835 L 1036,9835 "/>
 <path fill="none" stroke="rgb(179,179,179)" stroke-linejoin="round" d="M 886,9036 L 1036,9036 "/>
 <path fill="none" stroke="rgb(179,179,179)" stroke-linejoin="round" d="M 886,9036 L 1036,9036 "/>
 <path fill="none" stroke="rgb(179,179,179)" stroke-linejoin="round" d="M 886,8237 L 1036,8237 "/>
 <path fill="none" stroke="rgb(179,179,179)" stroke-linejoin="round" d="M 886,8237 L 1036,8237 "/>
 <path fill="none" stroke="rgb(179,179,179)" stroke-linejoin="round" d="M 886,7437 L 1036,7437 "/>
 <path fill="none" stroke="rgb(179,179,179)" stroke-linejoin="round" d="M 886,7437 L 1036,7437 "/>
 <path fill="none" stroke="rgb(179,179,179)" stroke-linejoin="round" d="M 886,6637 L 1036,6637 "/>
 <path fill="none" stroke="rgb(179,179,179)" stroke-linejoin="round" d="M 886,6637 L 1036,6637 "/>
 <path fill="none" stroke="rgb(179,179,179)" stroke-linejoin="round" d="M 886,5838 L 1036,5838 "/>
 <path fill="none" stroke="rgb(179,179,179)" stroke-linejoin="round" d="M 886,5838 L 1036,5838 "/>
 <path fill="none" stroke="rgb(179,179,179)" stroke-linejoin="round" d="M 886,5038 L 1036,5038 "/>
 <path fill="none" stroke="rgb(179,179,179)" stroke-linejoin="round" d="M 886,5038 L 1036,5038 "/>
 <path fill="none" stroke="rgb(179,179,179)" stroke-linejoin="round" d="M 886,4238 L 1036,4238 "/>
 <path fill="none" stroke="rgb(179,179,179)" stroke-linejoin="round" d="M 886,4238 L 1036,4238 "/>
 <path fill="none" stroke="rgb(179,179,179)" stroke-linejoin="round" d="M 886,3439 L 1036,3439 "/>
 <path fill="none" stroke="rgb(179,179,179)" stroke-linejoin="round" d="M 886,3439 L 1036,3439 "/>
 <path fill="none" stroke="rgb(179,179,179)" stroke-linejoin="round" d="M 886,2639 L 1036,2639 "/>
 <path fill="none" stroke="rgb(179,179,179)" stroke-linejoin="round" d="M 886,2639 L 1036,2639 "/>
 <path fill="none" stroke="rgb(179,179,179)" stroke-linejoin="round" d="M 886,1840 L 1036,1840 "/>
 <path fill="none" stroke="rgb(179,179,179)" stroke-linejoin="round" d="M 886,1840 L 1036,1840 "/>
 <path fill="none" stroke="rgb(179,179,179)" stroke-linejoin="round" d="M 1036,17032 L 1036,1840 "/>
 <path fill="none" stroke="rgb(0,69,134)" stroke-width="80" stroke-linejoin="round" d="M 1036,3187 L 1277,6668 1518,9357 1759,11417 2000,12981 2241,14153 2483,15022 2724,15657 2965,16113 3206,16434 3447,16656 3689,16805 3930,16901 4171,16961 4412,16996 4653,17016 4894,17026 5136,17030 5377,17031 5618,17031 5859,17032 6100,17031 6342,17031 6583,17030 6824,17028 7065,17024 7306,17018 7547,17008 7789,16995 8029,16978 8270,16956 8511,16929 8752,16896 8994,16859 9235,16817 9476,16769 9717,16716 9958,16659 10199,16597 10441,16531 10682,16460 10923,16386 11164,16309 11405,16229 11647,16147 "/>
 <path fill="none" stroke="rgb(255,66,14)" stroke-width="80" stroke-linejoin="round" d="M 1036,3187 L 1277,6668 1518,9357 1759,11417 2000,12981 2241,14153 2483,15022 2724,15657 2965,16113 3206,16434 3447,16656 3689,16805 3930,16901 4171,16961 4412,16996 4653,17016 4894,17026 5136,17030 5377,17031 5618,17031 5859,17032 6100,17031 6342,17031 6583,17030 6824,17028 7065,17024 7306,17018 7547,17008 7789,16995 8029,16978 8270,16956 8511,16929 8752,16896 8994,16859 9235,16817 9476,16769 9717,16716 9958,16659 10199,16597 10441,16531 10682,16460 10923,16386 11164,16309 11405,16229 11647,16147 "/>
 <text class="SVGTextShape" transform="rotate(-45 565 18061)"><tspan class="TextParagraph"><tspan class="TextPosition" x="565" y="18061"><tspan font-family="Liberation Sans, sans-serif" font-size="353px" font-weight="400" fill="rgb(0,0,0)" stroke="none" style="white-space: pre">-2.00</tspan></tspan></tspan></text>
 <text class="SVGTextShape" transform="rotate(-45 1288 18061)"><tspan class="TextParagraph"><tspan class="TextPosition" x="1288" y="18061"><tspan font-family="Liberation Sans, sans-serif" font-size="353px" font-weight="400" fill="rgb(0,0,0)" stroke="none" style="white-space: pre">-1.70</tspan></tspan></tspan></text>
 <text class="SVGTextShape" transform="rotate(-45 2012 18061)"><tspan class="TextParagraph"><tspan class="TextPosition" x="2012" y="18061"><tspan font-family="Liberation Sans, sans-serif" font-size="353px" font-weight="400" fill="rgb(0,0,0)" stroke="none" style="white-space: pre">-1.40</tspan></tspan></tspan></text>
 <text class="SVGTextShape" transform="rotate(-45 2735 18061)"><tspan class="TextParagraph"><tspan class="TextPosition" x="2735" y="18061"><tspan font-family="Liberation Sans, sans-serif" font-size="353px" font-weight="400" fill="rgb(0,0,0)" stroke="none" style="white-space: pre">-1.10</tspan></tspan></tspan></text>
 <text class="SVGTextShape" transform="rotate(-45 3459 18061)"><tspan class="TextParagraph"><tspan class="TextPosition" x="3459" y="18061"><tspan font-family="Liberation Sans, sans-serif" font-size="353px" font-weight="400" fill="rgb(0,0,0)" stroke="none" style="white-space: pre">-0.80</tspan></tspan></tspan></text>
 <text class="SVGTextShape" transform="rotate(-45 4182 18061)"><tspan class="TextParagraph"><tspan class="TextPosition" x="4182" y="18061"><tspan font-family="Liberation Sans, sans-serif" font-size="353px" font-weight="400" fill="rgb(0,0,0)" stroke="none" style="white-space: pre">-0.50</tspan></tspan></tspan></text>
 <text class="SVGTextShape" transform="rotate(-45 4906 18061)"><tspan class="TextParagraph"><tspan class="TextPosition" x="4906" y="18061"><tspan font-family="Liberation Sans, sans-serif" font-size="353px" font-weight="400" fill="rgb(0,0,0)" stroke="none" style="white-space: pre">-0.20</tspan></tspan></tspan></text>
 <text class="SVGTextShape" transform="rotate(-45 5710 17981)"><tspan class="TextParagraph"><tspan class="TextPosition" x="5710" y="17981"><tspan font-family="Liberation Sans, sans-serif" font-size="353px" font-weight="400" fill="rgb(0,0,0)" stroke="none" style="white-space: pre">0.10</tspan></tspan></tspan></text>
 <text class="SVGTextShape" transform="rotate(-45 6434 17981)"><tspan class="TextParagraph"><tspan class="TextPosition" x="6434" y="17981"><tspan font-family="Liberation Sans, sans-serif" font-size="353px" font-weight="400" fill="rgb(0,0,0)" stroke="none" style="white-space: pre">0.40</tspan></tspan></tspan></text>
 <text class="SVGTextShape" transform="rotate(-45 7157 17981)"><tspan class="TextParagraph"><tspan class="TextPosition" x="7157" y="17981"><tspan font-family="Liberation Sans, sans-serif" font-size="353px" font-weight="400" fill="rgb(0,0,0)" stroke="none" style="white-space: pre">0.70</tspan></tspan></tspan></text>
 <text class="SVGTextShape" transform="rotate(-45 7881 17981)"><tspan class="TextParagraph"><tspan class="TextPosition" x="7881" y="17981"><tspan font-family="Liberation Sans, sans-serif" font-size="353px" font-weight="400" fill="rgb(0,0,0)" stroke="none" style="white-space: pre">1.00</tspan></tspan></tspan></text>
 <text class="SVGTextShape" transform="rotate(-45 8604 17981)"><tspan class="TextParagraph"><tspan class="TextPosition" x="8604" y="17981"><tspan font-family="Liberation Sans, sans-serif" font-size="353px" font-weight="400" fill="rgb(0,0,0)" stroke="none" style="white-space: pre">1.30</tspan></tspan></tspan></text>
 <text class="SVGTextShape" transform="rotate(-45 9327 17981)"><tspan class="TextParagraph"><tspan class="TextPosition" x="9327" y="17981"><tspan font-family="Liberation Sans, sans-serif" font-size="353px" font-weight="400" fill="rgb(0,0,0)" stroke="none" style="white-space: pre">1.60</tspan></tspan></tspan></text>
 <text class="SVGTextShape" transform="rotate(-45 10051 17981)"><tspan class="TextParagraph"><tspan class="TextPosition" x="10051" y="17981"><tspan font-family="Liberation Sans, sans-serif" font-size="353px" font-weight="400" fill="rgb(0,0,0)" stroke="none" style="white-space: pre">1.90</tspan></tspan></tspan></text>
 <text class="SVGTextShape" transform="rotate(-45 10774 17981)"><tspan class="TextParagraph"><tspan class="TextPosition" x="10774" y="17981"><tspan font-family="Liberation Sans, sans-serif" font-size="353px" font-weight="400" fill="rgb(0,0,0)" stroke="none" style="white-space: pre">2.20</tspan></tspan></tspan></text>
 <text class="SVGTextShape"><tspan class="TextParagraph"><tspan class="TextPosition" x="595" y="17153"><tspan font-family="Liberation Sans, sans-serif" font-size="353px" font-weight="400" fill="rgb(0,0,0)" stroke="none" style="white-space: pre">0</tspan></tspan></tspan></text>
 <text class="SVGTextShape"><tspan class="TextParagraph"><tspan class="TextPosition" x="308" y="16353"><tspan font-family="Liberation Sans, sans-serif" font-size="353px" font-weight="400" fill="rgb(0,0,0)" stroke="none" style="white-space: pre">0.2</tspan></tspan></tspan></text>
 <text class="SVGTextShape"><tspan class="TextParagraph"><tspan class="TextPosition" x="308" y="15553"><tspan font-family="Liberation Sans, sans-serif" font-size="353px" font-weight="400" fill="rgb(0,0,0)" stroke="none" style="white-space: pre">0.4</tspan></tspan></tspan></text>
 <text class="SVGTextShape"><tspan class="TextParagraph"><tspan class="TextPosition" x="308" y="14754"><tspan font-family="Liberation Sans, sans-serif" font-size="353px" font-weight="400" fill="rgb(0,0,0)" stroke="none" style="white-space: pre">0.6</tspan></tspan></tspan></text>
 <text class="SVGTextShape"><tspan class="TextParagraph"><tspan class="TextPosition" x="308" y="13954"><tspan font-family="Liberation Sans, sans-serif" font-size="353px" font-weight="400" fill="rgb(0,0,0)" stroke="none" style="white-space: pre">0.8</tspan></tspan></tspan></text>
 <text class="SVGTextShape"><tspan class="TextParagraph"><tspan class="TextPosition" x="595" y="13154"><tspan font-family="Liberation Sans, sans-serif" font-size="353px" font-weight="400" fill="rgb(0,0,0)" stroke="none" style="white-space: pre">1</tspan></tspan></tspan></text>
 <text class="SVGTextShape"><tspan class="TextParagraph"><tspan class="TextPosition" x="308" y="12355"><tspan font-family="Liberation Sans, sans-serif" font-size="353px" font-weight="400" fill="rgb(0,0,0)" stroke="none" style="white-space: pre">1.2</tspan></tspan></tspan></text>
 <text class="SVGTextShape"><tspan class="TextParagraph"><tspan class="TextPosition" x="308" y="11555"><tspan font-family="Liberation Sans, sans-serif" font-size="353px" font-weight="400" fill="rgb(0,0,0)" stroke="none" style="white-space: pre">1.4</tspan></tspan></tspan></text>
 <text class="SVGTextShape"><tspan class="TextParagraph"><tspan class="TextPosition" x="308" y="10755"><tspan font-family="Liberation Sans, sans-serif" font-size="353px" font-weight="400" fill="rgb(0,0,0)" stroke="none" style="white-space: pre">1.6</tspan></tspan></tspan></text>
 <text class="SVGTextShape"><tspan class="TextParagraph"><tspan class="TextPosition" x="308" y="9956"><tspan font-family="Liberation Sans, sans-serif" font-size="353px" font-weight="400" fill="rgb(0,0,0)" stroke="none" style="white-space: pre">1.8</tspan></tspan></tspan></text>
 <text class="SVGTextShape"><tspan class="TextParagraph"><tspan class="TextPosition" x="595" y="9157"><tspan font-family="Liberation Sans, sans-serif" font-size="353px" font-weight="400" fill="rgb(0,0,0)" stroke="none" style="white-space: pre">2</tspan></tspan></tspan></text>
 <text class="SVGTextShape"><tspan class="TextParagraph"><tspan class="TextPosition" x="308" y="8358"><tspan font-family="Liberation Sans, sans-serif" font-size="353px" font-weight="400" fill="rgb(0,0,0)" stroke="none" style="white-space: pre">2.2</tspan></tspan></tspan></text>
 <text class="SVGTextShape"><tspan class="TextParagraph"><tspan class="TextPosition" x="308" y="7558"><tspan font-family="Liberation Sans, sans-serif" font-size="353px" font-weight="400" fill="rgb(0,0,0)" stroke="none" style="white-space: pre">2.4</tspan></tspan></tspan></text>
 <text class="SVGTextShape"><tspan class="TextParagraph"><tspan class="TextPosition" x="308" y="6758"><tspan font-family="Liberation Sans, sans-serif" font-size="353px" font-weight="400" fill="rgb(0,0,0)" stroke="none" style="white-space: pre">2.6</tspan></tspan></tspan></text>
 <text class="SVGTextShape"><tspan class="TextParagraph"><tspan class="TextPosition" x="308" y="5959"><tspan font-family="Liberation Sans, sans-serif" font-size="353px" font-weight="400" fill="rgb(0,0,0)" stroke="none" style="white-space: pre">2.8</tspan></tspan></tspan></text>
 <text class="SVGTextShape"><tspan class="TextParagraph"><tspan class="TextPosition" x="595" y="5159"><tspan font-family="Liberation Sans, sans-serif" font-size="353px" font-weight="400" fill="rgb(0,0,0)" stroke="none" style="white-space: pre">3</tspan></tspan></tspan></text>
 <text class="SVGTextShape"><tspan class="TextParagraph"><tspan class="TextPosition" x="308" y="4359"><tspan font-family="Liberation Sans, sans-serif" font-size="353px" font-weight="400" fill="rgb(0,0,0)" stroke="none" style="white-space: pre">3.2</tspan></tspan></tspan></text>
 <text class="SVGTextShape"><tspan class="TextParagraph"><tspan class="TextPosition" x="308" y="3560"><tspan font-family="Liberation Sans, sans-serif" font-size="353px" font-weight="400" fill="rgb(0,0,0)" stroke="none" style="white-space: pre">3.4</tspan></tspan></tspan></text>
 <text class="SVGTextShape"><tspan class="TextParagraph"><tspan class="TextPosition" x="308" y="2760"><tspan font-family="Liberation Sans, sans-serif" font-size="353px" font-weight="400" fill="rgb(0,0,0)" stroke="none" style="white-space: pre">3.6</tspan></tspan></tspan></text>
 <text class="SVGTextShape"><tspan class="TextParagraph"><tspan class="TextPosition" x="308" y="1961"><tspan font-family="Liberation Sans, sans-serif" font-size="353px" font-weight="400" fill="rgb(0,0,0)" stroke="none" style="white-space: pre">3.8</tspan></tspan></tspan></text>
 <text class="SVGTextShape"><tspan class="TextParagraph"><tspan class="TextPosition" x="2928" y="1029"><tspan font-family="Liberation Sans, sans-serif" font-size="459px" font-weight="400" fill="rgb(0,0,0)" stroke="none" style="white-space: pre">Относительная неточность экспоненты, 4 члена</tspan></tspan></tspan></text>
 <path fill="none" stroke="rgb(0,69,134)" stroke-width="80" stroke-linejoin="round" d="M 12083,8987 L 12883,8987 "/>
 <path fill="none" stroke="rgb(255,66,14)" stroke-width="80" stroke-linejoin="round" d="M 12083,9484 L 12883,9484 "/>
 <text class="SVGTextShape"><tspan class="TextParagraph"><tspan class="TextPosition" x="12983" y="9107"><tspan font-family="Liberation Sans, sans-serif" font-size="353px" font-weight="400" fill="rgb(0,0,0)" stroke="none" style="white-space: pre">Обратная сумма</tspan></tspan></tspan></text>
 <text class="SVGTextShape"><tspan class="TextParagraph"><tspan class="TextPosition" x="12983" y="9604"><tspan font-family="Liberation Sans, sans-serif" font-size="353px" font-weight="400" fill="rgb(0,0,0)" stroke="none" style="white-space: pre">Прямая сумма</tspan></tspan></tspan></text>
</svg>