<?xml version="1.0" encoding="UTF-8"?>
<!DOCTYPE svg PUBLIC "-//W3C//DTD SVG 1.1//EN" "http://www.w3.org/Graphics/SVG/1.1/DTD/svg11.dtd">
<svg width="160mm" height="185mm" viewBox="0 0 16000 18500" version="1.1" xmlns="http://www.w3.org/2000/svg" xmlns:xlink="http://www.w3.org/1999/xlink" stroke-width="28.222" stroke-linejoin="round" xml:space="preserve">
 <path fill="rgb(255,255,255)" stroke="none" d="M 7987,18487 L -13,18487 -13,-13 15987,-13 15987,18487 7987,18487 Z "/>
 <path fill="none" stroke="rgb(179,179,179)" stroke-linejoin="round" d="M 6463,17033 L 1419,17033 1419,1841 11507,1841 11507,17033 6463,17033 Z "/>
 <path fill="none" stroke="rgb(179,179,179)" stroke-linejoin="round" d="M 11507,17032 L 1419,17032 "/>
 <path fill="none" stroke="rgb(179,179,179)" stroke-linejoin="round" d="M 11507,16489 L 1419,16489 "/>
 <path fill="none" stroke="rgb(179,179,179)" stroke-linejoin="round" d="M 11507,15946 L 1419,15946 "/>
 <path fill="none" stroke="rgb(179,179,179)" stroke-linejoin="round" d="M 11507,15404 L 1419,15404 "/>
 <path fill="none" stroke="rgb(179,179,179)" stroke-linejoin="round" d="M 11507,14861 L 1419,14861 "/>
 <path fill="none" stroke="rgb(179,179,179)" stroke-linejoin="round" d="M 11507,14318 L 1419,14318 "/>
 <path fill="none" stroke="rgb(179,179,179)" stroke-linejoin="round" d="M 11507,13776 L 1419,13776 "/>
 <path fill="none" stroke="rgb(179,179,179)" stroke-linejoin="round" d="M 11507,13233 L 1419,13233 "/>
 <path fill="none" stroke="rgb(179,179,179)" stroke-linejoin="round" d="M 11507,12691 L 1419,12691 "/>
 <path fill="none" stroke="rgb(179,179,179)" stroke-linejoin="round" d="M 11507,12148 L 1419,12148 "/>
 <path fill="none" stroke="rgb(179,179,179)" stroke-linejoin="round" d="M 11507,11605 L 1419,11605 "/>
 <path fill="none" stroke="rgb(179,179,179)" stroke-linejoin="round" d="M 11507,11063 L 1419,11063 "/>
 <path fill="none" stroke="rgb(179,179,179)" stroke-linejoin="round" d="M 11507,10520 L 1419,10520 "/>
 <path fill="none" stroke="rgb(179,179,179)" stroke-linejoin="round" d="M 11507,9978 L 1419,9978 "/>
 <path fill="none" stroke="rgb(179,179,179)" stroke-linejoin="round" d="M 11507,9435 L 1419,9435 "/>
 <path fill="none" stroke="rgb(179,179,179)" stroke-linejoin="round" d="M 11507,8893 L 1419,8893 "/>
 <path fill="none" stroke="rgb(179,179,179)" stroke-linejoin="round" d="M 11507,8351 L 1419,8351 "/>
 <path fill="none" stroke="rgb(179,179,179)" stroke-linejoin="round" d="M 11507,7808 L 1419,7808 "/>
 <path fill="none" stroke="rgb(179,179,179)" stroke-linejoin="round" d="M 11507,7266 L 1419,7266 "/>
 <path fill="none" stroke="rgb(179,179,179)" stroke-linejoin="round" d="M 11507,6723 L 1419,6723 "/>
 <path fill="none" stroke="rgb(179,179,179)" stroke-linejoin="round" d="M 11507,6180 L 1419,6180 "/>
 <path fill="none" stroke="rgb(179,179,179)" stroke-linejoin="round" d="M 11507,5638 L 1419,5638 "/>
 <path fill="none" stroke="rgb(179,179,179)" stroke-linejoin="round" d="M 11507,5095 L 1419,5095 "/>
 <path fill="none" stroke="rgb(179,179,179)" stroke-linejoin="round" d="M 11507,4553 L 1419,4553 "/>
 <path fill="none" stroke="rgb(179,179,179)" stroke-linejoin="round" d="M 11507,4010 L 1419,4010 "/>
 <path fill="none" stroke="rgb(179,179,179)" stroke-linejoin="round" d="M 11507,3467 L 1419,3467 "/>
 <path fill="none" stroke="rgb(179,179,179)" stroke-linejoin="round" d="M 11507,2925 L 1419,2925 "/>
 <path fill="none" stroke="rgb(179,179,179)" stroke-linejoin="round" d="M 11507,2382 L 1419,2382 "/>
 <path fill="none" stroke="rgb(179,179,179)" stroke-linejoin="round" d="M 11507,1840 L 1419,1840 "/>
 <path fill="none" stroke="rgb(179,179,179)" stroke-linejoin="round" d="M 1419,17182 L 1419,17032 "/>
 <path fill="none" stroke="rgb(179,179,179)" stroke-linejoin="round" d="M 1419,17182 L 1419,17032 "/>
 <path fill="none" stroke="rgb(179,179,179)" stroke-linejoin="round" d="M 1677,17182 L 1677,17032 "/>
 <path fill="none" stroke="rgb(179,179,179)" stroke-linejoin="round" d="M 1677,17182 L 1677,17032 "/>
 <path fill="none" stroke="rgb(179,179,179)" stroke-linejoin="round" d="M 1936,17182 L 1936,17032 "/>
 <path fill="none" stroke="rgb(179,179,179)" stroke-linejoin="round" d="M 1936,17182 L 1936,17032 "/>
 <path fill="none" stroke="rgb(179,179,179)" stroke-linejoin="round" d="M 2195,17182 L 2195,17032 "/>
 <path fill="none" stroke="rgb(179,179,179)" stroke-linejoin="round" d="M 2195,17182 L 2195,17032 "/>
 <path fill="none" stroke="rgb(179,179,179)" stroke-linejoin="round" d="M 2453,17182 L 2453,17032 "/>
 <path fill="none" stroke="rgb(179,179,179)" stroke-linejoin="round" d="M 2453,17182 L 2453,17032 "/>
 <path fill="none" stroke="rgb(179,179,179)" stroke-linejoin="round" d="M 2712,17182 L 2712,17032 "/>
 <path fill="none" stroke="rgb(179,179,179)" stroke-linejoin="round" d="M 2712,17182 L 2712,17032 "/>
 <path fill="none" stroke="rgb(179,179,179)" stroke-linejoin="round" d="M 2971,17182 L 2971,17032 "/>
 <path fill="none" stroke="rgb(179,179,179)" stroke-linejoin="round" d="M 2971,17182 L 2971,17032 "/>
 <path fill="none" stroke="rgb(179,179,179)" stroke-linejoin="round" d="M 3229,17182 L 3229,17032 "/>
 <path fill="none" stroke="rgb(179,179,179)" stroke-linejoin="round" d="M 3229,17182 L 3229,17032 "/>
 <path fill="none" stroke="rgb(179,179,179)" stroke-linejoin="round" d="M 3488,17182 L 3488,17032 "/>
 <path fill="none" stroke="rgb(179,179,179)" stroke-linejoin="round" d="M 3488,17182 L 3488,17032 "/>
 <path fill="none" stroke="rgb(179,179,179)" stroke-linejoin="round" d="M 3747,17182 L 3747,17032 "/>
 <path fill="none" stroke="rgb(179,179,179)" stroke-linejoin="round" d="M 3747,17182 L 3747,17032 "/>
 <path fill="none" stroke="rgb(179,179,179)" stroke-linejoin="round" d="M 4005,17182 L 4005,17032 "/>
 <path fill="none" stroke="rgb(179,179,179)" stroke-linejoin="round" d="M 4005,17182 L 4005,17032 "/>
 <path fill="none" stroke="rgb(179,179,179)" stroke-linejoin="round" d="M 4264,17182 L 4264,17032 "/>
 <path fill="none" stroke="rgb(179,179,179)" stroke-linejoin="round" d="M 4264,17182 L 4264,17032 "/>
 <path fill="none" stroke="rgb(179,179,179)" stroke-linejoin="round" d="M 4523,17182 L 4523,17032 "/>
 <path fill="none" stroke="rgb(179,179,179)" stroke-linejoin="round" d="M 4523,17182 L 4523,17032 "/>
 <path fill="none" stroke="rgb(179,179,179)" stroke-linejoin="round" d="M 4782,17182 L 4782,17032 "/>
 <path fill="none" stroke="rgb(179,179,179)" stroke-linejoin="round" d="M 4782,17182 L 4782,17032 "/>
 <path fill="none" stroke="rgb(179,179,179)" stroke-linejoin="round" d="M 5040,17182 L 5040,17032 "/>
 <path fill="none" stroke="rgb(179,179,179)" stroke-linejoin="round" d="M 5040,17182 L 5040,17032 "/>
 <path fill="none" stroke="rgb(179,179,179)" stroke-linejoin="round" d="M 5299,17182 L 5299,17032 "/>
 <path fill="none" stroke="rgb(179,179,179)" stroke-linejoin="round" d="M 5299,17182 L 5299,17032 "/>
 <path fill="none" stroke="rgb(179,179,179)" stroke-linejoin="round" d="M 5558,17182 L 5558,17032 "/>
 <path fill="none" stroke="rgb(179,179,179)" stroke-linejoin="round" d="M 5558,17182 L 5558,17032 "/>
 <path fill="none" stroke="rgb(179,179,179)" stroke-linejoin="round" d="M 5816,17182 L 5816,17032 "/>
 <path fill="none" stroke="rgb(179,179,179)" stroke-linejoin="round" d="M 5816,17182 L 5816,17032 "/>
 <path fill="none" stroke="rgb(179,179,179)" stroke-linejoin="round" d="M 6075,17182 L 6075,17032 "/>
 <path fill="none" stroke="rgb(179,179,179)" stroke-linejoin="round" d="M 6075,17182 L 6075,17032 "/>
 <path fill="none" stroke="rgb(179,179,179)" stroke-linejoin="round" d="M 6334,17182 L 6334,17032 "/>
 <path fill="none" stroke="rgb(179,179,179)" stroke-linejoin="round" d="M 6334,17182 L 6334,17032 "/>
 <path fill="none" stroke="rgb(179,179,179)" stroke-linejoin="round" d="M 6592,17182 L 6592,17032 "/>
 <path fill="none" stroke="rgb(179,179,179)" stroke-linejoin="round" d="M 6592,17182 L 6592,17032 "/>
 <path fill="none" stroke="rgb(179,179,179)" stroke-linejoin="round" d="M 6851,17182 L 6851,17032 "/>
 <path fill="none" stroke="rgb(179,179,179)" stroke-linejoin="round" d="M 6851,17182 L 6851,17032 "/>
 <path fill="none" stroke="rgb(179,179,179)" stroke-linejoin="round" d="M 7110,17182 L 7110,17032 "/>
 <path fill="none" stroke="rgb(179,179,179)" stroke-linejoin="round" d="M 7110,17182 L 7110,17032 "/>
 <path fill="none" stroke="rgb(179,179,179)" stroke-linejoin="round" d="M 7368,17182 L 7368,17032 "/>
 <path fill="none" stroke="rgb(179,179,179)" stroke-linejoin="round" d="M 7368,17182 L 7368,17032 "/>
 <path fill="none" stroke="rgb(179,179,179)" stroke-linejoin="round" d="M 7627,17182 L 7627,17032 "/>
 <path fill="none" stroke="rgb(179,179,179)" stroke-linejoin="round" d="M 7627,17182 L 7627,17032 "/>
 <path fill="none" stroke="rgb(179,179,179)" stroke-linejoin="round" d="M 7886,17182 L 7886,17032 "/>
 <path fill="none" stroke="rgb(179,179,179)" stroke-linejoin="round" d="M 7886,17182 L 7886,17032 "/>
 <path fill="none" stroke="rgb(179,179,179)" stroke-linejoin="round" d="M 8144,17182 L 8144,17032 "/>
 <path fill="none" stroke="rgb(179,179,179)" stroke-linejoin="round" d="M 8144,17182 L 8144,17032 "/>
 <path fill="none" stroke="rgb(179,179,179)" stroke-linejoin="round" d="M 8402,17182 L 8402,17032 "/>
 <path fill="none" stroke="rgb(179,179,179)" stroke-linejoin="round" d="M 8402,17182 L 8402,17032 "/>
 <path fill="none" stroke="rgb(179,179,179)" stroke-linejoin="round" d="M 8661,17182 L 8661,17032 "/>
 <path fill="none" stroke="rgb(179,179,179)" stroke-linejoin="round" d="M 8661,17182 L 8661,17032 "/>
 <path fill="none" stroke="rgb(179,179,179)" stroke-linejoin="round" d="M 8920,17182 L 8920,17032 "/>
 <path fill="none" stroke="rgb(179,179,179)" stroke-linejoin="round" d="M 8920,17182 L 8920,17032 "/>
 <path fill="none" stroke="rgb(179,179,179)" stroke-linejoin="round" d="M 9178,17182 L 9178,17032 "/>
 <path fill="none" stroke="rgb(179,179,179)" stroke-linejoin="round" d="M 9178,17182 L 9178,17032 "/>
 <path fill="none" stroke="rgb(179,179,179)" stroke-linejoin="round" d="M 9437,17182 L 9437,17032 "/>
 <path fill="none" stroke="rgb(179,179,179)" stroke-linejoin="round" d="M 9437,17182 L 9437,17032 "/>
 <path fill="none" stroke="rgb(179,179,179)" stroke-linejoin="round" d="M 9696,17182 L 9696,17032 "/>
 <path fill="none" stroke="rgb(179,179,179)" stroke-linejoin="round" d="M 9696,17182 L 9696,17032 "/>
 <path fill="none" stroke="rgb(179,179,179)" stroke-linejoin="round" d="M 9954,17182 L 9954,17032 "/>
 <path fill="none" stroke="rgb(179,179,179)" stroke-linejoin="round" d="M 9954,17182 L 9954,17032 "/>
 <path fill="none" stroke="rgb(179,179,179)" stroke-linejoin="round" d="M 10213,17182 L 10213,17032 "/>
 <path fill="none" stroke="rgb(179,179,179)" stroke-linejoin="round" d="M 10213,17182 L 10213,17032 "/>
 <path fill="none" stroke="rgb(179,179,179)" stroke-linejoin="round" d="M 10472,17182 L 10472,17032 "/>
 <path fill="none" stroke="rgb(179,179,179)" stroke-linejoin="round" d="M 10472,17182 L 10472,17032 "/>
 <path fill="none" stroke="rgb(179,179,179)" stroke-linejoin="round" d="M 10730,17182 L 10730,17032 "/>
 <path fill="none" stroke="rgb(179,179,179)" stroke-linejoin="round" d="M 10730,17182 L 10730,17032 "/>
 <path fill="none" stroke="rgb(179,179,179)" stroke-linejoin="round" d="M 10989,17182 L 10989,17032 "/>
 <path fill="none" stroke="rgb(179,179,179)" stroke-linejoin="round" d="M 10989,17182 L 10989,17032 "/>
 <path fill="none" stroke="rgb(179,179,179)" stroke-linejoin="round" d="M 11248,17182 L 11248,17032 "/>
 <path fill="none" stroke="rgb(179,179,179)" stroke-linejoin="round" d="M 11248,17182 L 11248,17032 "/>
 <path fill="none" stroke="rgb(179,179,179)" stroke-linejoin="round" d="M 11507,17182 L 11507,17032 "/>
 <path fill="none" stroke="rgb(179,179,179)" stroke-linejoin="round" d="M 11507,17182 L 11507,17032 "/>
 <path fill="none" stroke="rgb(179,179,179)" stroke-linejoin="round" d="M 1419,17032 L 11507,17032 "/>
 <path fill="none" stroke="rgb(179,179,179)" stroke-linejoin="round" d="M 1269,17032 L 1419,17032 "/>
 <path fill="none" stroke="rgb(179,179,179)" stroke-linejoin="round" d="M 1269,17032 L 1419,17032 "/>
 <path fill="none" stroke="rgb(179,179,179)" stroke-linejoin="round" d="M 1269,16489 L 1419,16489 "/>
 <path fill="none" stroke="rgb(179,179,179)" stroke-linejoin="round" d="M 1269,16489 L 1419,16489 "/>
 <path fill="none" stroke="rgb(179,179,179)" stroke-linejoin="round" d="M 1269,15946 L 1419,15946 "/>
 <path fill="none" stroke="rgb(179,179,179)" stroke-linejoin="round" d="M 1269,15946 L 1419,15946 "/>
 <path fill="none" stroke="rgb(179,179,179)" stroke-linejoin="round" d="M 1269,15404 L 1419,15404 "/>
 <path fill="none" stroke="rgb(179,179,179)" stroke-linejoin="round" d="M 1269,15404 L 1419,15404 "/>
 <path fill="none" stroke="rgb(179,179,179)" stroke-linejoin="round" d="M 1269,14861 L 1419,14861 "/>
 <path fill="none" stroke="rgb(179,179,179)" stroke-linejoin="round" d="M 1269,14861 L 1419,14861 "/>
 <path fill="none" stroke="rgb(179,179,179)" stroke-linejoin="round" d="M 1269,14318 L 1419,14318 "/>
 <path fill="none" stroke="rgb(179,179,179)" stroke-linejoin="round" d="M 1269,14318 L 1419,14318 "/>
 <path fill="none" stroke="rgb(179,179,179)" stroke-linejoin="round" d="M 1269,13776 L 1419,13776 "/>
 <path fill="none" stroke="rgb(179,179,179)" stroke-linejoin="round" d="M 1269,13776 L 1419,13776 "/>
 <path fill="none" stroke="rgb(179,179,179)" stroke-linejoin="round" d="M 1269,13233 L 1419,13233 "/>
 <path fill="none" stroke="rgb(179,179,179)" stroke-linejoin="round" d="M 1269,13233 L 1419,13233 "/>
 <path fill="none" stroke="rgb(179,179,179)" stroke-linejoin="round" d="M 1269,12691 L 1419,12691 "/>
 <path fill="none" stroke="rgb(179,179,179)" stroke-linejoin="round" d="M 1269,12691 L 1419,12691 "/>
 <path fill="none" stroke="rgb(179,179,179)" stroke-linejoin="round" d="M 1269,12148 L 1419,12148 "/>
 <path fill="none" stroke="rgb(179,179,179)" stroke-linejoin="round" d="M 1269,12148 L 1419,12148 "/>
 <path fill="none" stroke="rgb(179,179,179)" stroke-linejoin="round" d="M 1269,11605 L 1419,11605 "/>
 <path fill="none" stroke="rgb(179,179,179)" stroke-linejoin="round" d="M 1269,11605 L 1419,11605 "/>
 <path fill="none" stroke="rgb(179,179,179)" stroke-linejoin="round" d="M 1269,11063 L 1419,11063 "/>
 <path fill="none" stroke="rgb(179,179,179)" stroke-linejoin="round" d="M 1269,11063 L 1419,11063 "/>
 <path fill="none" stroke="rgb(179,179,179)" stroke-linejoin="round" d="M 1269,10520 L 1419,10520 "/>
 <path fill="none" stroke="rgb(179,179,179)" stroke-linejoin="round" d="M 1269,10520 L 1419,10520 "/>
 <path fill="none" stroke="rgb(179,179,179)" stroke-linejoin="round" d="M 1269,9978 L 1419,9978 "/>
 <path fill="none" stroke="rgb(179,179,179)" stroke-linejoin="round" d="M 1269,9978 L 1419,9978 "/>
 <path fill="none" stroke="rgb(179,179,179)" stroke-linejoin="round" d="M 1269,9435 L 1419,9435 "/>
 <path fill="none" stroke="rgb(179,179,179)" stroke-linejoin="round" d="M 1269,9435 L 1419,9435 "/>
 <path fill="none" stroke="rgb(179,179,179)" stroke-linejoin="round" d="M 1269,8893 L 1419,8893 "/>
 <path fill="none" stroke="rgb(179,179,179)" stroke-linejoin="round" d="M 1269,8893 L 1419,8893 "/>
 <path fill="none" stroke="rgb(179,179,179)" stroke-linejoin="round" d="M 1269,8351 L 1419,8351 "/>
 <path fill="none" stroke="rgb(179,179,179)" stroke-linejoin="round" d="M 1269,8351 L 1419,8351 "/>
 <path fill="none" stroke="rgb(179,179,179)" stroke-linejoin="round" d="M 1269,7808 L 1419,7808 "/>
 <path fill="none" stroke="rgb(179,179,179)" stroke-linejoin="round" d="M 1269,7808 L 1419,7808 "/>
 <path fill="none" stroke="rgb(179,179,179)" stroke-linejoin="round" d="M 1269,7266 L 1419,7266 "/>
 <path fill="none" stroke="rgb(179,179,179)" stroke-linejoin="round" d="M 1269,7266 L 1419,7266 "/>
 <path fill="none" stroke="rgb(179,179,179)" stroke-linejoin="round" d="M 1269,6723 L 1419,6723 "/>
 <path fill="none" stroke="rgb(179,179,179)" stroke-linejoin="round" d="M 1269,6723 L 1419,6723 "/>
 <path fill="none" stroke="rgb(179,179,179)" stroke-linejoin="round" d="M 1269,6180 L 1419,6180 "/>
 <path fill="none" stroke="rgb(179,179,179)" stroke-linejoin="round" d="M 1269,6180 L 1419,6180 "/>
 <path fill="none" stroke="rgb(179,179,179)" stroke-linejoin="round" d="M 1269,5638 L 1419,5638 "/>
 <path fill="none" stroke="rgb(179,179,179)" stroke-linejoin="round" d="M 1269,5638 L 1419,5638 "/>
 <path fill="none" stroke="rgb(179,179,179)" stroke-linejoin="round" d="M 1269,5095 L 1419,5095 "/>
 <path fill="none" stroke="rgb(179,179,179)" stroke-linejoin="round" d="M 1269,5095 L 1419,5095 "/>
 <path fill="none" stroke="rgb(179,179,179)" stroke-linejoin="round" d="M 1269,4553 L 1419,4553 "/>
 <path fill="none" stroke="rgb(179,179,179)" stroke-linejoin="round" d="M 1269,4553 L 1419,4553 "/>
 <path fill="none" stroke="rgb(179,179,179)" stroke-linejoin="round" d="M 1269,4010 L 1419,4010 "/>
 <path fill="none" stroke="rgb(179,179,179)" stroke-linejoin="round" d="M 1269,4010 L 1419,4010 "/>
 <path fill="none" stroke="rgb(179,179,179)" stroke-linejoin="round" d="M 1269,3467 L 1419,3467 "/>
 <path fill="none" stroke="rgb(179,179,179)" stroke-linejoin="round" d="M 1269,3467 L 1419,3467 "/>
 <path fill="none" stroke="rgb(179,179,179)" stroke-linejoin="round" d="M 1269,2925 L 1419,2925 "/>
 <path fill="none" stroke="rgb(179,179,179)" stroke-linejoin="round" d="M 1269,2925 L 1419,2925 "/>
 <path fill="none" stroke="rgb(179,179,179)" stroke-linejoin="round" d="M 1269,2382 L 1419,2382 "/>
 <path fill="none" stroke="rgb(179,179,179)" stroke-linejoin="round" d="M 1269,2382 L 1419,2382 "/>
 <path fill="none" stroke="rgb(179,179,179)" stroke-linejoin="round" d="M 1269,1840 L 1419,1840 "/>
 <path fill="none" stroke="rgb(179,179,179)" stroke-linejoin="round" d="M 1269,1840 L 1419,1840 "/>
 <path fill="none" stroke="rgb(179,179,179)" stroke-linejoin="round" d="M 1419,17032 L 1419,1839 "/>
 <path fill="none" stroke="rgb(0,69,134)" stroke-width="80" stroke-linejoin="round" d="M 1419,2855 L 1677,15228 1936,16796 2195,17002 2453,17028 2712,17031 2971,17031 3229,17031 3488,17031 3747,17031 4005,17031 4264,17031 4523,17032 4782,17032 5040,17032 5299,17032 5558,17032 5816,17032 6075,17032 6334,17032 6592,17032 6851,17032 7110,17032 7368,17032 7627,17032 7886,17032 8144,17032 8402,17031 8661,17031 8920,17031 9178,17031 9437,17031 9696,17031 9954,17031 10213,17030 10472,17022 10730,16963 10989,16609 11248,14674 11507,4992 "/>
 <path fill="none" stroke="rgb(255,66,14)" stroke-width="80" stroke-linejoin="round" d="M 1419,2855 L 1677,15228 1936,16796 2195,17002 2453,17028 2712,17031 2971,17031 3229,17031 3488,17031 3747,17031 4005,17031 4264,17031 4523,17032 4782,17032 5040,17032 5299,17032 5558,17032 5816,17032 6075,17032 6334,17032 6592,17032 6851,17032 7110,17032 7368,17032 7627,17032 7886,17032 8144,17032 8402,17031 8661,17031 8920,17031 9178,17031 9437,17031 9696,17031 9954,17031 10213,17030 10472,17022 10730,16963 10989,16609 11248,14674 11507,4992 "/>
 <text class="SVGTextShape" transform="rotate(-45 948 18061)"><tspan class="TextParagraph"><tspan class="TextPosition" x="948" y="18061"><tspan font-family="Liberation Sans, sans-serif" font-size="353px" font-weight="400" fill="rgb(0,0,0)" stroke="none" style="white-space: pre">-0.95</tspan></tspan></tspan></text>
 <text class="SVGTextShape" transform="rotate(-45 1724 18061)"><tspan class="TextParagraph"><tspan class="TextPosition" x="1724" y="18061"><tspan font-family="Liberation Sans, sans-serif" font-size="353px" font-weight="400" fill="rgb(0,0,0)" stroke="none" style="white-space: pre">-0.80</tspan></tspan></tspan></text>
 <text class="SVGTextShape" transform="rotate(-45 2500 18061)"><tspan class="TextParagraph"><tspan class="TextPosition" x="2500" y="18061"><tspan font-family="Liberation Sans, sans-serif" font-size="353px" font-weight="400" fill="rgb(0,0,0)" stroke="none" style="white-space: pre">-0.65</tspan></tspan></tspan></text>
 <text class="SVGTextShape" transform="rotate(-45 3276 18061)"><tspan class="TextParagraph"><tspan class="TextPosition" x="3276" y="18061"><tspan font-family="Liberation Sans, sans-serif" font-size="353px" font-weight="400" fill="rgb(0,0,0)" stroke="none" style="white-space: pre">-0.50</tspan></tspan></tspan></text>
 <text class="SVGTextShape" transform="rotate(-45 4052 18061)"><tspan class="TextParagraph"><tspan class="TextPosition" x="4052" y="18061"><tspan font-family="Liberation Sans, sans-serif" font-size="353px" font-weight="400" fill="rgb(0,0,0)" stroke="none" style="white-space: pre">-0.35</tspan></tspan></tspan></text>
 <text class="SVGTextShape" transform="rotate(-45 4828 18061)"><tspan class="TextParagraph"><tspan class="TextPosition" x="4828" y="18061"><tspan font-family="Liberation Sans, sans-serif" font-size="353px" font-weight="400" fill="rgb(0,0,0)" stroke="none" style="white-space: pre">-0.20</tspan></tspan></tspan></text>
 <text class="SVGTextShape" transform="rotate(-45 5604 18061)"><tspan class="TextParagraph"><tspan class="TextPosition" x="5604" y="18061"><tspan font-family="Liberation Sans, sans-serif" font-size="353px" font-weight="400" fill="rgb(0,0,0)" stroke="none" style="white-space: pre">-0.05</tspan></tspan></tspan></text>
 <text class="SVGTextShape" transform="rotate(-45 6461 17981)"><tspan class="TextParagraph"><tspan class="TextPosition" x="6461" y="17981"><tspan font-family="Liberation Sans, sans-serif" font-size="353px" font-weight="400" fill="rgb(0,0,0)" stroke="none" style="white-space: pre">0.10</tspan></tspan></tspan></text>
 <text class="SVGTextShape" transform="rotate(-45 7237 17981)"><tspan class="TextParagraph"><tspan class="TextPosition" x="7237" y="17981"><tspan font-family="Liberation Sans, sans-serif" font-size="353px" font-weight="400" fill="rgb(0,0,0)" stroke="none" style="white-space: pre">0.25</tspan></tspan></tspan></text>
 <text class="SVGTextShape" transform="rotate(-45 8012 17981)"><tspan class="TextParagraph"><tspan class="TextPosition" x="8012" y="17981"><tspan font-family="Liberation Sans, sans-serif" font-size="353px" font-weight="400" fill="rgb(0,0,0)" stroke="none" style="white-space: pre">0.40</tspan></tspan></tspan></text>
 <text class="SVGTextShape" transform="rotate(-45 8788 17981)"><tspan class="TextParagraph"><tspan class="TextPosition" x="8788" y="17981"><tspan font-family="Liberation Sans, sans-serif" font-size="353px" font-weight="400" fill="rgb(0,0,0)" stroke="none" style="white-space: pre">0.55</tspan></tspan></tspan></text>
 <text class="SVGTextShape" transform="rotate(-45 9564 17981)"><tspan class="TextParagraph"><tspan class="TextPosition" x="9564" y="17981"><tspan font-family="Liberation Sans, sans-serif" font-size="353px" font-weight="400" fill="rgb(0,0,0)" stroke="none" style="white-space: pre">0.70</tspan></tspan></tspan></text>
 <text class="SVGTextShape" transform="rotate(-45 10340 17981)"><tspan class="TextParagraph"><tspan class="TextPosition" x="10340" y="17981"><tspan font-family="Liberation Sans, sans-serif" font-size="353px" font-weight="400" fill="rgb(0,0,0)" stroke="none" style="white-space: pre">0.85</tspan></tspan></tspan></text>
 <text class="SVGTextShape" transform="rotate(-45 11117 17981)"><tspan class="TextParagraph"><tspan class="TextPosition" x="11117" y="17981"><tspan font-family="Liberation Sans, sans-serif" font-size="353px" font-weight="400" fill="rgb(0,0,0)" stroke="none" style="white-space: pre">1.00</tspan></tspan></tspan></text>
 <text class="SVGTextShape"><tspan class="TextParagraph"><tspan class="TextPosition" x="978" y="17153"><tspan font-family="Liberation Sans, sans-serif" font-size="353px" font-weight="400" fill="rgb(0,0,0)" stroke="none" style="white-space: pre">0</tspan></tspan></tspan></text>
 <text class="SVGTextShape"><tspan class="TextParagraph"><tspan class="TextPosition" x="308" y="16610"><tspan font-family="Liberation Sans, sans-serif" font-size="353px" font-weight="400" fill="rgb(0,0,0)" stroke="none" style="white-space: pre">0.001</tspan></tspan></tspan></text>
 <text class="SVGTextShape"><tspan class="TextParagraph"><tspan class="TextPosition" x="308" y="16067"><tspan font-family="Liberation Sans, sans-serif" font-size="353px" font-weight="400" fill="rgb(0,0,0)" stroke="none" style="white-space: pre">0.002</tspan></tspan></tspan></text>
 <text class="SVGTextShape"><tspan class="TextParagraph"><tspan class="TextPosition" x="308" y="15525"><tspan font-family="Liberation Sans, sans-serif" font-size="353px" font-weight="400" fill="rgb(0,0,0)" stroke="none" style="white-space: pre">0.003</tspan></tspan></tspan></text>
 <text class="SVGTextShape"><tspan class="TextParagraph"><tspan class="TextPosition" x="308" y="14982"><tspan font-family="Liberation Sans, sans-serif" font-size="353px" font-weight="400" fill="rgb(0,0,0)" stroke="none" style="white-space: pre">0.004</tspan></tspan></tspan></text>
 <text class="SVGTextShape"><tspan class="TextParagraph"><tspan class="TextPosition" x="308" y="14439"><tspan font-family="Liberation Sans, sans-serif" font-size="353px" font-weight="400" fill="rgb(0,0,0)" stroke="none" style="white-space: pre">0.005</tspan></tspan></tspan></text>
 <text class="SVGTextShape"><tspan class="TextParagraph"><tspan class="TextPosition" x="308" y="13897"><tspan font-family="Liberation Sans, sans-serif" font-size="353px" font-weight="400" fill="rgb(0,0,0)" stroke="none" style="white-space: pre">0.006</tspan></tspan></tspan></text>
 <text class="SVGTextShape"><tspan class="TextParagraph"><tspan class="TextPosition" x="308" y="13354"><tspan font-family="Liberation Sans, sans-serif" font-size="353px" font-weight="400" fill="rgb(0,0,0)" stroke="none" style="white-space: pre">0.007</tspan></tspan></tspan></text>
 <text class="SVGTextShape"><tspan class="TextParagraph"><tspan class="TextPosition" x="308" y="12812"><tspan font-family="Liberation Sans, sans-serif" font-size="353px" font-weight="400" fill="rgb(0,0,0)" stroke="none" style="white-space: pre">0.008</tspan></tspan></tspan></text>
 <text class="SVGTextShape"><tspan class="TextParagraph"><tspan class="TextPosition" x="308" y="12269"><tspan font-family="Liberation Sans, sans-serif" font-size="353px" font-weight="400" fill="rgb(0,0,0)" stroke="none" style="white-space: pre">0.009</tspan></tspan></tspan></text>
 <text class="SVGTextShape"><tspan class="TextParagraph"><tspan class="TextPosition" x="500" y="11726"><tspan font-family="Liberation Sans, sans-serif" font-size="353px" font-weight="400" fill="rgb(0,0,0)" stroke="none" style="white-space: pre">0.01</tspan></tspan></tspan></text>
 <text class="SVGTextShape"><tspan class="TextParagraph"><tspan class="TextPosition" x="308" y="11184"><tspan font-family="Liberation Sans, sans-serif" font-size="353px" font-weight="400" fill="rgb(0,0,0)" stroke="none" style="white-space: pre">0.011</tspan></tspan></tspan></text>
 <text class="SVGTextShape"><tspan class="TextParagraph"><tspan class="TextPosition" x="308" y="10641"><tspan font-family="Liberation Sans, sans-serif" font-size="353px" font-weight="400" fill="rgb(0,0,0)" stroke="none" style="white-space: pre">0.012</tspan></tspan></tspan></text>
 <text class="SVGTextShape"><tspan class="TextParagraph"><tspan class="TextPosition" x="308" y="10099"><tspan font-family="Liberation Sans, sans-serif" font-size="353px" font-weight="400" fill="rgb(0,0,0)" stroke="none" style="white-space: pre">0.013</tspan></tspan></tspan></text>
 <text class="SVGTextShape"><tspan class="TextParagraph"><tspan class="TextPosition" x="308" y="9556"><tspan font-family="Liberation Sans, sans-serif" font-size="353px" font-weight="400" fill="rgb(0,0,0)" stroke="none" style="white-space: pre">0.014</tspan></tspan></tspan></text>
 <text class="SVGTextShape"><tspan class="TextParagraph"><tspan class="TextPosition" x="308" y="9014"><tspan font-family="Liberation Sans, sans-serif" font-size="353px" font-weight="400" fill="rgb(0,0,0)" stroke="none" style="white-space: pre">0.015</tspan></tspan></tspan></text>
 <text class="SVGTextShape"><tspan class="TextParagraph"><tspan class="TextPosition" x="308" y="8472"><tspan font-family="Liberation Sans, sans-serif" font-size="353px" font-weight="400" fill="rgb(0,0,0)" stroke="none" style="white-space: pre">0.016</tspan></tspan></tspan></text>
 <text class="SVGTextShape"><tspan class="TextParagraph"><tspan class="TextPosition" x="308" y="7929"><tspan font-family="Liberation Sans, sans-serif" font-size="353px" font-weight="400" fill="rgb(0,0,0)" stroke="none" style="white-space: pre">0.017</tspan></tspan></tspan></text>
 <text class="SVGTextShape"><tspan class="TextParagraph"><tspan class="TextPosition" x="308" y="7387"><tspan font-family="Liberation Sans, sans-serif" font-size="353px" font-weight="400" fill="rgb(0,0,0)" stroke="none" style="white-space: pre">0.018</tspan></tspan></tspan></text>
 <text class="SVGTextShape"><tspan class="TextParagraph"><tspan class="TextPosition" x="308" y="6844"><tspan font-family="Liberation Sans, sans-serif" font-size="353px" font-weight="400" fill="rgb(0,0,0)" stroke="none" style="white-space: pre">0.019</tspan></tspan></tspan></text>
 <text class="SVGTextShape"><tspan class="TextParagraph"><tspan class="TextPosition" x="500" y="6301"><tspan font-family="Liberation Sans, sans-serif" font-size="353px" font-weight="400" fill="rgb(0,0,0)" stroke="none" style="white-space: pre">0.02</tspan></tspan></tspan></text>
 <text class="SVGTextShape"><tspan class="TextParagraph"><tspan class="TextPosition" x="308" y="5759"><tspan font-family="Liberation Sans, sans-serif" font-size="353px" font-weight="400" fill="rgb(0,0,0)" stroke="none" style="white-space: pre">0.021</tspan></tspan></tspan></text>
 <text class="SVGTextShape"><tspan class="TextParagraph"><tspan class="TextPosition" x="308" y="5216"><tspan font-family="Liberation Sans, sans-serif" font-size="353px" font-weight="400" fill="rgb(0,0,0)" stroke="none" style="white-space: pre">0.022</tspan></tspan></tspan></text>
 <text class="SVGTextShape"><tspan class="TextParagraph"><tspan class="TextPosition" x="308" y="4674"><tspan font-family="Liberation Sans, sans-serif" font-size="353px" font-weight="400" fill="rgb(0,0,0)" stroke="none" style="white-space: pre">0.023</tspan></tspan></tspan></text>
 <text class="SVGTextShape"><tspan class="TextParagraph"><tspan class="TextPosition" x="308" y="4131"><tspan font-family="Liberation Sans, sans-serif" font-size="353px" font-weight="400" fill="rgb(0,0,0)" stroke="none" style="white-space: pre">0.024</tspan></tspan></tspan></text>
 <text class="SVGTextShape"><tspan class="TextParagraph"><tspan class="TextPosition" x="308" y="3588"><tspan font-family="Liberation Sans, sans-serif" font-size="353px" font-weight="400" fill="rgb(0,0,0)" stroke="none" style="white-space: pre">0.025</tspan></tspan></tspan></text>
 <text class="SVGTextShape"><tspan class="TextParagraph"><tspan class="TextPosition" x="308" y="3046"><tspan font-family="Liberation Sans, sans-serif" font-size="353px" font-weight="400" fill="rgb(0,0,0)" stroke="none" style="white-space: pre">0.026</tspan></tspan></tspan></text>
 <text class="SVGTextShape"><tspan class="TextParagraph"><tspan class="TextPosition" x="308" y="2503"><tspan font-family="Liberation Sans, sans-serif" font-size="353px" font-weight="400" fill="rgb(0,0,0)" stroke="none" style="white-space: pre">0.027</tspan></tspan></tspan></text>
 <text class="SVGTextShape"><tspan class="TextParagraph"><tspan class="TextPosition" x="308" y="1961"><tspan font-family="Liberation Sans, sans-serif" font-size="353px" font-weight="400" fill="rgb(0,0,0)" stroke="none" style="white-space: pre">0.028</tspan></tspan></tspan></text>
 <text class="SVGTextShape"><tspan class="TextParagraph"><tspan class="TextPosition" x="3195" y="1029"><tspan font-family="Liberation Sans, sans-serif" font-size="459px" font-weight="400" fill="rgb(0,0,0)" stroke="none" style="white-space: pre">Относительная неточность ln(1 + x), 32 члена</tspan></tspan></tspan></text>
 <path fill="none" stroke="rgb(0,69,134)" stroke-width="80" stroke-linejoin="round" d="M 12083,8987 L 12883,8987 "/>
 <path fill="none" stroke="rgb(255,66,14)" stroke-width="80" stroke-linejoin="round" d="M 12083,9484 L 12883,9484 "/>
 <text class="SVGTextShape"><tspan class="TextParagraph"><tspan class="TextPosition" x="12983" y="9107"><tspan font-family="Liberation Sans, sans-serif" font-size="353px" font-weight="400" fill="rgb(0,0,0)" stroke="none" style="white-space: pre">Обратная сумма</tspan></tspan></tspan></text>
 <text class="SVGTextShape"><tspan class="TextParagraph"><tspan class="TextPosition" x="12983" y="9604"><tspan font-family="Liberation Sans, sans-serif" font-size="353px" font-weight="400" fill="rgb(0,0,0)" stroke="none" style="white-space: pre">Прямая сумма</tspan></tspan></tspan></text>
</svg>