<?xml version="1.0" encoding="UTF-8"?>
<!DOCTYPE svg PUBLIC "-//W3C//DTD SVG 1.1//EN" "http://www.w3.org/Graphics/SVG/1.1/DTD/svg11.dtd">
<svg width="160mm" height="185mm" viewBox="0 0 16000 18500" version="1.1" xmlns="http://www.w3.org/2000/svg" xmlns:xlink="http://www.w3.org/1999/xlink" stroke-width="28.222" stroke-linejoin="round" xml:space="preserve">
 <path fill="rgb(255,255,255)" stroke="none" d="M 7987,18487 L -13,18487 -13,-13 15987,-13 15987,18487 7987,18487 Z "/>
 <path fill="none" stroke="rgb(179,179,179)" stroke-linejoin="round" d="M 6367,17033 L 1227,17033 1227,1841 11506,1841 11506,17033 6367,17033 Z "/>
 <path fill="none" stroke="rgb(179,179,179)" stroke-linejoin="round" d="M 11506,17032 L 1227,17032 "/>
 <path fill="none" stroke="rgb(179,179,179)" stroke-linejoin="round" d="M 11506,16272 L 1227,16272 "/>
 <path fill="none" stroke="rgb(179,179,179)" stroke-linejoin="round" d="M 11506,15512 L 1227,15512 "/>
 <path fill="none" stroke="rgb(179,179,179)" stroke-linejoin="round" d="M 11506,14753 L 1227,14753 "/>
 <path fill="none" stroke="rgb(179,179,179)" stroke-linejoin="round" d="M 11506,13993 L 1227,13993 "/>
 <path fill="none" stroke="rgb(179,179,179)" stroke-linejoin="round" d="M 11506,13233 L 1227,13233 "/>
 <path fill="none" stroke="rgb(179,179,179)" stroke-linejoin="round" d="M 11506,12474 L 1227,12474 "/>
 <path fill="none" stroke="rgb(179,179,179)" stroke-linejoin="round" d="M 11506,11714 L 1227,11714 "/>
 <path fill="none" stroke="rgb(179,179,179)" stroke-linejoin="round" d="M 11506,10954 L 1227,10954 "/>
 <path fill="none" stroke="rgb(179,179,179)" stroke-linejoin="round" d="M 11506,10195 L 1227,10195 "/>
 <path fill="none" stroke="rgb(179,179,179)" stroke-linejoin="round" d="M 11506,9435 L 1227,9435 "/>
 <path fill="none" stroke="rgb(179,179,179)" stroke-linejoin="round" d="M 11506,8676 L 1227,8676 "/>
 <path fill="none" stroke="rgb(179,179,179)" stroke-linejoin="round" d="M 11506,7917 L 1227,7917 "/>
 <path fill="none" stroke="rgb(179,179,179)" stroke-linejoin="round" d="M 11506,7157 L 1227,7157 "/>
 <path fill="none" stroke="rgb(179,179,179)" stroke-linejoin="round" d="M 11506,6397 L 1227,6397 "/>
 <path fill="none" stroke="rgb(179,179,179)" stroke-linejoin="round" d="M 11506,5638 L 1227,5638 "/>
 <path fill="none" stroke="rgb(179,179,179)" stroke-linejoin="round" d="M 11506,4878 L 1227,4878 "/>
 <path fill="none" stroke="rgb(179,179,179)" stroke-linejoin="round" d="M 11506,4118 L 1227,4118 "/>
 <path fill="none" stroke="rgb(179,179,179)" stroke-linejoin="round" d="M 11506,3359 L 1227,3359 "/>
 <path fill="none" stroke="rgb(179,179,179)" stroke-linejoin="round" d="M 11506,2599 L 1227,2599 "/>
 <path fill="none" stroke="rgb(179,179,179)" stroke-linejoin="round" d="M 11506,1840 L 1227,1840 "/>
 <path fill="none" stroke="rgb(179,179,179)" stroke-linejoin="round" d="M 1227,17182 L 1227,17032 "/>
 <path fill="none" stroke="rgb(179,179,179)" stroke-linejoin="round" d="M 1227,17182 L 1227,17032 "/>
 <path fill="none" stroke="rgb(179,179,179)" stroke-linejoin="round" d="M 1490,17182 L 1490,17032 "/>
 <path fill="none" stroke="rgb(179,179,179)" stroke-linejoin="round" d="M 1490,17182 L 1490,17032 "/>
 <path fill="none" stroke="rgb(179,179,179)" stroke-linejoin="round" d="M 1754,17182 L 1754,17032 "/>
 <path fill="none" stroke="rgb(179,179,179)" stroke-linejoin="round" d="M 1754,17182 L 1754,17032 "/>
 <path fill="none" stroke="rgb(179,179,179)" stroke-linejoin="round" d="M 2017,17182 L 2017,17032 "/>
 <path fill="none" stroke="rgb(179,179,179)" stroke-linejoin="round" d="M 2017,17182 L 2017,17032 "/>
 <path fill="none" stroke="rgb(179,179,179)" stroke-linejoin="round" d="M 2281,17182 L 2281,17032 "/>
 <path fill="none" stroke="rgb(179,179,179)" stroke-linejoin="round" d="M 2281,17182 L 2281,17032 "/>
 <path fill="none" stroke="rgb(179,179,179)" stroke-linejoin="round" d="M 2544,17182 L 2544,17032 "/>
 <path fill="none" stroke="rgb(179,179,179)" stroke-linejoin="round" d="M 2544,17182 L 2544,17032 "/>
 <path fill="none" stroke="rgb(179,179,179)" stroke-linejoin="round" d="M 2808,17182 L 2808,17032 "/>
 <path fill="none" stroke="rgb(179,179,179)" stroke-linejoin="round" d="M 2808,17182 L 2808,17032 "/>
 <path fill="none" stroke="rgb(179,179,179)" stroke-linejoin="round" d="M 3072,17182 L 3072,17032 "/>
 <path fill="none" stroke="rgb(179,179,179)" stroke-linejoin="round" d="M 3072,17182 L 3072,17032 "/>
 <path fill="none" stroke="rgb(179,179,179)" stroke-linejoin="round" d="M 3335,17182 L 3335,17032 "/>
 <path fill="none" stroke="rgb(179,179,179)" stroke-linejoin="round" d="M 3335,17182 L 3335,17032 "/>
 <path fill="none" stroke="rgb(179,179,179)" stroke-linejoin="round" d="M 3599,17182 L 3599,17032 "/>
 <path fill="none" stroke="rgb(179,179,179)" stroke-linejoin="round" d="M 3599,17182 L 3599,17032 "/>
 <path fill="none" stroke="rgb(179,179,179)" stroke-linejoin="round" d="M 3862,17182 L 3862,17032 "/>
 <path fill="none" stroke="rgb(179,179,179)" stroke-linejoin="round" d="M 3862,17182 L 3862,17032 "/>
 <path fill="none" stroke="rgb(179,179,179)" stroke-linejoin="round" d="M 4126,17182 L 4126,17032 "/>
 <path fill="none" stroke="rgb(179,179,179)" stroke-linejoin="round" d="M 4126,17182 L 4126,17032 "/>
 <path fill="none" stroke="rgb(179,179,179)" stroke-linejoin="round" d="M 4390,17182 L 4390,17032 "/>
 <path fill="none" stroke="rgb(179,179,179)" stroke-linejoin="round" d="M 4390,17182 L 4390,17032 "/>
 <path fill="none" stroke="rgb(179,179,179)" stroke-linejoin="round" d="M 4653,17182 L 4653,17032 "/>
 <path fill="none" stroke="rgb(179,179,179)" stroke-linejoin="round" d="M 4653,17182 L 4653,17032 "/>
 <path fill="none" stroke="rgb(179,179,179)" stroke-linejoin="round" d="M 4917,17182 L 4917,17032 "/>
 <path fill="none" stroke="rgb(179,179,179)" stroke-linejoin="round" d="M 4917,17182 L 4917,17032 "/>
 <path fill="none" stroke="rgb(179,179,179)" stroke-linejoin="round" d="M 5180,17182 L 5180,17032 "/>
 <path fill="none" stroke="rgb(179,179,179)" stroke-linejoin="round" d="M 5180,17182 L 5180,17032 "/>
 <path fill="none" stroke="rgb(179,179,179)" stroke-linejoin="round" d="M 5444,17182 L 5444,17032 "/>
 <path fill="none" stroke="rgb(179,179,179)" stroke-linejoin="round" d="M 5444,17182 L 5444,17032 "/>
 <path fill="none" stroke="rgb(179,179,179)" stroke-linejoin="round" d="M 5708,17182 L 5708,17032 "/>
 <path fill="none" stroke="rgb(179,179,179)" stroke-linejoin="round" d="M 5708,17182 L 5708,17032 "/>
 <path fill="none" stroke="rgb(179,179,179)" stroke-linejoin="round" d="M 5971,17182 L 5971,17032 "/>
 <path fill="none" stroke="rgb(179,179,179)" stroke-linejoin="round" d="M 5971,17182 L 5971,17032 "/>
 <path fill="none" stroke="rgb(179,179,179)" stroke-linejoin="round" d="M 6235,17182 L 6235,17032 "/>
 <path fill="none" stroke="rgb(179,179,179)" stroke-linejoin="round" d="M 6235,17182 L 6235,17032 "/>
 <path fill="none" stroke="rgb(179,179,179)" stroke-linejoin="round" d="M 6498,17182 L 6498,17032 "/>
 <path fill="none" stroke="rgb(179,179,179)" stroke-linejoin="round" d="M 6498,17182 L 6498,17032 "/>
 <path fill="none" stroke="rgb(179,179,179)" stroke-linejoin="round" d="M 6762,17182 L 6762,17032 "/>
 <path fill="none" stroke="rgb(179,179,179)" stroke-linejoin="round" d="M 6762,17182 L 6762,17032 "/>
 <path fill="none" stroke="rgb(179,179,179)" stroke-linejoin="round" d="M 7025,17182 L 7025,17032 "/>
 <path fill="none" stroke="rgb(179,179,179)" stroke-linejoin="round" d="M 7025,17182 L 7025,17032 "/>
 <path fill="none" stroke="rgb(179,179,179)" stroke-linejoin="round" d="M 7289,17182 L 7289,17032 "/>
 <path fill="none" stroke="rgb(179,179,179)" stroke-linejoin="round" d="M 7289,17182 L 7289,17032 "/>
 <path fill="none" stroke="rgb(179,179,179)" stroke-linejoin="round" d="M 7553,17182 L 7553,17032 "/>
 <path fill="none" stroke="rgb(179,179,179)" stroke-linejoin="round" d="M 7553,17182 L 7553,17032 "/>
 <path fill="none" stroke="rgb(179,179,179)" stroke-linejoin="round" d="M 7816,17182 L 7816,17032 "/>
 <path fill="none" stroke="rgb(179,179,179)" stroke-linejoin="round" d="M 7816,17182 L 7816,17032 "/>
 <path fill="none" stroke="rgb(179,179,179)" stroke-linejoin="round" d="M 8079,17182 L 8079,17032 "/>
 <path fill="none" stroke="rgb(179,179,179)" stroke-linejoin="round" d="M 8079,17182 L 8079,17032 "/>
 <path fill="none" stroke="rgb(179,179,179)" stroke-linejoin="round" d="M 8342,17182 L 8342,17032 "/>
 <path fill="none" stroke="rgb(179,179,179)" stroke-linejoin="round" d="M 8342,17182 L 8342,17032 "/>
 <path fill="none" stroke="rgb(179,179,179)" stroke-linejoin="round" d="M 8606,17182 L 8606,17032 "/>
 <path fill="none" stroke="rgb(179,179,179)" stroke-linejoin="round" d="M 8606,17182 L 8606,17032 "/>
 <path fill="none" stroke="rgb(179,179,179)" stroke-linejoin="round" d="M 8870,17182 L 8870,17032 "/>
 <path fill="none" stroke="rgb(179,179,179)" stroke-linejoin="round" d="M 8870,17182 L 8870,17032 "/>
 <path fill="none" stroke="rgb(179,179,179)" stroke-linejoin="round" d="M 9133,17182 L 9133,17032 "/>
 <path fill="none" stroke="rgb(179,179,179)" stroke-linejoin="round" d="M 9133,17182 L 9133,17032 "/>
 <path fill="none" stroke="rgb(179,179,179)" stroke-linejoin="round" d="M 9397,17182 L 9397,17032 "/>
 <path fill="none" stroke="rgb(179,179,179)" stroke-linejoin="round" d="M 9397,17182 L 9397,17032 "/>
 <path fill="none" stroke="rgb(179,179,179)" stroke-linejoin="round" d="M 9660,17182 L 9660,17032 "/>
 <path fill="none" stroke="rgb(179,179,179)" stroke-linejoin="round" d="M 9660,17182 L 9660,17032 "/>
 <path fill="none" stroke="rgb(179,179,179)" stroke-linejoin="round" d="M 9924,17182 L 9924,17032 "/>
 <path fill="none" stroke="rgb(179,179,179)" stroke-linejoin="round" d="M 9924,17182 L 9924,17032 "/>
 <path fill="none" stroke="rgb(179,179,179)" stroke-linejoin="round" d="M 10188,17182 L 10188,17032 "/>
 <path fill="none" stroke="rgb(179,179,179)" stroke-linejoin="round" d="M 10188,17182 L 10188,17032 "/>
 <path fill="none" stroke="rgb(179,179,179)" stroke-linejoin="round" d="M 10451,17182 L 10451,17032 "/>
 <path fill="none" stroke="rgb(179,179,179)" stroke-linejoin="round" d="M 10451,17182 L 10451,17032 "/>
 <path fill="none" stroke="rgb(179,179,179)" stroke-linejoin="round" d="M 10715,17182 L 10715,17032 "/>
 <path fill="none" stroke="rgb(179,179,179)" stroke-linejoin="round" d="M 10715,17182 L 10715,17032 "/>
 <path fill="none" stroke="rgb(179,179,179)" stroke-linejoin="round" d="M 10978,17182 L 10978,17032 "/>
 <path fill="none" stroke="rgb(179,179,179)" stroke-linejoin="round" d="M 10978,17182 L 10978,17032 "/>
 <path fill="none" stroke="rgb(179,179,179)" stroke-linejoin="round" d="M 11242,17182 L 11242,17032 "/>
 <path fill="none" stroke="rgb(179,179,179)" stroke-linejoin="round" d="M 11242,17182 L 11242,17032 "/>
 <path fill="none" stroke="rgb(179,179,179)" stroke-linejoin="round" d="M 11506,17182 L 11506,17032 "/>
 <path fill="none" stroke="rgb(179,179,179)" stroke-linejoin="round" d="M 11506,17182 L 11506,17032 "/>
 <path fill="none" stroke="rgb(179,179,179)" stroke-linejoin="round" d="M 1227,17032 L 11506,17032 "/>
 <path fill="none" stroke="rgb(179,179,179)" stroke-linejoin="round" d="M 1077,17032 L 1227,17032 "/>
 <path fill="none" stroke="rgb(179,179,179)" stroke-linejoin="round" d="M 1077,17032 L 1227,17032 "/>
 <path fill="none" stroke="rgb(179,179,179)" stroke-linejoin="round" d="M 1077,16272 L 1227,16272 "/>
 <path fill="none" stroke="rgb(179,179,179)" stroke-linejoin="round" d="M 1077,16272 L 1227,16272 "/>
 <path fill="none" stroke="rgb(179,179,179)" stroke-linejoin="round" d="M 1077,15512 L 1227,15512 "/>
 <path fill="none" stroke="rgb(179,179,179)" stroke-linejoin="round" d="M 1077,15512 L 1227,15512 "/>
 <path fill="none" stroke="rgb(179,179,179)" stroke-linejoin="round" d="M 1077,14753 L 1227,14753 "/>
 <path fill="none" stroke="rgb(179,179,179)" stroke-linejoin="round" d="M 1077,14753 L 1227,14753 "/>
 <path fill="none" stroke="rgb(179,179,179)" stroke-linejoin="round" d="M 1077,13993 L 1227,13993 "/>
 <path fill="none" stroke="rgb(179,179,179)" stroke-linejoin="round" d="M 1077,13993 L 1227,13993 "/>
 <path fill="none" stroke="rgb(179,179,179)" stroke-linejoin="round" d="M 1077,13233 L 1227,13233 "/>
 <path fill="none" stroke="rgb(179,179,179)" stroke-linejoin="round" d="M 1077,13233 L 1227,13233 "/>
 <path fill="none" stroke="rgb(179,179,179)" stroke-linejoin="round" d="M 1077,12474 L 1227,12474 "/>
 <path fill="none" stroke="rgb(179,179,179)" stroke-linejoin="round" d="M 1077,12474 L 1227,12474 "/>
 <path fill="none" stroke="rgb(179,179,179)" stroke-linejoin="round" d="M 1077,11714 L 1227,11714 "/>
 <path fill="none" stroke="rgb(179,179,179)" stroke-linejoin="round" d="M 1077,11714 L 1227,11714 "/>
 <path fill="none" stroke="rgb(179,179,179)" stroke-linejoin="round" d="M 1077,10954 L 1227,10954 "/>
 <path fill="none" stroke="rgb(179,179,179)" stroke-linejoin="round" d="M 1077,10954 L 1227,10954 "/>
 <path fill="none" stroke="rgb(179,179,179)" stroke-linejoin="round" d="M 1077,10195 L 1227,10195 "/>
 <path fill="none" stroke="rgb(179,179,179)" stroke-linejoin="round" d="M 1077,10195 L 1227,10195 "/>
 <path fill="none" stroke="rgb(179,179,179)" stroke-linejoin="round" d="M 1077,9435 L 1227,9435 "/>
 <path fill="none" stroke="rgb(179,179,179)" stroke-linejoin="round" d="M 1077,9435 L 1227,9435 "/>
 <path fill="none" stroke="rgb(179,179,179)" stroke-linejoin="round" d="M 1077,8676 L 1227,8676 "/>
 <path fill="none" stroke="rgb(179,179,179)" stroke-linejoin="round" d="M 1077,8676 L 1227,8676 "/>
 <path fill="none" stroke="rgb(179,179,179)" stroke-linejoin="round" d="M 1077,7917 L 1227,7917 "/>
 <path fill="none" stroke="rgb(179,179,179)" stroke-linejoin="round" d="M 1077,7917 L 1227,7917 "/>
 <path fill="none" stroke="rgb(179,179,179)" stroke-linejoin="round" d="M 1077,7157 L 1227,7157 "/>
 <path fill="none" stroke="rgb(179,179,179)" stroke-linejoin="round" d="M 1077,7157 L 1227,7157 "/>
 <path fill="none" stroke="rgb(179,179,179)" stroke-linejoin="round" d="M 1077,6397 L 1227,6397 "/>
 <path fill="none" stroke="rgb(179,179,179)" stroke-linejoin="round" d="M 1077,6397 L 1227,6397 "/>
 <path fill="none" stroke="rgb(179,179,179)" stroke-linejoin="round" d="M 1077,5638 L 1227,5638 "/>
 <path fill="none" stroke="rgb(179,179,179)" stroke-linejoin="round" d="M 1077,5638 L 1227,5638 "/>
 <path fill="none" stroke="rgb(179,179,179)" stroke-linejoin="round" d="M 1077,4878 L 1227,4878 "/>
 <path fill="none" stroke="rgb(179,179,179)" stroke-linejoin="round" d="M 1077,4878 L 1227,4878 "/>
 <path fill="none" stroke="rgb(179,179,179)" stroke-linejoin="round" d="M 1077,4118 L 1227,4118 "/>
 <path fill="none" stroke="rgb(179,179,179)" stroke-linejoin="round" d="M 1077,4118 L 1227,4118 "/>
 <path fill="none" stroke="rgb(179,179,179)" stroke-linejoin="round" d="M 1077,3359 L 1227,3359 "/>
 <path fill="none" stroke="rgb(179,179,179)" stroke-linejoin="round" d="M 1077,3359 L 1227,3359 "/>
 <path fill="none" stroke="rgb(179,179,179)" stroke-linejoin="round" d="M 1077,2599 L 1227,2599 "/>
 <path fill="none" stroke="rgb(179,179,179)" stroke-linejoin="round" d="M 1077,2599 L 1227,2599 "/>
 <path fill="none" stroke="rgb(179,179,179)" stroke-linejoin="round" d="M 1077,1840 L 1227,1840 "/>
 <path fill="none" stroke="rgb(179,179,179)" stroke-linejoin="round" d="M 1077,1840 L 1227,1840 "/>
 <path fill="none" stroke="rgb(179,179,179)" stroke-linejoin="round" d="M 1227,17032 L 1227,1840 "/>
 <path fill="none" stroke="rgb(0,69,134)" stroke-width="80" stroke-linejoin="round" d="M 1227,3022 L 1490,7291 1754,10011 2017,11925 2281,13324 2544,14362 2808,15136 3072,15710 3335,16131 3599,16437 3862,16653 4126,16802 4390,16900 4653,16962 4917,16999 5180,17018 5444,17027 5708,17031 5971,17031 6235,17032 6498,17031 6762,17031 7025,17028 7289,17020 7553,17004 7816,16975 8079,16928 8342,16858 8606,16757 8870,16617 9133,16431 9397,16191 9660,15885 9924,15505 10188,15040 10451,14478 10715,13807 10978,13015 11242,12088 11506,11014 "/>
 <path fill="none" stroke="rgb(255,66,14)" stroke-width="80" stroke-linejoin="round" d="M 1227,3022 L 1490,7291 1754,10011 2017,11925 2281,13324 2544,14362 2808,15136 3072,15710 3335,16131 3599,16437 3862,16653 4126,16802 4390,16900 4653,16962 4917,16999 5180,17018 5444,17027 5708,17031 5971,17031 6235,17032 6498,17031 6762,17031 7025,17028 7289,17020 7553,17004 7816,16975 8079,16928 8342,16858 8606,16757 8870,16617 9133,16431 9397,16191 9660,15885 9924,15505 10188,15040 10451,14478 10715,13807 10978,13015 11242,12088 11506,11014 "/>
 <text class="SVGTextShape" transform="rotate(-45 756 18061)"><tspan class="TextParagraph"><tspan class="TextPosition" x="756" y="18061"><tspan font-family="Liberation Sans, sans-serif" font-size="353px" font-weight="400" fill="rgb(0,0,0)" stroke="none" style="white-space: pre">-0.95</tspan></tspan></tspan></text>
 <text class="SVGTextShape" transform="rotate(-45 1546 18061)"><tspan class="TextParagraph"><tspan class="TextPosition" x="1546" y="18061"><tspan font-family="Liberation Sans, sans-serif" font-size="353px" font-weight="400" fill="rgb(0,0,0)" stroke="none" style="white-space: pre">-0.80</tspan></tspan></tspan></text>
 <text class="SVGTextShape" transform="rotate(-45 2337 18061)"><tspan class="TextParagraph"><tspan class="TextPosition" x="2337" y="18061"><tspan font-family="Liberation Sans, sans-serif" font-size="353px" font-weight="400" fill="rgb(0,0,0)" stroke="none" style="white-space: pre">-0.65</tspan></tspan></tspan></text>
 <text class="SVGTextShape" transform="rotate(-45 3128 18061)"><tspan class="TextParagraph"><tspan class="TextPosition" x="3128" y="18061"><tspan font-family="Liberation Sans, sans-serif" font-size="353px" font-weight="400" fill="rgb(0,0,0)" stroke="none" style="white-space: pre">-0.50</tspan></tspan></tspan></text>
 <text class="SVGTextShape" transform="rotate(-45 3919 18061)"><tspan class="TextParagraph"><tspan class="TextPosition" x="3919" y="18061"><tspan font-family="Liberation Sans, sans-serif" font-size="353px" font-weight="400" fill="rgb(0,0,0)" stroke="none" style="white-space: pre">-0.35</tspan></tspan></tspan></text>
 <text class="SVGTextShape" transform="rotate(-45 4709 18061)"><tspan class="TextParagraph"><tspan class="TextPosition" x="4709" y="18061"><tspan font-family="Liberation Sans, sans-serif" font-size="353px" font-weight="400" fill="rgb(0,0,0)" stroke="none" style="white-space: pre">-0.20</tspan></tspan></tspan></text>
 <text class="SVGTextShape" transform="rotate(-45 5500 18061)"><tspan class="TextParagraph"><tspan class="TextPosition" x="5500" y="18061"><tspan font-family="Liberation Sans, sans-serif" font-size="353px" font-weight="400" fill="rgb(0,0,0)" stroke="none" style="white-space: pre">-0.05</tspan></tspan></tspan></text>
 <text class="SVGTextShape" transform="rotate(-45 6372 17981)"><tspan class="TextParagraph"><tspan class="TextPosition" x="6372" y="17981"><tspan font-family="Liberation Sans, sans-serif" font-size="353px" font-weight="400" fill="rgb(0,0,0)" stroke="none" style="white-space: pre">0.10</tspan></tspan></tspan></text>
 <text class="SVGTextShape" transform="rotate(-45 7163 17981)"><tspan class="TextParagraph"><tspan class="TextPosition" x="7163" y="17981"><tspan font-family="Liberation Sans, sans-serif" font-size="353px" font-weight="400" fill="rgb(0,0,0)" stroke="none" style="white-space: pre">0.25</tspan></tspan></tspan></text>
 <text class="SVGTextShape" transform="rotate(-45 7953 17981)"><tspan class="TextParagraph"><tspan class="TextPosition" x="7953" y="17981"><tspan font-family="Liberation Sans, sans-serif" font-size="353px" font-weight="400" fill="rgb(0,0,0)" stroke="none" style="white-space: pre">0.40</tspan></tspan></tspan></text>
 <text class="SVGTextShape" transform="rotate(-45 8743 17981)"><tspan class="TextParagraph"><tspan class="TextPosition" x="8743" y="17981"><tspan font-family="Liberation Sans, sans-serif" font-size="353px" font-weight="400" fill="rgb(0,0,0)" stroke="none" style="white-space: pre">0.55</tspan></tspan></tspan></text>
 <text class="SVGTextShape" transform="rotate(-45 9534 17981)"><tspan class="TextParagraph"><tspan class="TextPosition" x="9534" y="17981"><tspan font-family="Liberation Sans, sans-serif" font-size="353px" font-weight="400" fill="rgb(0,0,0)" stroke="none" style="white-space: pre">0.70</tspan></tspan></tspan></text>
 <text class="SVGTextShape" transform="rotate(-45 10325 17981)"><tspan class="TextParagraph"><tspan class="TextPosition" x="10325" y="17981"><tspan font-family="Liberation Sans, sans-serif" font-size="353px" font-weight="400" fill="rgb(0,0,0)" stroke="none" style="white-space: pre">0.85</tspan></tspan></tspan></text>
 <text class="SVGTextShape" transform="rotate(-45 11116 17981)"><tspan class="TextParagraph"><tspan class="TextPosition" x="11116" y="17981"><tspan font-family="Liberation Sans, sans-serif" font-size="353px" font-weight="400" fill="rgb(0,0,0)" stroke="none" style="white-space: pre">1.00</tspan></tspan></tspan></text>
 <text class="SVGTextShape"><tspan class="TextParagraph"><tspan class="TextPosition" x="786" y="17153"><tspan font-family="Liberation Sans, sans-serif" font-size="353px" font-weight="400" fill="rgb(0,0,0)" stroke="none" style="white-space: pre">0</tspan></tspan></tspan></text>
 <text class="SVGTextShape"><tspan class="TextParagraph"><tspan class="TextPosition" x="308" y="16393"><tspan font-family="Liberation Sans, sans-serif" font-size="353px" font-weight="400" fill="rgb(0,0,0)" stroke="none" style="white-space: pre">0.02</tspan></tspan></tspan></text>
 <text class="SVGTextShape"><tspan class="TextParagraph"><tspan class="TextPosition" x="308" y="15633"><tspan font-family="Liberation Sans, sans-serif" font-size="353px" font-weight="400" fill="rgb(0,0,0)" stroke="none" style="white-space: pre">0.04</tspan></tspan></tspan></text>
 <text class="SVGTextShape"><tspan class="TextParagraph"><tspan class="TextPosition" x="308" y="14874"><tspan font-family="Liberation Sans, sans-serif" font-size="353px" font-weight="400" fill="rgb(0,0,0)" stroke="none" style="white-space: pre">0.06</tspan></tspan></tspan></text>
 <text class="SVGTextShape"><tspan class="TextParagraph"><tspan class="TextPosition" x="308" y="14114"><tspan font-family="Liberation Sans, sans-serif" font-size="353px" font-weight="400" fill="rgb(0,0,0)" stroke="none" style="white-space: pre">0.08</tspan></tspan></tspan></text>
 <text class="SVGTextShape"><tspan class="TextParagraph"><tspan class="TextPosition" x="499" y="13354"><tspan font-family="Liberation Sans, sans-serif" font-size="353px" font-weight="400" fill="rgb(0,0,0)" stroke="none" style="white-space: pre">0.1</tspan></tspan></tspan></text>
 <text class="SVGTextShape"><tspan class="TextParagraph"><tspan class="TextPosition" x="308" y="12595"><tspan font-family="Liberation Sans, sans-serif" font-size="353px" font-weight="400" fill="rgb(0,0,0)" stroke="none" style="white-space: pre">0.12</tspan></tspan></tspan></text>
 <text class="SVGTextShape"><tspan class="TextParagraph"><tspan class="TextPosition" x="308" y="11835"><tspan font-family="Liberation Sans, sans-serif" font-size="353px" font-weight="400" fill="rgb(0,0,0)" stroke="none" style="white-space: pre">0.14</tspan></tspan></tspan></text>
 <text class="SVGTextShape"><tspan class="TextParagraph"><tspan class="TextPosition" x="308" y="11075"><tspan font-family="Liberation Sans, sans-serif" font-size="353px" font-weight="400" fill="rgb(0,0,0)" stroke="none" style="white-space: pre">0.16</tspan></tspan></tspan></text>
 <text class="SVGTextShape"><tspan class="TextParagraph"><tspan class="TextPosition" x="308" y="10316"><tspan font-family="Liberation Sans, sans-serif" font-size="353px" font-weight="400" fill="rgb(0,0,0)" stroke="none" style="white-space: pre">0.18</tspan></tspan></tspan></text>
 <text class="SVGTextShape"><tspan class="TextParagraph"><tspan class="TextPosition" x="499" y="9556"><tspan font-family="Liberation Sans, sans-serif" font-size="353px" font-weight="400" fill="rgb(0,0,0)" stroke="none" style="white-space: pre">0.2</tspan></tspan></tspan></text>
 <text class="SVGTextShape"><tspan class="TextParagraph"><tspan class="TextPosition" x="308" y="8797"><tspan font-family="Liberation Sans, sans-serif" font-size="353px" font-weight="400" fill="rgb(0,0,0)" stroke="none" style="white-space: pre">0.22</tspan></tspan></tspan></text>
 <text class="SVGTextShape"><tspan class="TextParagraph"><tspan class="TextPosition" x="308" y="8038"><tspan font-family="Liberation Sans, sans-serif" font-size="353px" font-weight="400" fill="rgb(0,0,0)" stroke="none" style="white-space: pre">0.24</tspan></tspan></tspan></text>
 <text class="SVGTextShape"><tspan class="TextParagraph"><tspan class="TextPosition" x="308" y="7278"><tspan font-family="Liberation Sans, sans-serif" font-size="353px" font-weight="400" fill="rgb(0,0,0)" stroke="none" style="white-space: pre">0.26</tspan></tspan></tspan></text>
 <text class="SVGTextShape"><tspan class="TextParagraph"><tspan class="TextPosition" x="308" y="6518"><tspan font-family="Liberation Sans, sans-serif" font-size="353px" font-weight="400" fill="rgb(0,0,0)" stroke="none" style="white-space: pre">0.28</tspan></tspan></tspan></text>
 <text class="SVGTextShape"><tspan class="TextParagraph"><tspan class="TextPosition" x="499" y="5759"><tspan font-family="Liberation Sans, sans-serif" font-size="353px" font-weight="400" fill="rgb(0,0,0)" stroke="none" style="white-space: pre">0.3</tspan></tspan></tspan></text>
 <text class="SVGTextShape"><tspan class="TextParagraph"><tspan class="TextPosition" x="308" y="4999"><tspan font-family="Liberation Sans, sans-serif" font-size="353px" font-weight="400" fill="rgb(0,0,0)" stroke="none" style="white-space: pre">0.32</tspan></tspan></tspan></text>
 <text class="SVGTextShape"><tspan class="TextParagraph"><tspan class="TextPosition" x="308" y="4239"><tspan font-family="Liberation Sans, sans-serif" font-size="353px" font-weight="400" fill="rgb(0,0,0)" stroke="none" style="white-space: pre">0.34</tspan></tspan></tspan></text>
 <text class="SVGTextShape"><tspan class="TextParagraph"><tspan class="TextPosition" x="308" y="3480"><tspan font-family="Liberation Sans, sans-serif" font-size="353px" font-weight="400" fill="rgb(0,0,0)" stroke="none" style="white-space: pre">0.36</tspan></tspan></tspan></text>
 <text class="SVGTextShape"><tspan class="TextParagraph"><tspan class="TextPosition" x="308" y="2720"><tspan font-family="Liberation Sans, sans-serif" font-size="353px" font-weight="400" fill="rgb(0,0,0)" stroke="none" style="white-space: pre">0.38</tspan></tspan></tspan></text>
 <text class="SVGTextShape"><tspan class="TextParagraph"><tspan class="TextPosition" x="499" y="1961"><tspan font-family="Liberation Sans, sans-serif" font-size="353px" font-weight="400" fill="rgb(0,0,0)" stroke="none" style="white-space: pre">0.4</tspan></tspan></tspan></text>
 <text class="SVGTextShape"><tspan class="TextParagraph"><tspan class="TextPosition" x="3320" y="1029"><tspan font-family="Liberation Sans, sans-serif" font-size="459px" font-weight="400" fill="rgb(0,0,0)" stroke="none" style="white-space: pre">Относительная неточность ln(1 + x), 4 члена</tspan></tspan></tspan></text>
 <path fill="none" stroke="rgb(0,69,134)" stroke-width="80" stroke-linejoin="round" d="M 12083,8987 L 12883,8987 "/>
 <path fill="none" stroke="rgb(255,66,14)" stroke-width="80" stroke-linejoin="round" d="M 12083,9484 L 12883,9484 "/>
 <text class="SVGTextShape"><tspan class="TextParagraph"><tspan class="TextPosition" x="12983" y="9107"><tspan font-family="Liberation Sans, sans-serif" font-size="353px" font-weight="400" fill="rgb(0,0,0)" stroke="none" style="white-space: pre">Обратная сумма</tspan></tspan></tspan></text>
 <text class="SVGTextShape"><tspan class="TextParagraph"><tspan class="TextPosition" x="12983" y="9604"><tspan font-family="Liberation Sans, sans-serif" font-size="353px" font-weight="400" fill="rgb(0,0,0)" stroke="none" style="white-space: pre">Прямая сумма</tspan></tspan></tspan></text>
</svg>