<?xml version="1.0" encoding="UTF-8"?>
<!DOCTYPE svg PUBLIC "-//W3C//DTD SVG 1.1//EN" "http://www.w3.org/Graphics/SVG/1.1/DTD/svg11.dtd">
<svg width="160mm" height="185mm" viewBox="0 0 16000 18500" version="1.1" xmlns="http://www.w3.org/2000/svg" xmlns:xlink="http://www.w3.org/1999/xlink" stroke-width="28.222" stroke-linejoin="round" xml:space="preserve">
 <path fill="rgb(255,255,255)" stroke="none" d="M 7987,18487 L -13,18487 -13,-13 15987,-13 15987,18487 7987,18487 Z "/>
 <path fill="none" stroke="rgb(179,179,179)" stroke-linejoin="round" d="M 6705,17032 L 1763,17032 1763,1841 11647,1841 11647,17032 6705,17032 Z "/>
 <path fill="none" stroke="rgb(179,179,179)" stroke-linejoin="round" d="M 11647,17031 L 1763,17031 "/>
 <path fill="none" stroke="rgb(179,179,179)" stroke-linejoin="round" d="M 11647,15765 L 1763,15765 "/>
 <path fill="none" stroke="rgb(179,179,179)" stroke-linejoin="round" d="M 11647,14499 L 1763,14499 "/>
 <path fill="none" stroke="rgb(179,179,179)" stroke-linejoin="round" d="M 11647,13233 L 1763,13233 "/>
 <path fill="none" stroke="rgb(179,179,179)" stroke-linejoin="round" d="M 11647,11967 L 1763,11967 "/>
 <path fill="none" stroke="rgb(179,179,179)" stroke-linejoin="round" d="M 11647,10700 L 1763,10700 "/>
 <path fill="none" stroke="rgb(179,179,179)" stroke-linejoin="round" d="M 11647,9434 L 1763,9434 "/>
 <path fill="none" stroke="rgb(179,179,179)" stroke-linejoin="round" d="M 11647,8169 L 1763,8169 "/>
 <path fill="none" stroke="rgb(179,179,179)" stroke-linejoin="round" d="M 11647,6903 L 1763,6903 "/>
 <path fill="none" stroke="rgb(179,179,179)" stroke-linejoin="round" d="M 11647,5637 L 1763,5637 "/>
 <path fill="none" stroke="rgb(179,179,179)" stroke-linejoin="round" d="M 11647,4371 L 1763,4371 "/>
 <path fill="none" stroke="rgb(179,179,179)" stroke-linejoin="round" d="M 11647,3105 L 1763,3105 "/>
 <path fill="none" stroke="rgb(179,179,179)" stroke-linejoin="round" d="M 11647,1839 L 1763,1839 "/>
 <path fill="none" stroke="rgb(179,179,179)" stroke-linejoin="round" d="M 1763,17181 L 1763,17031 "/>
 <path fill="none" stroke="rgb(179,179,179)" stroke-linejoin="round" d="M 1763,17181 L 1763,17031 "/>
 <path fill="none" stroke="rgb(179,179,179)" stroke-linejoin="round" d="M 2004,17181 L 2004,17031 "/>
 <path fill="none" stroke="rgb(179,179,179)" stroke-linejoin="round" d="M 2004,17181 L 2004,17031 "/>
 <path fill="none" stroke="rgb(179,179,179)" stroke-linejoin="round" d="M 2245,17181 L 2245,17031 "/>
 <path fill="none" stroke="rgb(179,179,179)" stroke-linejoin="round" d="M 2245,17181 L 2245,17031 "/>
 <path fill="none" stroke="rgb(179,179,179)" stroke-linejoin="round" d="M 2486,17181 L 2486,17031 "/>
 <path fill="none" stroke="rgb(179,179,179)" stroke-linejoin="round" d="M 2486,17181 L 2486,17031 "/>
 <path fill="none" stroke="rgb(179,179,179)" stroke-linejoin="round" d="M 2727,17181 L 2727,17031 "/>
 <path fill="none" stroke="rgb(179,179,179)" stroke-linejoin="round" d="M 2727,17181 L 2727,17031 "/>
 <path fill="none" stroke="rgb(179,179,179)" stroke-linejoin="round" d="M 2968,17181 L 2968,17031 "/>
 <path fill="none" stroke="rgb(179,179,179)" stroke-linejoin="round" d="M 2968,17181 L 2968,17031 "/>
 <path fill="none" stroke="rgb(179,179,179)" stroke-linejoin="round" d="M 3209,17181 L 3209,17031 "/>
 <path fill="none" stroke="rgb(179,179,179)" stroke-linejoin="round" d="M 3209,17181 L 3209,17031 "/>
 <path fill="none" stroke="rgb(179,179,179)" stroke-linejoin="round" d="M 3450,17181 L 3450,17031 "/>
 <path fill="none" stroke="rgb(179,179,179)" stroke-linejoin="round" d="M 3450,17181 L 3450,17031 "/>
 <path fill="none" stroke="rgb(179,179,179)" stroke-linejoin="round" d="M 3691,17181 L 3691,17031 "/>
 <path fill="none" stroke="rgb(179,179,179)" stroke-linejoin="round" d="M 3691,17181 L 3691,17031 "/>
 <path fill="none" stroke="rgb(179,179,179)" stroke-linejoin="round" d="M 3932,17181 L 3932,17031 "/>
 <path fill="none" stroke="rgb(179,179,179)" stroke-linejoin="round" d="M 3932,17181 L 3932,17031 "/>
 <path fill="none" stroke="rgb(179,179,179)" stroke-linejoin="round" d="M 4173,17181 L 4173,17031 "/>
 <path fill="none" stroke="rgb(179,179,179)" stroke-linejoin="round" d="M 4173,17181 L 4173,17031 "/>
 <path fill="none" stroke="rgb(179,179,179)" stroke-linejoin="round" d="M 4415,17181 L 4415,17031 "/>
 <path fill="none" stroke="rgb(179,179,179)" stroke-linejoin="round" d="M 4415,17181 L 4415,17031 "/>
 <path fill="none" stroke="rgb(179,179,179)" stroke-linejoin="round" d="M 4656,17181 L 4656,17031 "/>
 <path fill="none" stroke="rgb(179,179,179)" stroke-linejoin="round" d="M 4656,17181 L 4656,17031 "/>
 <path fill="none" stroke="rgb(179,179,179)" stroke-linejoin="round" d="M 4897,17181 L 4897,17031 "/>
 <path fill="none" stroke="rgb(179,179,179)" stroke-linejoin="round" d="M 4897,17181 L 4897,17031 "/>
 <path fill="none" stroke="rgb(179,179,179)" stroke-linejoin="round" d="M 5138,17181 L 5138,17031 "/>
 <path fill="none" stroke="rgb(179,179,179)" stroke-linejoin="round" d="M 5138,17181 L 5138,17031 "/>
 <path fill="none" stroke="rgb(179,179,179)" stroke-linejoin="round" d="M 5379,17181 L 5379,17031 "/>
 <path fill="none" stroke="rgb(179,179,179)" stroke-linejoin="round" d="M 5379,17181 L 5379,17031 "/>
 <path fill="none" stroke="rgb(179,179,179)" stroke-linejoin="round" d="M 5620,17181 L 5620,17031 "/>
 <path fill="none" stroke="rgb(179,179,179)" stroke-linejoin="round" d="M 5620,17181 L 5620,17031 "/>
 <path fill="none" stroke="rgb(179,179,179)" stroke-linejoin="round" d="M 5861,17181 L 5861,17031 "/>
 <path fill="none" stroke="rgb(179,179,179)" stroke-linejoin="round" d="M 5861,17181 L 5861,17031 "/>
 <path fill="none" stroke="rgb(179,179,179)" stroke-linejoin="round" d="M 6102,17181 L 6102,17031 "/>
 <path fill="none" stroke="rgb(179,179,179)" stroke-linejoin="round" d="M 6102,17181 L 6102,17031 "/>
 <path fill="none" stroke="rgb(179,179,179)" stroke-linejoin="round" d="M 6343,17181 L 6343,17031 "/>
 <path fill="none" stroke="rgb(179,179,179)" stroke-linejoin="round" d="M 6343,17181 L 6343,17031 "/>
 <path fill="none" stroke="rgb(179,179,179)" stroke-linejoin="round" d="M 6584,17181 L 6584,17031 "/>
 <path fill="none" stroke="rgb(179,179,179)" stroke-linejoin="round" d="M 6584,17181 L 6584,17031 "/>
 <path fill="none" stroke="rgb(179,179,179)" stroke-linejoin="round" d="M 6826,17181 L 6826,17031 "/>
 <path fill="none" stroke="rgb(179,179,179)" stroke-linejoin="round" d="M 6826,17181 L 6826,17031 "/>
 <path fill="none" stroke="rgb(179,179,179)" stroke-linejoin="round" d="M 7067,17181 L 7067,17031 "/>
 <path fill="none" stroke="rgb(179,179,179)" stroke-linejoin="round" d="M 7067,17181 L 7067,17031 "/>
 <path fill="none" stroke="rgb(179,179,179)" stroke-linejoin="round" d="M 7308,17181 L 7308,17031 "/>
 <path fill="none" stroke="rgb(179,179,179)" stroke-linejoin="round" d="M 7308,17181 L 7308,17031 "/>
 <path fill="none" stroke="rgb(179,179,179)" stroke-linejoin="round" d="M 7549,17181 L 7549,17031 "/>
 <path fill="none" stroke="rgb(179,179,179)" stroke-linejoin="round" d="M 7549,17181 L 7549,17031 "/>
 <path fill="none" stroke="rgb(179,179,179)" stroke-linejoin="round" d="M 7790,17181 L 7790,17031 "/>
 <path fill="none" stroke="rgb(179,179,179)" stroke-linejoin="round" d="M 7790,17181 L 7790,17031 "/>
 <path fill="none" stroke="rgb(179,179,179)" stroke-linejoin="round" d="M 8030,17181 L 8030,17031 "/>
 <path fill="none" stroke="rgb(179,179,179)" stroke-linejoin="round" d="M 8030,17181 L 8030,17031 "/>
 <path fill="none" stroke="rgb(179,179,179)" stroke-linejoin="round" d="M 8271,17181 L 8271,17031 "/>
 <path fill="none" stroke="rgb(179,179,179)" stroke-linejoin="round" d="M 8271,17181 L 8271,17031 "/>
 <path fill="none" stroke="rgb(179,179,179)" stroke-linejoin="round" d="M 8512,17181 L 8512,17031 "/>
 <path fill="none" stroke="rgb(179,179,179)" stroke-linejoin="round" d="M 8512,17181 L 8512,17031 "/>
 <path fill="none" stroke="rgb(179,179,179)" stroke-linejoin="round" d="M 8753,17181 L 8753,17031 "/>
 <path fill="none" stroke="rgb(179,179,179)" stroke-linejoin="round" d="M 8753,17181 L 8753,17031 "/>
 <path fill="none" stroke="rgb(179,179,179)" stroke-linejoin="round" d="M 8994,17181 L 8994,17031 "/>
 <path fill="none" stroke="rgb(179,179,179)" stroke-linejoin="round" d="M 8994,17181 L 8994,17031 "/>
 <path fill="none" stroke="rgb(179,179,179)" stroke-linejoin="round" d="M 9236,17181 L 9236,17031 "/>
 <path fill="none" stroke="rgb(179,179,179)" stroke-linejoin="round" d="M 9236,17181 L 9236,17031 "/>
 <path fill="none" stroke="rgb(179,179,179)" stroke-linejoin="round" d="M 9477,17181 L 9477,17031 "/>
 <path fill="none" stroke="rgb(179,179,179)" stroke-linejoin="round" d="M 9477,17181 L 9477,17031 "/>
 <path fill="none" stroke="rgb(179,179,179)" stroke-linejoin="round" d="M 9718,17181 L 9718,17031 "/>
 <path fill="none" stroke="rgb(179,179,179)" stroke-linejoin="round" d="M 9718,17181 L 9718,17031 "/>
 <path fill="none" stroke="rgb(179,179,179)" stroke-linejoin="round" d="M 9959,17181 L 9959,17031 "/>
 <path fill="none" stroke="rgb(179,179,179)" stroke-linejoin="round" d="M 9959,17181 L 9959,17031 "/>
 <path fill="none" stroke="rgb(179,179,179)" stroke-linejoin="round" d="M 10200,17181 L 10200,17031 "/>
 <path fill="none" stroke="rgb(179,179,179)" stroke-linejoin="round" d="M 10200,17181 L 10200,17031 "/>
 <path fill="none" stroke="rgb(179,179,179)" stroke-linejoin="round" d="M 10441,17181 L 10441,17031 "/>
 <path fill="none" stroke="rgb(179,179,179)" stroke-linejoin="round" d="M 10441,17181 L 10441,17031 "/>
 <path fill="none" stroke="rgb(179,179,179)" stroke-linejoin="round" d="M 10682,17181 L 10682,17031 "/>
 <path fill="none" stroke="rgb(179,179,179)" stroke-linejoin="round" d="M 10682,17181 L 10682,17031 "/>
 <path fill="none" stroke="rgb(179,179,179)" stroke-linejoin="round" d="M 10923,17181 L 10923,17031 "/>
 <path fill="none" stroke="rgb(179,179,179)" stroke-linejoin="round" d="M 10923,17181 L 10923,17031 "/>
 <path fill="none" stroke="rgb(179,179,179)" stroke-linejoin="round" d="M 11164,17181 L 11164,17031 "/>
 <path fill="none" stroke="rgb(179,179,179)" stroke-linejoin="round" d="M 11164,17181 L 11164,17031 "/>
 <path fill="none" stroke="rgb(179,179,179)" stroke-linejoin="round" d="M 11405,17181 L 11405,17031 "/>
 <path fill="none" stroke="rgb(179,179,179)" stroke-linejoin="round" d="M 11405,17181 L 11405,17031 "/>
 <path fill="none" stroke="rgb(179,179,179)" stroke-linejoin="round" d="M 11647,17181 L 11647,17031 "/>
 <path fill="none" stroke="rgb(179,179,179)" stroke-linejoin="round" d="M 11647,17181 L 11647,17031 "/>
 <path fill="none" stroke="rgb(179,179,179)" stroke-linejoin="round" d="M 1763,17031 L 11647,17031 "/>
 <path fill="none" stroke="rgb(179,179,179)" stroke-linejoin="round" d="M 1613,17031 L 1763,17031 "/>
 <path fill="none" stroke="rgb(179,179,179)" stroke-linejoin="round" d="M 1613,17031 L 1763,17031 "/>
 <path fill="none" stroke="rgb(179,179,179)" stroke-linejoin="round" d="M 1613,15765 L 1763,15765 "/>
 <path fill="none" stroke="rgb(179,179,179)" stroke-linejoin="round" d="M 1613,15765 L 1763,15765 "/>
 <path fill="none" stroke="rgb(179,179,179)" stroke-linejoin="round" d="M 1613,14499 L 1763,14499 "/>
 <path fill="none" stroke="rgb(179,179,179)" stroke-linejoin="round" d="M 1613,14499 L 1763,14499 "/>
 <path fill="none" stroke="rgb(179,179,179)" stroke-linejoin="round" d="M 1613,13233 L 1763,13233 "/>
 <path fill="none" stroke="rgb(179,179,179)" stroke-linejoin="round" d="M 1613,13233 L 1763,13233 "/>
 <path fill="none" stroke="rgb(179,179,179)" stroke-linejoin="round" d="M 1613,11966 L 1763,11966 "/>
 <path fill="none" stroke="rgb(179,179,179)" stroke-linejoin="round" d="M 1613,11966 L 1763,11966 "/>
 <path fill="none" stroke="rgb(179,179,179)" stroke-linejoin="round" d="M 1613,10700 L 1763,10700 "/>
 <path fill="none" stroke="rgb(179,179,179)" stroke-linejoin="round" d="M 1613,10700 L 1763,10700 "/>
 <path fill="none" stroke="rgb(179,179,179)" stroke-linejoin="round" d="M 1613,9434 L 1763,9434 "/>
 <path fill="none" stroke="rgb(179,179,179)" stroke-linejoin="round" d="M 1613,9434 L 1763,9434 "/>
 <path fill="none" stroke="rgb(179,179,179)" stroke-linejoin="round" d="M 1613,8169 L 1763,8169 "/>
 <path fill="none" stroke="rgb(179,179,179)" stroke-linejoin="round" d="M 1613,8169 L 1763,8169 "/>
 <path fill="none" stroke="rgb(179,179,179)" stroke-linejoin="round" d="M 1613,6903 L 1763,6903 "/>
 <path fill="none" stroke="rgb(179,179,179)" stroke-linejoin="round" d="M 1613,6903 L 1763,6903 "/>
 <path fill="none" stroke="rgb(179,179,179)" stroke-linejoin="round" d="M 1613,5637 L 1763,5637 "/>
 <path fill="none" stroke="rgb(179,179,179)" stroke-linejoin="round" d="M 1613,5637 L 1763,5637 "/>
 <path fill="none" stroke="rgb(179,179,179)" stroke-linejoin="round" d="M 1613,4371 L 1763,4371 "/>
 <path fill="none" stroke="rgb(179,179,179)" stroke-linejoin="round" d="M 1613,4371 L 1763,4371 "/>
 <path fill="none" stroke="rgb(179,179,179)" stroke-linejoin="round" d="M 1613,3105 L 1763,3105 "/>
 <path fill="none" stroke="rgb(179,179,179)" stroke-linejoin="round" d="M 1613,3105 L 1763,3105 "/>
 <path fill="none" stroke="rgb(179,179,179)" stroke-linejoin="round" d="M 1613,1839 L 1763,1839 "/>
 <path fill="none" stroke="rgb(179,179,179)" stroke-linejoin="round" d="M 1613,1839 L 1763,1839 "/>
 <path fill="none" stroke="rgb(179,179,179)" stroke-linejoin="round" d="M 1763,17031 L 1763,1839 "/>
 <path fill="none" stroke="rgb(0,69,134)" stroke-width="80" stroke-linejoin="round" d="M 1763,3542 L 2004,12465 2245,15437 2486,17031 2727,17031 2968,17031 3209,17031 3450,17031 3691,17031 3932,17031 4173,17031 4415,17031 4656,17031 4897,17031 5138,17031 5379,17031 5620,17031 5861,17031 6102,17031 6343,17031 6584,17031 6826,17031 7067,17031 7308,17031 7549,17031 7790,17031 8030,17031 8271,17031 8512,17031 8753,17031 8994,17031 9236,17031 9477,17031 9718,17031 9959,17031 10200,17031 10441,17031 10682,17031 10923,17031 11164,16247 11405,14607 11647,9993 "/>
 <path fill="none" stroke="rgb(255,66,14)" stroke-width="80" stroke-linejoin="round" d="M 1763,3542 L 2004,12603 2245,15437 2486,17031 2727,17031 2968,17031 3209,17031 3450,17031 3691,17031 3932,17031 4173,17031 4415,17031 4656,17031 4897,17031 5138,17031 5379,17031 5620,17031 5861,17031 6102,17031 6343,17031 6584,17031 6826,17031 7067,17031 7308,17031 7549,17031 7790,17031 8030,17031 8271,17031 8512,17031 8753,17031 8994,17031 9236,17031 9477,17031 9718,17031 9959,17031 10200,17031 10441,17031 10682,17031 10923,17031 11164,16247 11405,14607 11647,9993 "/>
 <text class="SVGTextShape" transform="rotate(-45 1292 18060)"><tspan class="TextParagraph"><tspan class="TextPosition" x="1292" y="18060"><tspan font-family="Liberation Sans, sans-serif" font-size="353px" font-weight="400" fill="rgb(0,0,0)" stroke="none" style="white-space: pre">-2.08</tspan></tspan></tspan></text>
 <text class="SVGTextShape" transform="rotate(-45 2015 18060)"><tspan class="TextParagraph"><tspan class="TextPosition" x="2015" y="18060"><tspan font-family="Liberation Sans, sans-serif" font-size="353px" font-weight="400" fill="rgb(0,0,0)" stroke="none" style="white-space: pre">-1.78</tspan></tspan></tspan></text>
 <text class="SVGTextShape" transform="rotate(-45 2738 18060)"><tspan class="TextParagraph"><tspan class="TextPosition" x="2738" y="18060"><tspan font-family="Liberation Sans, sans-serif" font-size="353px" font-weight="400" fill="rgb(0,0,0)" stroke="none" style="white-space: pre">-1.48</tspan></tspan></tspan></text>
 <text class="SVGTextShape" transform="rotate(-45 3461 18060)"><tspan class="TextParagraph"><tspan class="TextPosition" x="3461" y="18060"><tspan font-family="Liberation Sans, sans-serif" font-size="353px" font-weight="400" fill="rgb(0,0,0)" stroke="none" style="white-space: pre">-1.18</tspan></tspan></tspan></text>
 <text class="SVGTextShape" transform="rotate(-45 4185 18060)"><tspan class="TextParagraph"><tspan class="TextPosition" x="4185" y="18060"><tspan font-family="Liberation Sans, sans-serif" font-size="353px" font-weight="400" fill="rgb(0,0,0)" stroke="none" style="white-space: pre">-0.88</tspan></tspan></tspan></text>
 <text class="SVGTextShape" transform="rotate(-45 4908 18060)"><tspan class="TextParagraph"><tspan class="TextPosition" x="4908" y="18060"><tspan font-family="Liberation Sans, sans-serif" font-size="353px" font-weight="400" fill="rgb(0,0,0)" stroke="none" style="white-space: pre">-0.58</tspan></tspan></tspan></text>
 <text class="SVGTextShape" transform="rotate(-45 5631 18060)"><tspan class="TextParagraph"><tspan class="TextPosition" x="5631" y="18060"><tspan font-family="Liberation Sans, sans-serif" font-size="353px" font-weight="400" fill="rgb(0,0,0)" stroke="none" style="white-space: pre">-0.28</tspan></tspan></tspan></text>
 <text class="SVGTextShape" transform="rotate(-45 6436 17980)"><tspan class="TextParagraph"><tspan class="TextPosition" x="6436" y="17980"><tspan font-family="Liberation Sans, sans-serif" font-size="353px" font-weight="400" fill="rgb(0,0,0)" stroke="none" style="white-space: pre">0.02</tspan></tspan></tspan></text>
 <text class="SVGTextShape" transform="rotate(-45 7159 17980)"><tspan class="TextParagraph"><tspan class="TextPosition" x="7159" y="17980"><tspan font-family="Liberation Sans, sans-serif" font-size="353px" font-weight="400" fill="rgb(0,0,0)" stroke="none" style="white-space: pre">0.32</tspan></tspan></tspan></text>
 <text class="SVGTextShape" transform="rotate(-45 7882 17980)"><tspan class="TextParagraph"><tspan class="TextPosition" x="7882" y="17980"><tspan font-family="Liberation Sans, sans-serif" font-size="353px" font-weight="400" fill="rgb(0,0,0)" stroke="none" style="white-space: pre">0.62</tspan></tspan></tspan></text>
 <text class="SVGTextShape" transform="rotate(-45 8604 17980)"><tspan class="TextParagraph"><tspan class="TextPosition" x="8604" y="17980"><tspan font-family="Liberation Sans, sans-serif" font-size="353px" font-weight="400" fill="rgb(0,0,0)" stroke="none" style="white-space: pre">0.92</tspan></tspan></tspan></text>
 <text class="SVGTextShape" transform="rotate(-45 9328 17980)"><tspan class="TextParagraph"><tspan class="TextPosition" x="9328" y="17980"><tspan font-family="Liberation Sans, sans-serif" font-size="353px" font-weight="400" fill="rgb(0,0,0)" stroke="none" style="white-space: pre">1.22</tspan></tspan></tspan></text>
 <text class="SVGTextShape" transform="rotate(-45 10051 17980)"><tspan class="TextParagraph"><tspan class="TextPosition" x="10051" y="17980"><tspan font-family="Liberation Sans, sans-serif" font-size="353px" font-weight="400" fill="rgb(0,0,0)" stroke="none" style="white-space: pre">1.52</tspan></tspan></tspan></text>
 <text class="SVGTextShape" transform="rotate(-45 10774 17980)"><tspan class="TextParagraph"><tspan class="TextPosition" x="10774" y="17980"><tspan font-family="Liberation Sans, sans-serif" font-size="353px" font-weight="400" fill="rgb(0,0,0)" stroke="none" style="white-space: pre">1.82</tspan></tspan></tspan></text>
 <text class="SVGTextShape"><tspan class="TextParagraph"><tspan class="TextPosition" x="1322" y="17152"><tspan font-family="Liberation Sans, sans-serif" font-size="353px" font-weight="400" fill="rgb(0,0,0)" stroke="none" style="white-space: pre">0</tspan></tspan></tspan></text>
 <text class="SVGTextShape"><tspan class="TextParagraph"><tspan class="TextPosition" x="595" y="15886"><tspan font-family="Liberation Sans, sans-serif" font-size="353px" font-weight="400" fill="rgb(0,0,0)" stroke="none" style="white-space: pre">1E-14</tspan></tspan></tspan></text>
 <text class="SVGTextShape"><tspan class="TextParagraph"><tspan class="TextPosition" x="595" y="14620"><tspan font-family="Liberation Sans, sans-serif" font-size="353px" font-weight="400" fill="rgb(0,0,0)" stroke="none" style="white-space: pre">2E-14</tspan></tspan></tspan></text>
 <text class="SVGTextShape"><tspan class="TextParagraph"><tspan class="TextPosition" x="595" y="13354"><tspan font-family="Liberation Sans, sans-serif" font-size="353px" font-weight="400" fill="rgb(0,0,0)" stroke="none" style="white-space: pre">3E-14</tspan></tspan></tspan></text>
 <text class="SVGTextShape"><tspan class="TextParagraph"><tspan class="TextPosition" x="595" y="12087"><tspan font-family="Liberation Sans, sans-serif" font-size="353px" font-weight="400" fill="rgb(0,0,0)" stroke="none" style="white-space: pre">4E-14</tspan></tspan></tspan></text>
 <text class="SVGTextShape"><tspan class="TextParagraph"><tspan class="TextPosition" x="595" y="10821"><tspan font-family="Liberation Sans, sans-serif" font-size="353px" font-weight="400" fill="rgb(0,0,0)" stroke="none" style="white-space: pre">5E-14</tspan></tspan></tspan></text>
 <text class="SVGTextShape"><tspan class="TextParagraph"><tspan class="TextPosition" x="595" y="9555"><tspan font-family="Liberation Sans, sans-serif" font-size="353px" font-weight="400" fill="rgb(0,0,0)" stroke="none" style="white-space: pre">6E-14</tspan></tspan></tspan></text>
 <text class="SVGTextShape"><tspan class="TextParagraph"><tspan class="TextPosition" x="595" y="8290"><tspan font-family="Liberation Sans, sans-serif" font-size="353px" font-weight="400" fill="rgb(0,0,0)" stroke="none" style="white-space: pre">7E-14</tspan></tspan></tspan></text>
 <text class="SVGTextShape"><tspan class="TextParagraph"><tspan class="TextPosition" x="595" y="7024"><tspan font-family="Liberation Sans, sans-serif" font-size="353px" font-weight="400" fill="rgb(0,0,0)" stroke="none" style="white-space: pre">8E-14</tspan></tspan></tspan></text>
 <text class="SVGTextShape"><tspan class="TextParagraph"><tspan class="TextPosition" x="595" y="5758"><tspan font-family="Liberation Sans, sans-serif" font-size="353px" font-weight="400" fill="rgb(0,0,0)" stroke="none" style="white-space: pre">9E-14</tspan></tspan></tspan></text>
 <text class="SVGTextShape"><tspan class="TextParagraph"><tspan class="TextPosition" x="595" y="4492"><tspan font-family="Liberation Sans, sans-serif" font-size="353px" font-weight="400" fill="rgb(0,0,0)" stroke="none" style="white-space: pre">1E-13</tspan></tspan></tspan></text>
 <text class="SVGTextShape"><tspan class="TextParagraph"><tspan class="TextPosition" x="308" y="3226"><tspan font-family="Liberation Sans, sans-serif" font-size="353px" font-weight="400" fill="rgb(0,0,0)" stroke="none" style="white-space: pre">1.1E-13</tspan></tspan></tspan></text>
 <text class="SVGTextShape"><tspan class="TextParagraph"><tspan class="TextPosition" x="308" y="1960"><tspan font-family="Liberation Sans, sans-serif" font-size="353px" font-weight="400" fill="rgb(0,0,0)" stroke="none" style="white-space: pre">1.2E-13</tspan></tspan></tspan></text>
 <text class="SVGTextShape"><tspan class="TextParagraph"><tspan class="TextPosition" x="3181" y="1029"><tspan font-family="Liberation Sans, sans-serif" font-size="459px" font-weight="400" fill="rgb(0,0,0)" stroke="none" style="white-space: pre">Относительная неточность синуса, 10 членов</tspan></tspan></tspan></text>
 <path fill="none" stroke="rgb(0,69,134)" stroke-width="80" stroke-linejoin="round" d="M 12083,8987 L 12883,8987 "/>
 <path fill="none" stroke="rgb(255,66,14)" stroke-width="80" stroke-linejoin="round" d="M 12083,9484 L 12883,9484 "/>
 <text class="SVGTextShape"><tspan class="TextParagraph"><tspan class="TextPosition" x="12983" y="9107"><tspan font-family="Liberation Sans, sans-serif" font-size="353px" font-weight="400" fill="rgb(0,0,0)" stroke="none" style="white-space: pre">Обратная сумма</tspan></tspan></tspan></text>
 <text class="SVGTextShape"><tspan class="TextParagraph"><tspan class="TextPosition" x="12983" y="9604"><tspan font-family="Liberation Sans, sans-serif" font-size="353px" font-weight="400" fill="rgb(0,0,0)" stroke="none" style="white-space: pre">Прямая сумма</tspan></tspan></tspan></text>
</svg>