<?xml version="1.0" encoding="UTF-8"?>
<!DOCTYPE svg PUBLIC "-//W3C//DTD SVG 1.1//EN" "http://www.w3.org/Graphics/SVG/1.1/DTD/svg11.dtd">
<svg width="160mm" height="185mm" viewBox="0 0 16000 18500" version="1.1" xmlns="http://www.w3.org/2000/svg" xmlns:xlink="http://www.w3.org/1999/xlink" stroke-width="28.222" stroke-linejoin="round" xml:space="preserve">
 <path fill="rgb(255,255,255)" stroke="none" d="M 7987,18487 L -13,18487 -13,-13 15987,-13 15987,18487 7987,18487 Z "/>
 <path fill="none" stroke="rgb(179,179,179)" stroke-linejoin="round" d="M 6629,17033 L 1610,17033 1610,1842 11647,1842 11647,17033 6629,17033 Z "/>
 <path fill="none" stroke="rgb(179,179,179)" stroke-linejoin="round" d="M 11647,17032 L 1610,17032 "/>
 <path fill="none" stroke="rgb(179,179,179)" stroke-linejoin="round" d="M 11647,16399 L 1610,16399 "/>
 <path fill="none" stroke="rgb(179,179,179)" stroke-linejoin="round" d="M 11647,15766 L 1610,15766 "/>
 <path fill="none" stroke="rgb(179,179,179)" stroke-linejoin="round" d="M 11647,15133 L 1610,15133 "/>
 <path fill="none" stroke="rgb(179,179,179)" stroke-linejoin="round" d="M 11647,14500 L 1610,14500 "/>
 <path fill="none" stroke="rgb(179,179,179)" stroke-linejoin="round" d="M 11647,13867 L 1610,13867 "/>
 <path fill="none" stroke="rgb(179,179,179)" stroke-linejoin="round" d="M 11647,13234 L 1610,13234 "/>
 <path fill="none" stroke="rgb(179,179,179)" stroke-linejoin="round" d="M 11647,12601 L 1610,12601 "/>
 <path fill="none" stroke="rgb(179,179,179)" stroke-linejoin="round" d="M 11647,11968 L 1610,11968 "/>
 <path fill="none" stroke="rgb(179,179,179)" stroke-linejoin="round" d="M 11647,11334 L 1610,11334 "/>
 <path fill="none" stroke="rgb(179,179,179)" stroke-linejoin="round" d="M 11647,10702 L 1610,10702 "/>
 <path fill="none" stroke="rgb(179,179,179)" stroke-linejoin="round" d="M 11647,10068 L 1610,10068 "/>
 <path fill="none" stroke="rgb(179,179,179)" stroke-linejoin="round" d="M 11647,9435 L 1610,9435 "/>
 <path fill="none" stroke="rgb(179,179,179)" stroke-linejoin="round" d="M 11647,8803 L 1610,8803 "/>
 <path fill="none" stroke="rgb(179,179,179)" stroke-linejoin="round" d="M 11647,8170 L 1610,8170 "/>
 <path fill="none" stroke="rgb(179,179,179)" stroke-linejoin="round" d="M 11647,7537 L 1610,7537 "/>
 <path fill="none" stroke="rgb(179,179,179)" stroke-linejoin="round" d="M 11647,6904 L 1610,6904 "/>
 <path fill="none" stroke="rgb(179,179,179)" stroke-linejoin="round" d="M 11647,6271 L 1610,6271 "/>
 <path fill="none" stroke="rgb(179,179,179)" stroke-linejoin="round" d="M 11647,5638 L 1610,5638 "/>
 <path fill="none" stroke="rgb(179,179,179)" stroke-linejoin="round" d="M 11647,5005 L 1610,5005 "/>
 <path fill="none" stroke="rgb(179,179,179)" stroke-linejoin="round" d="M 11647,4372 L 1610,4372 "/>
 <path fill="none" stroke="rgb(179,179,179)" stroke-linejoin="round" d="M 11647,3739 L 1610,3739 "/>
 <path fill="none" stroke="rgb(179,179,179)" stroke-linejoin="round" d="M 11647,3106 L 1610,3106 "/>
 <path fill="none" stroke="rgb(179,179,179)" stroke-linejoin="round" d="M 11647,2473 L 1610,2473 "/>
 <path fill="none" stroke="rgb(179,179,179)" stroke-linejoin="round" d="M 11647,1840 L 1610,1840 "/>
 <path fill="none" stroke="rgb(179,179,179)" stroke-linejoin="round" d="M 1610,17182 L 1610,17032 "/>
 <path fill="none" stroke="rgb(179,179,179)" stroke-linejoin="round" d="M 1610,17182 L 1610,17032 "/>
 <path fill="none" stroke="rgb(179,179,179)" stroke-linejoin="round" d="M 1854,17182 L 1854,17032 "/>
 <path fill="none" stroke="rgb(179,179,179)" stroke-linejoin="round" d="M 1854,17182 L 1854,17032 "/>
 <path fill="none" stroke="rgb(179,179,179)" stroke-linejoin="round" d="M 2099,17182 L 2099,17032 "/>
 <path fill="none" stroke="rgb(179,179,179)" stroke-linejoin="round" d="M 2099,17182 L 2099,17032 "/>
 <path fill="none" stroke="rgb(179,179,179)" stroke-linejoin="round" d="M 2344,17182 L 2344,17032 "/>
 <path fill="none" stroke="rgb(179,179,179)" stroke-linejoin="round" d="M 2344,17182 L 2344,17032 "/>
 <path fill="none" stroke="rgb(179,179,179)" stroke-linejoin="round" d="M 2589,17182 L 2589,17032 "/>
 <path fill="none" stroke="rgb(179,179,179)" stroke-linejoin="round" d="M 2589,17182 L 2589,17032 "/>
 <path fill="none" stroke="rgb(179,179,179)" stroke-linejoin="round" d="M 2834,17182 L 2834,17032 "/>
 <path fill="none" stroke="rgb(179,179,179)" stroke-linejoin="round" d="M 2834,17182 L 2834,17032 "/>
 <path fill="none" stroke="rgb(179,179,179)" stroke-linejoin="round" d="M 3078,17182 L 3078,17032 "/>
 <path fill="none" stroke="rgb(179,179,179)" stroke-linejoin="round" d="M 3078,17182 L 3078,17032 "/>
 <path fill="none" stroke="rgb(179,179,179)" stroke-linejoin="round" d="M 3323,17182 L 3323,17032 "/>
 <path fill="none" stroke="rgb(179,179,179)" stroke-linejoin="round" d="M 3323,17182 L 3323,17032 "/>
 <path fill="none" stroke="rgb(179,179,179)" stroke-linejoin="round" d="M 3568,17182 L 3568,17032 "/>
 <path fill="none" stroke="rgb(179,179,179)" stroke-linejoin="round" d="M 3568,17182 L 3568,17032 "/>
 <path fill="none" stroke="rgb(179,179,179)" stroke-linejoin="round" d="M 3813,17182 L 3813,17032 "/>
 <path fill="none" stroke="rgb(179,179,179)" stroke-linejoin="round" d="M 3813,17182 L 3813,17032 "/>
 <path fill="none" stroke="rgb(179,179,179)" stroke-linejoin="round" d="M 4058,17182 L 4058,17032 "/>
 <path fill="none" stroke="rgb(179,179,179)" stroke-linejoin="round" d="M 4058,17182 L 4058,17032 "/>
 <path fill="none" stroke="rgb(179,179,179)" stroke-linejoin="round" d="M 4303,17182 L 4303,17032 "/>
 <path fill="none" stroke="rgb(179,179,179)" stroke-linejoin="round" d="M 4303,17182 L 4303,17032 "/>
 <path fill="none" stroke="rgb(179,179,179)" stroke-linejoin="round" d="M 4547,17182 L 4547,17032 "/>
 <path fill="none" stroke="rgb(179,179,179)" stroke-linejoin="round" d="M 4547,17182 L 4547,17032 "/>
 <path fill="none" stroke="rgb(179,179,179)" stroke-linejoin="round" d="M 4792,17182 L 4792,17032 "/>
 <path fill="none" stroke="rgb(179,179,179)" stroke-linejoin="round" d="M 4792,17182 L 4792,17032 "/>
 <path fill="none" stroke="rgb(179,179,179)" stroke-linejoin="round" d="M 5037,17182 L 5037,17032 "/>
 <path fill="none" stroke="rgb(179,179,179)" stroke-linejoin="round" d="M 5037,17182 L 5037,17032 "/>
 <path fill="none" stroke="rgb(179,179,179)" stroke-linejoin="round" d="M 5282,17182 L 5282,17032 "/>
 <path fill="none" stroke="rgb(179,179,179)" stroke-linejoin="round" d="M 5282,17182 L 5282,17032 "/>
 <path fill="none" stroke="rgb(179,179,179)" stroke-linejoin="round" d="M 5527,17182 L 5527,17032 "/>
 <path fill="none" stroke="rgb(179,179,179)" stroke-linejoin="round" d="M 5527,17182 L 5527,17032 "/>
 <path fill="none" stroke="rgb(179,179,179)" stroke-linejoin="round" d="M 5772,17182 L 5772,17032 "/>
 <path fill="none" stroke="rgb(179,179,179)" stroke-linejoin="round" d="M 5772,17182 L 5772,17032 "/>
 <path fill="none" stroke="rgb(179,179,179)" stroke-linejoin="round" d="M 6016,17182 L 6016,17032 "/>
 <path fill="none" stroke="rgb(179,179,179)" stroke-linejoin="round" d="M 6016,17182 L 6016,17032 "/>
 <path fill="none" stroke="rgb(179,179,179)" stroke-linejoin="round" d="M 6261,17182 L 6261,17032 "/>
 <path fill="none" stroke="rgb(179,179,179)" stroke-linejoin="round" d="M 6261,17182 L 6261,17032 "/>
 <path fill="none" stroke="rgb(179,179,179)" stroke-linejoin="round" d="M 6506,17182 L 6506,17032 "/>
 <path fill="none" stroke="rgb(179,179,179)" stroke-linejoin="round" d="M 6506,17182 L 6506,17032 "/>
 <path fill="none" stroke="rgb(179,179,179)" stroke-linejoin="round" d="M 6751,17182 L 6751,17032 "/>
 <path fill="none" stroke="rgb(179,179,179)" stroke-linejoin="round" d="M 6751,17182 L 6751,17032 "/>
 <path fill="none" stroke="rgb(179,179,179)" stroke-linejoin="round" d="M 6996,17182 L 6996,17032 "/>
 <path fill="none" stroke="rgb(179,179,179)" stroke-linejoin="round" d="M 6996,17182 L 6996,17032 "/>
 <path fill="none" stroke="rgb(179,179,179)" stroke-linejoin="round" d="M 7241,17182 L 7241,17032 "/>
 <path fill="none" stroke="rgb(179,179,179)" stroke-linejoin="round" d="M 7241,17182 L 7241,17032 "/>
 <path fill="none" stroke="rgb(179,179,179)" stroke-linejoin="round" d="M 7485,17182 L 7485,17032 "/>
 <path fill="none" stroke="rgb(179,179,179)" stroke-linejoin="round" d="M 7485,17182 L 7485,17032 "/>
 <path fill="none" stroke="rgb(179,179,179)" stroke-linejoin="round" d="M 7730,17182 L 7730,17032 "/>
 <path fill="none" stroke="rgb(179,179,179)" stroke-linejoin="round" d="M 7730,17182 L 7730,17032 "/>
 <path fill="none" stroke="rgb(179,179,179)" stroke-linejoin="round" d="M 7975,17182 L 7975,17032 "/>
 <path fill="none" stroke="rgb(179,179,179)" stroke-linejoin="round" d="M 7975,17182 L 7975,17032 "/>
 <path fill="none" stroke="rgb(179,179,179)" stroke-linejoin="round" d="M 8219,17182 L 8219,17032 "/>
 <path fill="none" stroke="rgb(179,179,179)" stroke-linejoin="round" d="M 8219,17182 L 8219,17032 "/>
 <path fill="none" stroke="rgb(179,179,179)" stroke-linejoin="round" d="M 8464,17182 L 8464,17032 "/>
 <path fill="none" stroke="rgb(179,179,179)" stroke-linejoin="round" d="M 8464,17182 L 8464,17032 "/>
 <path fill="none" stroke="rgb(179,179,179)" stroke-linejoin="round" d="M 8709,17182 L 8709,17032 "/>
 <path fill="none" stroke="rgb(179,179,179)" stroke-linejoin="round" d="M 8709,17182 L 8709,17032 "/>
 <path fill="none" stroke="rgb(179,179,179)" stroke-linejoin="round" d="M 8953,17182 L 8953,17032 "/>
 <path fill="none" stroke="rgb(179,179,179)" stroke-linejoin="round" d="M 8953,17182 L 8953,17032 "/>
 <path fill="none" stroke="rgb(179,179,179)" stroke-linejoin="round" d="M 9198,17182 L 9198,17032 "/>
 <path fill="none" stroke="rgb(179,179,179)" stroke-linejoin="round" d="M 9198,17182 L 9198,17032 "/>
 <path fill="none" stroke="rgb(179,179,179)" stroke-linejoin="round" d="M 9443,17182 L 9443,17032 "/>
 <path fill="none" stroke="rgb(179,179,179)" stroke-linejoin="round" d="M 9443,17182 L 9443,17032 "/>
 <path fill="none" stroke="rgb(179,179,179)" stroke-linejoin="round" d="M 9688,17182 L 9688,17032 "/>
 <path fill="none" stroke="rgb(179,179,179)" stroke-linejoin="round" d="M 9688,17182 L 9688,17032 "/>
 <path fill="none" stroke="rgb(179,179,179)" stroke-linejoin="round" d="M 9933,17182 L 9933,17032 "/>
 <path fill="none" stroke="rgb(179,179,179)" stroke-linejoin="round" d="M 9933,17182 L 9933,17032 "/>
 <path fill="none" stroke="rgb(179,179,179)" stroke-linejoin="round" d="M 10178,17182 L 10178,17032 "/>
 <path fill="none" stroke="rgb(179,179,179)" stroke-linejoin="round" d="M 10178,17182 L 10178,17032 "/>
 <path fill="none" stroke="rgb(179,179,179)" stroke-linejoin="round" d="M 10422,17182 L 10422,17032 "/>
 <path fill="none" stroke="rgb(179,179,179)" stroke-linejoin="round" d="M 10422,17182 L 10422,17032 "/>
 <path fill="none" stroke="rgb(179,179,179)" stroke-linejoin="round" d="M 10667,17182 L 10667,17032 "/>
 <path fill="none" stroke="rgb(179,179,179)" stroke-linejoin="round" d="M 10667,17182 L 10667,17032 "/>
 <path fill="none" stroke="rgb(179,179,179)" stroke-linejoin="round" d="M 10912,17182 L 10912,17032 "/>
 <path fill="none" stroke="rgb(179,179,179)" stroke-linejoin="round" d="M 10912,17182 L 10912,17032 "/>
 <path fill="none" stroke="rgb(179,179,179)" stroke-linejoin="round" d="M 11157,17182 L 11157,17032 "/>
 <path fill="none" stroke="rgb(179,179,179)" stroke-linejoin="round" d="M 11157,17182 L 11157,17032 "/>
 <path fill="none" stroke="rgb(179,179,179)" stroke-linejoin="round" d="M 11402,17182 L 11402,17032 "/>
 <path fill="none" stroke="rgb(179,179,179)" stroke-linejoin="round" d="M 11402,17182 L 11402,17032 "/>
 <path fill="none" stroke="rgb(179,179,179)" stroke-linejoin="round" d="M 11647,17182 L 11647,17032 "/>
 <path fill="none" stroke="rgb(179,179,179)" stroke-linejoin="round" d="M 11647,17182 L 11647,17032 "/>
 <path fill="none" stroke="rgb(179,179,179)" stroke-linejoin="round" d="M 1610,17032 L 11647,17032 "/>
 <path fill="none" stroke="rgb(179,179,179)" stroke-linejoin="round" d="M 1460,17032 L 1610,17032 "/>
 <path fill="none" stroke="rgb(179,179,179)" stroke-linejoin="round" d="M 1460,17032 L 1610,17032 "/>
 <path fill="none" stroke="rgb(179,179,179)" stroke-linejoin="round" d="M 1460,16399 L 1610,16399 "/>
 <path fill="none" stroke="rgb(179,179,179)" stroke-linejoin="round" d="M 1460,16399 L 1610,16399 "/>
 <path fill="none" stroke="rgb(179,179,179)" stroke-linejoin="round" d="M 1460,15766 L 1610,15766 "/>
 <path fill="none" stroke="rgb(179,179,179)" stroke-linejoin="round" d="M 1460,15766 L 1610,15766 "/>
 <path fill="none" stroke="rgb(179,179,179)" stroke-linejoin="round" d="M 1460,15133 L 1610,15133 "/>
 <path fill="none" stroke="rgb(179,179,179)" stroke-linejoin="round" d="M 1460,15133 L 1610,15133 "/>
 <path fill="none" stroke="rgb(179,179,179)" stroke-linejoin="round" d="M 1460,14500 L 1610,14500 "/>
 <path fill="none" stroke="rgb(179,179,179)" stroke-linejoin="round" d="M 1460,14500 L 1610,14500 "/>
 <path fill="none" stroke="rgb(179,179,179)" stroke-linejoin="round" d="M 1460,13867 L 1610,13867 "/>
 <path fill="none" stroke="rgb(179,179,179)" stroke-linejoin="round" d="M 1460,13867 L 1610,13867 "/>
 <path fill="none" stroke="rgb(179,179,179)" stroke-linejoin="round" d="M 1460,13234 L 1610,13234 "/>
 <path fill="none" stroke="rgb(179,179,179)" stroke-linejoin="round" d="M 1460,13234 L 1610,13234 "/>
 <path fill="none" stroke="rgb(179,179,179)" stroke-linejoin="round" d="M 1460,12601 L 1610,12601 "/>
 <path fill="none" stroke="rgb(179,179,179)" stroke-linejoin="round" d="M 1460,12601 L 1610,12601 "/>
 <path fill="none" stroke="rgb(179,179,179)" stroke-linejoin="round" d="M 1460,11968 L 1610,11968 "/>
 <path fill="none" stroke="rgb(179,179,179)" stroke-linejoin="round" d="M 1460,11968 L 1610,11968 "/>
 <path fill="none" stroke="rgb(179,179,179)" stroke-linejoin="round" d="M 1460,11335 L 1610,11335 "/>
 <path fill="none" stroke="rgb(179,179,179)" stroke-linejoin="round" d="M 1460,11335 L 1610,11335 "/>
 <path fill="none" stroke="rgb(179,179,179)" stroke-linejoin="round" d="M 1460,10702 L 1610,10702 "/>
 <path fill="none" stroke="rgb(179,179,179)" stroke-linejoin="round" d="M 1460,10702 L 1610,10702 "/>
 <path fill="none" stroke="rgb(179,179,179)" stroke-linejoin="round" d="M 1460,10069 L 1610,10069 "/>
 <path fill="none" stroke="rgb(179,179,179)" stroke-linejoin="round" d="M 1460,10069 L 1610,10069 "/>
 <path fill="none" stroke="rgb(179,179,179)" stroke-linejoin="round" d="M 1460,9435 L 1610,9435 "/>
 <path fill="none" stroke="rgb(179,179,179)" stroke-linejoin="round" d="M 1460,9435 L 1610,9435 "/>
 <path fill="none" stroke="rgb(179,179,179)" stroke-linejoin="round" d="M 1460,8803 L 1610,8803 "/>
 <path fill="none" stroke="rgb(179,179,179)" stroke-linejoin="round" d="M 1460,8803 L 1610,8803 "/>
 <path fill="none" stroke="rgb(179,179,179)" stroke-linejoin="round" d="M 1460,8171 L 1610,8171 "/>
 <path fill="none" stroke="rgb(179,179,179)" stroke-linejoin="round" d="M 1460,8171 L 1610,8171 "/>
 <path fill="none" stroke="rgb(179,179,179)" stroke-linejoin="round" d="M 1460,7538 L 1610,7538 "/>
 <path fill="none" stroke="rgb(179,179,179)" stroke-linejoin="round" d="M 1460,7538 L 1610,7538 "/>
 <path fill="none" stroke="rgb(179,179,179)" stroke-linejoin="round" d="M 1460,6904 L 1610,6904 "/>
 <path fill="none" stroke="rgb(179,179,179)" stroke-linejoin="round" d="M 1460,6904 L 1610,6904 "/>
 <path fill="none" stroke="rgb(179,179,179)" stroke-linejoin="round" d="M 1460,6272 L 1610,6272 "/>
 <path fill="none" stroke="rgb(179,179,179)" stroke-linejoin="round" d="M 1460,6272 L 1610,6272 "/>
 <path fill="none" stroke="rgb(179,179,179)" stroke-linejoin="round" d="M 1460,5638 L 1610,5638 "/>
 <path fill="none" stroke="rgb(179,179,179)" stroke-linejoin="round" d="M 1460,5638 L 1610,5638 "/>
 <path fill="none" stroke="rgb(179,179,179)" stroke-linejoin="round" d="M 1460,5005 L 1610,5005 "/>
 <path fill="none" stroke="rgb(179,179,179)" stroke-linejoin="round" d="M 1460,5005 L 1610,5005 "/>
 <path fill="none" stroke="rgb(179,179,179)" stroke-linejoin="round" d="M 1460,4373 L 1610,4373 "/>
 <path fill="none" stroke="rgb(179,179,179)" stroke-linejoin="round" d="M 1460,4373 L 1610,4373 "/>
 <path fill="none" stroke="rgb(179,179,179)" stroke-linejoin="round" d="M 1460,3739 L 1610,3739 "/>
 <path fill="none" stroke="rgb(179,179,179)" stroke-linejoin="round" d="M 1460,3739 L 1610,3739 "/>
 <path fill="none" stroke="rgb(179,179,179)" stroke-linejoin="round" d="M 1460,3106 L 1610,3106 "/>
 <path fill="none" stroke="rgb(179,179,179)" stroke-linejoin="round" d="M 1460,3106 L 1610,3106 "/>
 <path fill="none" stroke="rgb(179,179,179)" stroke-linejoin="round" d="M 1460,2474 L 1610,2474 "/>
 <path fill="none" stroke="rgb(179,179,179)" stroke-linejoin="round" d="M 1460,2474 L 1610,2474 "/>
 <path fill="none" stroke="rgb(179,179,179)" stroke-linejoin="round" d="M 1460,1840 L 1610,1840 "/>
 <path fill="none" stroke="rgb(179,179,179)" stroke-linejoin="round" d="M 1460,1840 L 1610,1840 "/>
 <path fill="none" stroke="rgb(179,179,179)" stroke-linejoin="round" d="M 1610,17032 L 1610,1841 "/>
 <path fill="none" stroke="rgb(0,69,134)" stroke-width="80" stroke-linejoin="round" d="M 1610,3031 L 1854,8449 2099,11828 2344,13923 2589,15208 2834,15985 3078,16446 3323,16715 3568,16866 3813,16949 4058,16992 4303,17014 4547,17024 4792,17029 5037,17031 5282,17031 5527,17031 5772,17031 6016,17031 6261,17031 6506,17031 6751,17032 6996,17031 7241,17031 7485,17031 7730,17031 7975,17031 8219,17031 8464,17030 8709,17028 8953,17021 9198,17007 9443,16978 9688,16922 9933,16816 10178,16625 10422,16291 10667,15721 10912,14769 11157,13204 11402,10665 11647,6581 "/>
 <path fill="none" stroke="rgb(255,66,14)" stroke-width="80" stroke-linejoin="round" d="M 1610,3031 L 1854,8449 2099,11828 2344,13923 2589,15208 2834,15985 3078,16446 3323,16715 3568,16866 3813,16949 4058,16992 4303,17014 4547,17024 4792,17029 5037,17031 5282,17031 5527,17031 5772,17031 6016,17031 6261,17031 6506,17031 6751,17032 6996,17031 7241,17031 7485,17031 7730,17031 7975,17031 8219,17031 8464,17030 8709,17028 8953,17021 9198,17007 9443,16978 9688,16922 9933,16816 10178,16625 10422,16291 10667,15721 10912,14769 11157,13204 11402,10665 11647,6581 "/>
 <text class="SVGTextShape" transform="rotate(-45 1139 18061)"><tspan class="TextParagraph"><tspan class="TextPosition" x="1139" y="18061"><tspan font-family="Liberation Sans, sans-serif" font-size="353px" font-weight="400" fill="rgb(0,0,0)" stroke="none" style="white-space: pre">-2.08</tspan></tspan></tspan></text>
 <text class="SVGTextShape" transform="rotate(-45 1873 18061)"><tspan class="TextParagraph"><tspan class="TextPosition" x="1873" y="18061"><tspan font-family="Liberation Sans, sans-serif" font-size="353px" font-weight="400" fill="rgb(0,0,0)" stroke="none" style="white-space: pre">-1.78</tspan></tspan></tspan></text>
 <text class="SVGTextShape" transform="rotate(-45 2607 18061)"><tspan class="TextParagraph"><tspan class="TextPosition" x="2607" y="18061"><tspan font-family="Liberation Sans, sans-serif" font-size="353px" font-weight="400" fill="rgb(0,0,0)" stroke="none" style="white-space: pre">-1.48</tspan></tspan></tspan></text>
 <text class="SVGTextShape" transform="rotate(-45 3342 18061)"><tspan class="TextParagraph"><tspan class="TextPosition" x="3342" y="18061"><tspan font-family="Liberation Sans, sans-serif" font-size="353px" font-weight="400" fill="rgb(0,0,0)" stroke="none" style="white-space: pre">-1.18</tspan></tspan></tspan></text>
 <text class="SVGTextShape" transform="rotate(-45 4076 18061)"><tspan class="TextParagraph"><tspan class="TextPosition" x="4076" y="18061"><tspan font-family="Liberation Sans, sans-serif" font-size="353px" font-weight="400" fill="rgb(0,0,0)" stroke="none" style="white-space: pre">-0.88</tspan></tspan></tspan></text>
 <text class="SVGTextShape" transform="rotate(-45 4811 18061)"><tspan class="TextParagraph"><tspan class="TextPosition" x="4811" y="18061"><tspan font-family="Liberation Sans, sans-serif" font-size="353px" font-weight="400" fill="rgb(0,0,0)" stroke="none" style="white-space: pre">-0.58</tspan></tspan></tspan></text>
 <text class="SVGTextShape" transform="rotate(-45 5545 18061)"><tspan class="TextParagraph"><tspan class="TextPosition" x="5545" y="18061"><tspan font-family="Liberation Sans, sans-serif" font-size="353px" font-weight="400" fill="rgb(0,0,0)" stroke="none" style="white-space: pre">-0.28</tspan></tspan></tspan></text>
 <text class="SVGTextShape" transform="rotate(-45 6361 17981)"><tspan class="TextParagraph"><tspan class="TextPosition" x="6361" y="17981"><tspan font-family="Liberation Sans, sans-serif" font-size="353px" font-weight="400" fill="rgb(0,0,0)" stroke="none" style="white-space: pre">0.02</tspan></tspan></tspan></text>
 <text class="SVGTextShape" transform="rotate(-45 7095 17981)"><tspan class="TextParagraph"><tspan class="TextPosition" x="7095" y="17981"><tspan font-family="Liberation Sans, sans-serif" font-size="353px" font-weight="400" fill="rgb(0,0,0)" stroke="none" style="white-space: pre">0.32</tspan></tspan></tspan></text>
 <text class="SVGTextShape" transform="rotate(-45 7830 17981)"><tspan class="TextParagraph"><tspan class="TextPosition" x="7830" y="17981"><tspan font-family="Liberation Sans, sans-serif" font-size="353px" font-weight="400" fill="rgb(0,0,0)" stroke="none" style="white-space: pre">0.62</tspan></tspan></tspan></text>
 <text class="SVGTextShape" transform="rotate(-45 8563 17981)"><tspan class="TextParagraph"><tspan class="TextPosition" x="8563" y="17981"><tspan font-family="Liberation Sans, sans-serif" font-size="353px" font-weight="400" fill="rgb(0,0,0)" stroke="none" style="white-space: pre">0.92</tspan></tspan></tspan></text>
 <text class="SVGTextShape" transform="rotate(-45 9298 17981)"><tspan class="TextParagraph"><tspan class="TextPosition" x="9298" y="17981"><tspan font-family="Liberation Sans, sans-serif" font-size="353px" font-weight="400" fill="rgb(0,0,0)" stroke="none" style="white-space: pre">1.22</tspan></tspan></tspan></text>
 <text class="SVGTextShape" transform="rotate(-45 10032 17981)"><tspan class="TextParagraph"><tspan class="TextPosition" x="10032" y="17981"><tspan font-family="Liberation Sans, sans-serif" font-size="353px" font-weight="400" fill="rgb(0,0,0)" stroke="none" style="white-space: pre">1.52</tspan></tspan></tspan></text>
 <text class="SVGTextShape" transform="rotate(-45 10767 17981)"><tspan class="TextParagraph"><tspan class="TextPosition" x="10767" y="17981"><tspan font-family="Liberation Sans, sans-serif" font-size="353px" font-weight="400" fill="rgb(0,0,0)" stroke="none" style="white-space: pre">1.82</tspan></tspan></tspan></text>
 <text class="SVGTextShape"><tspan class="TextParagraph"><tspan class="TextPosition" x="1169" y="17153"><tspan font-family="Liberation Sans, sans-serif" font-size="353px" font-weight="400" fill="rgb(0,0,0)" stroke="none" style="white-space: pre">0</tspan></tspan></tspan></text>
 <text class="SVGTextShape"><tspan class="TextParagraph"><tspan class="TextPosition" x="308" y="16520"><tspan font-family="Liberation Sans, sans-serif" font-size="353px" font-weight="400" fill="rgb(0,0,0)" stroke="none" style="white-space: pre">0.0001</tspan></tspan></tspan></text>
 <text class="SVGTextShape"><tspan class="TextParagraph"><tspan class="TextPosition" x="308" y="15887"><tspan font-family="Liberation Sans, sans-serif" font-size="353px" font-weight="400" fill="rgb(0,0,0)" stroke="none" style="white-space: pre">0.0002</tspan></tspan></tspan></text>
 <text class="SVGTextShape"><tspan class="TextParagraph"><tspan class="TextPosition" x="308" y="15254"><tspan font-family="Liberation Sans, sans-serif" font-size="353px" font-weight="400" fill="rgb(0,0,0)" stroke="none" style="white-space: pre">0.0003</tspan></tspan></tspan></text>
 <text class="SVGTextShape"><tspan class="TextParagraph"><tspan class="TextPosition" x="308" y="14621"><tspan font-family="Liberation Sans, sans-serif" font-size="353px" font-weight="400" fill="rgb(0,0,0)" stroke="none" style="white-space: pre">0.0004</tspan></tspan></tspan></text>
 <text class="SVGTextShape"><tspan class="TextParagraph"><tspan class="TextPosition" x="308" y="13988"><tspan font-family="Liberation Sans, sans-serif" font-size="353px" font-weight="400" fill="rgb(0,0,0)" stroke="none" style="white-space: pre">0.0005</tspan></tspan></tspan></text>
 <text class="SVGTextShape"><tspan class="TextParagraph"><tspan class="TextPosition" x="308" y="13355"><tspan font-family="Liberation Sans, sans-serif" font-size="353px" font-weight="400" fill="rgb(0,0,0)" stroke="none" style="white-space: pre">0.0006</tspan></tspan></tspan></text>
 <text class="SVGTextShape"><tspan class="TextParagraph"><tspan class="TextPosition" x="308" y="12722"><tspan font-family="Liberation Sans, sans-serif" font-size="353px" font-weight="400" fill="rgb(0,0,0)" stroke="none" style="white-space: pre">0.0007</tspan></tspan></tspan></text>
 <text class="SVGTextShape"><tspan class="TextParagraph"><tspan class="TextPosition" x="308" y="12089"><tspan font-family="Liberation Sans, sans-serif" font-size="353px" font-weight="400" fill="rgb(0,0,0)" stroke="none" style="white-space: pre">0.0008</tspan></tspan></tspan></text>
 <text class="SVGTextShape"><tspan class="TextParagraph"><tspan class="TextPosition" x="308" y="11456"><tspan font-family="Liberation Sans, sans-serif" font-size="353px" font-weight="400" fill="rgb(0,0,0)" stroke="none" style="white-space: pre">0.0009</tspan></tspan></tspan></text>
 <text class="SVGTextShape"><tspan class="TextParagraph"><tspan class="TextPosition" x="499" y="10823"><tspan font-family="Liberation Sans, sans-serif" font-size="353px" font-weight="400" fill="rgb(0,0,0)" stroke="none" style="white-space: pre">0.001</tspan></tspan></tspan></text>
 <text class="SVGTextShape"><tspan class="TextParagraph"><tspan class="TextPosition" x="308" y="10190"><tspan font-family="Liberation Sans, sans-serif" font-size="353px" font-weight="400" fill="rgb(0,0,0)" stroke="none" style="white-space: pre">0.0011</tspan></tspan></tspan></text>
 <text class="SVGTextShape"><tspan class="TextParagraph"><tspan class="TextPosition" x="308" y="9556"><tspan font-family="Liberation Sans, sans-serif" font-size="353px" font-weight="400" fill="rgb(0,0,0)" stroke="none" style="white-space: pre">0.0012</tspan></tspan></tspan></text>
 <text class="SVGTextShape"><tspan class="TextParagraph"><tspan class="TextPosition" x="308" y="8924"><tspan font-family="Liberation Sans, sans-serif" font-size="353px" font-weight="400" fill="rgb(0,0,0)" stroke="none" style="white-space: pre">0.0013</tspan></tspan></tspan></text>
 <text class="SVGTextShape"><tspan class="TextParagraph"><tspan class="TextPosition" x="308" y="8292"><tspan font-family="Liberation Sans, sans-serif" font-size="353px" font-weight="400" fill="rgb(0,0,0)" stroke="none" style="white-space: pre">0.0014</tspan></tspan></tspan></text>
 <text class="SVGTextShape"><tspan class="TextParagraph"><tspan class="TextPosition" x="308" y="7659"><tspan font-family="Liberation Sans, sans-serif" font-size="353px" font-weight="400" fill="rgb(0,0,0)" stroke="none" style="white-space: pre">0.0015</tspan></tspan></tspan></text>
 <text class="SVGTextShape"><tspan class="TextParagraph"><tspan class="TextPosition" x="308" y="7025"><tspan font-family="Liberation Sans, sans-serif" font-size="353px" font-weight="400" fill="rgb(0,0,0)" stroke="none" style="white-space: pre">0.0016</tspan></tspan></tspan></text>
 <text class="SVGTextShape"><tspan class="TextParagraph"><tspan class="TextPosition" x="308" y="6393"><tspan font-family="Liberation Sans, sans-serif" font-size="353px" font-weight="400" fill="rgb(0,0,0)" stroke="none" style="white-space: pre">0.0017</tspan></tspan></tspan></text>
 <text class="SVGTextShape"><tspan class="TextParagraph"><tspan class="TextPosition" x="308" y="5759"><tspan font-family="Liberation Sans, sans-serif" font-size="353px" font-weight="400" fill="rgb(0,0,0)" stroke="none" style="white-space: pre">0.0018</tspan></tspan></tspan></text>
 <text class="SVGTextShape"><tspan class="TextParagraph"><tspan class="TextPosition" x="308" y="5126"><tspan font-family="Liberation Sans, sans-serif" font-size="353px" font-weight="400" fill="rgb(0,0,0)" stroke="none" style="white-space: pre">0.0019</tspan></tspan></tspan></text>
 <text class="SVGTextShape"><tspan class="TextParagraph"><tspan class="TextPosition" x="499" y="4494"><tspan font-family="Liberation Sans, sans-serif" font-size="353px" font-weight="400" fill="rgb(0,0,0)" stroke="none" style="white-space: pre">0.002</tspan></tspan></tspan></text>
 <text class="SVGTextShape"><tspan class="TextParagraph"><tspan class="TextPosition" x="308" y="3860"><tspan font-family="Liberation Sans, sans-serif" font-size="353px" font-weight="400" fill="rgb(0,0,0)" stroke="none" style="white-space: pre">0.0021</tspan></tspan></tspan></text>
 <text class="SVGTextShape"><tspan class="TextParagraph"><tspan class="TextPosition" x="308" y="3227"><tspan font-family="Liberation Sans, sans-serif" font-size="353px" font-weight="400" fill="rgb(0,0,0)" stroke="none" style="white-space: pre">0.0022</tspan></tspan></tspan></text>
 <text class="SVGTextShape"><tspan class="TextParagraph"><tspan class="TextPosition" x="308" y="2595"><tspan font-family="Liberation Sans, sans-serif" font-size="353px" font-weight="400" fill="rgb(0,0,0)" stroke="none" style="white-space: pre">0.0023</tspan></tspan></tspan></text>
 <text class="SVGTextShape"><tspan class="TextParagraph"><tspan class="TextPosition" x="308" y="1961"><tspan font-family="Liberation Sans, sans-serif" font-size="353px" font-weight="400" fill="rgb(0,0,0)" stroke="none" style="white-space: pre">0.0024</tspan></tspan></tspan></text>
 <text class="SVGTextShape"><tspan class="TextParagraph"><tspan class="TextPosition" x="3426" y="1029"><tspan font-family="Liberation Sans, sans-serif" font-size="459px" font-weight="400" fill="rgb(0,0,0)" stroke="none" style="white-space: pre">Относительная неточность синуса, 4 члена</tspan></tspan></tspan></text>
 <path fill="none" stroke="rgb(0,69,134)" stroke-width="80" stroke-linejoin="round" d="M 12083,8987 L 12883,8987 "/>
 <path fill="none" stroke="rgb(255,66,14)" stroke-width="80" stroke-linejoin="round" d="M 12083,9484 L 12883,9484 "/>
 <text class="SVGTextShape"><tspan class="TextParagraph"><tspan class="TextPosition" x="12983" y="9107"><tspan font-family="Liberation Sans, sans-serif" font-size="353px" font-weight="400" fill="rgb(0,0,0)" stroke="none" style="white-space: pre">Обратная сумма</tspan></tspan></tspan></text>
 <text class="SVGTextShape"><tspan class="TextParagraph"><tspan class="TextPosition" x="12983" y="9604"><tspan font-family="Liberation Sans, sans-serif" font-size="353px" font-weight="400" fill="rgb(0,0,0)" stroke="none" style="white-space: pre">Прямая сумма</tspan></tspan></tspan></text>
</svg>